
<svg xmlns="http://www.w3.org/2000/svg" width="210" height="110" viewBox="0 0 210 110">
    <g fill="none" fill-rule="evenodd">
        <path fill="#E1FCFF" d="M0 110h210V0H0z"/>
        <path fill="#D8F4BE" d="M210 110H0V74.346s28.121-16.8 103.813-16.8c75.692 0 106.187 16.8 106.187 16.8V110z"/>
        <path fill="#BFDD97" d="M112.481 99.942c0 1.16-1.863 2.1-4.16 2.1-2.299 0-4.16-.94-4.16-2.1 0-1.16 1.861-2.1 4.16-2.1 2.297 0 4.16.94 4.16 2.1"/>
        <path fill="#77AF46" d="M108.32 99.942a.84.84 0 0 1-.84-.84V51.724a.84.84 0 1 1 1.68 0v47.38a.84.84 0 0 1-.84.84"/>
        <path fill="#84BF56" d="M108.32 84.096c-7.423 0-13.44-6.017-13.44-13.44 7.423 0 13.44 6.017 13.44 13.44M108.32 78.956c7.423 0 13.44-6.017 13.44-13.44-7.423 0-13.44 6.017-13.44 13.44"/>
        <path fill="#FCBE67" d="M112.247 42.86c0 8.407-1.758 15.222-3.927 15.222s-3.927-6.815-3.927-15.222 1.758-15.222 3.927-15.222c2.17 0 3.927 6.815 3.927 15.222"/>
        <path fill="#F37139" d="M114.966 42.86c0 8.407-2.976 15.222-6.646 15.222s-6.646-6.815-6.646-15.222 2.975-15.222 6.646-15.222c3.67 0 6.646 6.815 6.646 15.222"/>
        <path fill="#F37139" d="M108.32 49.506c-8.407 0-15.222-2.976-15.222-6.646s6.815-6.646 15.222-6.646 15.222 2.975 15.222 6.646c0 3.67-6.815 6.646-15.222 6.646"/>
        <path fill="#E85638" d="M113.02 47.56c-5.945 5.945-12.868 8.66-15.463 6.064-2.596-2.595.119-9.518 6.064-15.463 5.945-5.945 12.868-8.66 15.463-6.064 2.596 2.595-.12 9.518-6.064 15.463"/>
        <path fill="#E85638" d="M103.62 47.56c-5.944-5.945-8.66-12.868-6.063-15.463 2.595-2.596 9.518.119 15.463 6.064 5.945 5.945 8.66 12.868 6.064 15.463-2.595 2.596-9.518-.12-15.463-6.064"/>
        <path fill="#FCC300" d="M114.966 42.86a6.646 6.646 0 1 1-13.292 0 6.646 6.646 0 0 1 13.292 0"/>
    </g>
</svg>
