
<svg xmlns="http://www.w3.org/2000/svg" viewBox="0 0 67 67"><defs><style>.cls-1,.cls-3,.cls-4{fill:#fff;}.cls-1{opacity:0.01;}.cls-2{fill:#dfe7eb;}.cls-2,.cls-3{stroke:#a3b0bf;}.cls-2,.cls-3,.cls-5,.cls-6,.cls-7{stroke-linecap:round;stroke-width:1.5px;}.cls-2,.cls-3,.cls-5,.cls-6{stroke-linejoin:round;}.cls-5,.cls-7{fill:none;}.cls-5,.cls-6{stroke:#08c7fb;}.cls-6{fill:#d8f4fd;}.cls-7{stroke:#dfe7eb;stroke-miterlimit:10;}</style></defs><title>Connect easily across functions</title><g id="Layer_2" data-name="Layer 2"><g id="Layer_1-2" data-name="Layer 1"><rect class="cls-1" width="67" height="67"/><polygon class="cls-2" points="39.46 55.07 39.46 50.27 27.54 50.27 27.54 55.07 21.57 58.18 45.43 58.18 39.46 55.07"/><path class="cls-3" d="M5.57,1.58H61.43A4.57,4.57,0,0,1,66,6.16V38.37a0,0,0,0,1,0,0H1a0,0,0,0,1,0,0V6.16A4.57,4.57,0,0,1,5.57,1.58Z"/><path class="cls-2" d="M1,38.37H66a0,0,0,0,1,0,0V45.7a4.57,4.57,0,0,1-4.57,4.57H5.57A4.57,4.57,0,0,1,1,45.7V38.37A0,0,0,0,1,1,38.37Z"/><path class="cls-4" d="M33.57,46.5a2.2,2.2,0,1,1,2.2-2.2A2.2,2.2,0,0,1,33.57,46.5Z"/><line class="cls-5" x1="5.88" y1="65.42" x2="45.96" y2="65.42"/><line class="cls-5" x1="16.71" y1="63.25" x2="16.71" y2="65.42"/><line class="cls-5" x1="21.04" y1="63.25" x2="21.04" y2="65.42"/><line class="cls-5" x1="25.38" y1="63.25" x2="25.38" y2="65.42"/><line class="cls-5" x1="30.79" y1="63.25" x2="30.79" y2="65.42"/><line class="cls-5" x1="39.46" y1="63.25" x2="39.46" y2="65.42"/><line class="cls-5" x1="35.13" y1="63.25" x2="35.13" y2="65.42"/><line class="cls-5" x1="43.79" y1="63.25" x2="43.79" y2="65.42"/><line class="cls-5" x1="12.38" y1="63.25" x2="12.38" y2="65.42"/><line class="cls-5" x1="8.04" y1="63.25" x2="8.04" y2="65.42"/><path class="cls-6" d="M63.31,63.82h0a4.91,4.91,0,0,0-5-4.9H55.05a4.91,4.91,0,0,0-5,4.9h0a1.61,1.61,0,0,0,1.65,1.6h9.92A1.61,1.61,0,0,0,63.31,63.82Z"/><line class="cls-7" x1="35.13" y1="13.48" x2="56.79" y2="13.48"/><line class="cls-7" x1="35.13" y1="19.98" x2="56.79" y2="19.98"/><line class="cls-7" x1="35.13" y1="26.47" x2="56.79" y2="26.47"/><line class="cls-5" x1="40.54" y1="11.32" x2="40.54" y2="15.65"/><line class="cls-5" x1="51.38" y1="17.81" x2="51.38" y2="22.14"/><line class="cls-5" x1="44.88" y1="24.3" x2="44.88" y2="28.63"/><polyline class="cls-6" points="26.43 13.38 26.43 25.53 16.71 29.36 6.98 25.53 6.98 13.38"/><polygon class="cls-6" points="16.71 16.16 6.98 13.38 16.71 10.6 26.43 13.38 16.71 16.16"/><line class="cls-6" x1="16.71" y1="16.15" x2="16.71" y2="29.35"/></g></g></svg>