
<svg xmlns="http://www.w3.org/2000/svg" xmlns:xlink="http://www.w3.org/1999/xlink" width="277" height="298" viewBox="0 0 277 298">
    <defs>
        <path id="a" d="M.526 131.726c0 72.669 58.91 131.58 131.578 131.58 72.67 0 131.578-58.911 131.578-131.58 0-72.67-58.908-131.58-131.578-131.58C59.435.146.526 59.056.526 131.726z"/>
        <path id="c" d="M.875.805a130.689 130.689 0 0 0 4.023 10.112h181.497V.805H.875z"/>
        <path id="e" d="M.526 131.726c0 72.669 58.91 131.58 131.578 131.58 72.67 0 131.578-58.911 131.578-131.58 0-72.67-58.908-131.58-131.578-131.58C59.435.146.526 59.056.526 131.726z"/>
        <path id="g" d="M.733 106.018h162.444V.54H.733v105.477z"/>
        <path id="i" d="M.734 106.018h162.442V.54H.734v105.477z"/>
        <path id="k" d="M.733 106.018h162.444V.54H.733v105.477z"/>
        <path id="m" d="M.734 106.018h162.442V.54H.734v105.477z"/>
    </defs>
    <g fill="none" fill-rule="evenodd">
        <g transform="translate(0 .235)">
            <g>
                <mask id="b" fill="#fff">
                    <use xlink:href="#a"/>
                </mask>
                <path fill="#E1FCFF" d="M266.636 263.912l-280.234.788V-27.551h280.234z" mask="url(#b)"/>
            </g>
            <path fill="#FFF" d="M149.524 16.605a9.052 9.052 0 0 0-4.916 1.458c.193-1.95-.428-3.967-1.923-5.46a6.783 6.783 0 0 0-9.593 0c-1.586 1.586-2.202 3.762-1.888 5.821a8.52 8.52 0 0 0-9.249 1.864 8.52 8.52 0 0 0 0 12.05 8.496 8.496 0 0 0 6.026 2.497h21.543a9.115 9.115 0 0 0 9.114-9.116 9.114 9.114 0 0 0-9.114-9.114"/>
            <g transform="translate(7.018 174.439)">
                <mask id="d" fill="#fff">
                    <use xlink:href="#c"/>
                </mask>
                <path fill="#BEE5E5" d="M181.339.805V4.85c0 .558-.453 1.01-1.013 1.01h-2.02c-.56 0-1.013-.452-1.013-1.01V.805h-5.056V4.85c0 .558-.453 1.01-1.012 1.01h-2.021c-.56 0-1.013-.452-1.013-1.01V.805h-5.056V4.85c0 .558-.453 1.01-1.012 1.01h-2.021a.997.997 0 0 1-.869-.522V.805h-5.2v4.533a.995.995 0 0 1-.868.523h-2.023a1.01 1.01 0 0 1-1.01-1.01V.804h-5.057V4.85c0 .558-.452 1.01-1.012 1.01h-2.023a1.01 1.01 0 0 1-1.01-1.01V.805h-5.056V4.85a1.01 1.01 0 0 1-1.01 1.01h-2.025a1.01 1.01 0 0 1-1.01-1.01V.805h-5.148V4.85a1.01 1.01 0 0 1-1.01 1.01h-2.024c-.56 0-1.012-.452-1.012-1.01V.805h-5.056V4.85a1.01 1.01 0 0 1-1.01 1.01h-2.023a1.01 1.01 0 0 1-1.01-1.01V.805h-5.057V4.85c0 .558-.453 1.01-1.012 1.01h-2.023a.997.997 0 0 1-.869-.522V.805h-5.198v4.533a1 1 0 0 1-.868.523h-2.025a1.01 1.01 0 0 1-1.01-1.01V.804h-5.056V4.85a1.01 1.01 0 0 1-1.011 1.01h-2.025a1.01 1.01 0 0 1-1.01-1.01V.805h-5.184V4.85a1.01 1.01 0 0 1-1.01 1.01h-1.896c-.56 0-1.012-.452-1.012-1.01V.805h-5.184V4.85a1.01 1.01 0 0 1-1.01 1.01h-2.023a1.01 1.01 0 0 1-1.01-1.01V.805h-5.057V4.85c0 .558-.453 1.01-1.012 1.01h-2.021a1 1 0 0 1-.87-.522V.805h-5.199v4.533a1 1 0 0 1-.868.523h-2.023a1.01 1.01 0 0 1-1.01-1.01V.804h-5.058V4.85a1.01 1.01 0 0 1-1.011 1.01h-2.023a1.01 1.01 0 0 1-1.01-1.01V.805h-5.056V4.85c0 .558-.453 1.01-1.013 1.01H32.89a1.01 1.01 0 0 1-1.01-1.01V.805h-5.147V4.85c0 .558-.453 1.01-1.013 1.01H23.7c-.56 0-1.013-.452-1.013-1.01V.805H17.63V4.85c0 .558-.453 1.01-1.012 1.01h-2.022c-.56 0-1.012-.452-1.012-1.01V.805H8.528V4.85c0 .558-.453 1.01-1.012 1.01H5.495a.997.997 0 0 1-.869-.522V.805h-5.2v4.533a1 1 0 0 1-.868.523h-2.023a1.01 1.01 0 0 1-1.01-1.01V.804h-5.058V4.85c0 .558-.451 1.01-1.01 1.01h-2.024a1.01 1.01 0 0 1-1.01-1.01V.805h-5.056V4.85c0 .558-.453 1.01-1.013 1.01h-1.249v5.057H185.382c.56 0 1.013-.453 1.013-1.01V.804h-5.056z" mask="url(#d)"/>
            </g>
            <mask id="f" fill="#fff">
                <use xlink:href="#e"/>
            </mask>
            <path fill="#BEE5E5" d="M-13.8 240.742h280.228v-57.074H-13.8z" mask="url(#f)"/>
            <path fill="#BEE5E5" d="M78.878 238.342V164.756h-2.612a1.306 1.306 0 0 1-1.307-1.307v-11.757h6.532v5.225c0 .723.584 1.307 1.307 1.307h2.612c.72 0 1.305-.584 1.305-1.307v-5.225h6.532v5.225c0 .723.584 1.307 1.307 1.307h2.612c.723 0 1.307-.584 1.307-1.307v-5.225h6.532v5.225c0 .723.584 1.307 1.305 1.307h2.612c.723 0 1.307-.584 1.307-1.307v-5.225h6.532v11.757c0 .722-.585 1.307-1.307 1.307h-2.613V238.34H78.878zM-5.819 151.692v5.225c0 .723-.584 1.307-1.307 1.307h-2.612a1.305 1.305 0 0 1-1.306-1.307v-5.225h-2.99v86.65h10.827v-73.587h2.613c.722 0 1.307-.584 1.307-1.307v-11.756H-5.82z" mask="url(#f)"/>
            <path fill="#C5EDEE" d="M68.845 217.41V174.82h1.228c.598 0 1.084-.486 1.084-1.084v-1.3c0-.598-.486-1.084-1.084-1.084H57.919v-5.486h2.907c.805 0 1.454-.65 1.454-1.454v-13.09h-7.27v5.818c0 .803-.651 1.454-1.455 1.454h-2.908c-.804 0-1.455-.65-1.455-1.454v-5.818H41.92v5.818c0 .803-.65 1.454-1.454 1.454h-2.909c-.803 0-1.454-.65-1.454-1.454v-5.818h-7.27v5.818c0 .803-.651 1.454-1.455 1.454H24.47c-.803 0-1.454-.65-1.454-1.454v-5.818h-7.272v13.09c0 .803.651 1.454 1.455 1.454h2.908v5.486H5.6c-.598 0-1.084.486-1.084 1.084v1.3c0 .598.486 1.084 1.084 1.084h1.228V217.41h62.018z" mask="url(#f)"/>
            <path fill="#BEE5E5" d="M30.747 217.41h14.18v-24.57h-14.18zM7.447 217.41h5.004v-46.057H7.447z" mask="url(#f)"/>
            <path fill="#ACD1D0" d="M84.704 231.456h4.845v-79.763h-4.845z" mask="url(#f)"/>
            <path fill="#BEE5E5" d="M63.221 217.41h5.004v-46.057H63.22zM63.38 136.263h26.168l-13.332-30.119zM-13.876 136.263h26.168l-13.331-30.119z" mask="url(#f)"/>
            <path fill="#ACD1D0" d="M-11.198 140.25H9.968v-8.524h-21.166zM65.88 140.25h21.167v-8.524H65.881z" mask="url(#f)"/>
            <path fill="#C5EDEE" d="M9.968 231.456V138.48h1.656c.456 0 .827-.37.827-.828v-7.449H8.31v3.31c0 .458-.37.829-.825.829H5.829a.827.827 0 0 1-.828-.828v-3.311H.863v3.31c0 .458-.37.829-.827.829H-1.62a.827.827 0 0 1-.828-.828v-3.311h-4.138v3.31c0 .458-.37.829-.827.829h-1.656a.827.827 0 0 1-.828-.828v-3.311h-4.138v7.45c0 .457.37.827.828.827h1.656v92.976h21.52zM87.224 231.456V138.48h1.656c.456 0 .826-.37.826-.828v-7.449h-4.138v3.31c0 .458-.37.829-.827.829h-1.656a.827.827 0 0 1-.828-.828v-3.311h-4.139v3.31c0 .458-.37.829-.826.829h-1.656a.827.827 0 0 1-.828-.828v-3.311h-4.139v3.31c0 .458-.37.829-.826.829h-1.656a.827.827 0 0 1-.828-.828v-3.311H63.22v7.45c0 .457.37.827.828.827h1.656v92.976h21.52z" mask="url(#f)"/>
            <path fill="#BEE5E5" d="M263.244 175.243v4.046c0 .558-.453 1.01-1.013 1.01h-2.02c-.56 0-1.013-.452-1.013-1.01v-4.046h-5.056v4.046c0 .558-.453 1.01-1.012 1.01h-2.021a.995.995 0 0 1-.869-.523v-4.533h-5.2v4.533a1 1 0 0 1-.868.523h-2.023a1.01 1.01 0 0 1-1.01-1.01v-4.046h-5.057v4.046c0 .558-.452 1.01-1.012 1.01h-2.023a1.01 1.01 0 0 1-1.01-1.01v-4.046h-5.056v4.046c0 .558-.453 1.01-1.013 1.01h-2.023a1.01 1.01 0 0 1-1.01-1.01v-4.046h-5.147v4.046c0 .558-.453 1.01-1.013 1.01h-2.02c-.56 0-1.013-.452-1.013-1.01v-4.046h-5.056v4.046c0 .558-.453 1.01-1.012 1.01h-2.022a1.01 1.01 0 0 1-1.01-1.01v-4.046h-5.058v4.046a1.01 1.01 0 0 1-1.01 1.01h-2.023a.997.997 0 0 1-.869-.523v-4.533h-5.198v4.533a1 1 0 0 1-.87.523h-2.023a1.01 1.01 0 0 1-1.01-1.01v-4.046h-5.057v4.046a1.01 1.01 0 0 1-1.01 1.01h-2.025a1.01 1.01 0 0 1-1.01-1.01v-4.046h-5.184v4.046a1.01 1.01 0 0 1-1.011 1.01h-1.895c-.56 0-1.012-.452-1.012-1.01v-4.046h-5.184v4.046a1.01 1.01 0 0 1-1.01 1.01h-2.024a1.01 1.01 0 0 1-1.01-1.01v-4.046h-5.058v4.046a1.01 1.01 0 0 1-1.01 1.01h-2.023a1 1 0 0 1-.869-.523v-4.533h-5.2v4.533a.995.995 0 0 1-.868.523H142.1a1.01 1.01 0 0 1-1.01-1.01v-4.046h-5.059v4.046a1.01 1.01 0 0 1-1.01 1.01h-2.023a1.01 1.01 0 0 1-1.01-1.01v-4.046h-5.058v4.046a1.01 1.01 0 0 1-1.01 1.01h-2.024a1.01 1.01 0 0 1-1.01-1.01v-4.046h-5.149v4.046a1.01 1.01 0 0 1-1.01 1.01h-2.022c-.56 0-1.012-.452-1.012-1.01v-4.046h-5.056v4.046c0 .558-.453 1.01-1.013 1.01h-2.02c-.56 0-1.013-.452-1.013-1.01v-4.046h-5.056v4.046c0 .558-.453 1.01-1.012 1.01h-2.021a.997.997 0 0 1-.869-.523v-4.533h-5.2v4.533a1 1 0 0 1-.868.523h-2.023a1.01 1.01 0 0 1-1.01-1.01v-4.046h-5.058v4.046c0 .558-.451 1.01-1.011 1.01H78.44a1.01 1.01 0 0 1-1.01-1.01v-4.046h-5.058v4.046c0 .558-.451 1.01-1.01 1.01h-2.024a1.01 1.01 0 0 1-1.01-1.01v-4.046h-5.056v9.102c0 .558.45 1.01 1.01 1.01H266.635v-10.112h-3.391z" mask="url(#f)"/>
            <path fill="#6F9C9E" d="M204.165 215.002c-.64 0-1.245-.388-1.493-1.021l-40.075-103.009-40.08 103.009a1.608 1.608 0 0 1-2.073.912 1.602 1.602 0 0 1-.91-2.074l43.063-110.68 43.061 110.68a1.603 1.603 0 0 1-1.493 2.183" mask="url(#f)"/>
            <path fill="#8FC3CC" d="M160.995 179.077h3.203V34.035h-3.203z" mask="url(#f)"/>
            <path fill="#8FC3CC" d="M90.074 108.158h145.044v-3.204H90.074z" mask="url(#f)"/>
            <path fill="#8FC3CC" d="M212.744 158.968L110.182 56.406l2.265-2.264 102.561 102.561z" mask="url(#f)"/>
            <path fill="#8FC3CC" d="M112.447 158.968l-2.265-2.265L212.744 54.142l2.265 2.264z" mask="url(#f)"/>
            <path fill="#80B5BA" d="M162.595 66.729c-21.962 0-39.825 17.867-39.825 39.826 0 21.962 17.863 39.827 39.825 39.827 21.963 0 39.828-17.865 39.828-39.827 0-21.96-17.865-39.826-39.828-39.826m0 82.858c-23.725 0-43.029-19.304-43.029-43.032 0-23.726 19.304-43.03 43.029-43.03 23.726 0 43.031 19.304 43.031 43.03 0 23.728-19.305 43.032-43.031 43.032" mask="url(#f)"/>
            <path fill="#7DA8AF" d="M171.912 106.555a9.316 9.316 0 0 1-9.316 9.316c-5.145 0-9.317-4.17-9.317-9.316 0-5.145 4.172-9.316 9.317-9.316a9.316 9.316 0 0 1 9.316 9.316" mask="url(#f)"/>
            <path fill="#80B5BA" d="M162.596 35.636c-39.105 0-70.92 31.815-70.92 70.92 0 39.105 31.815 70.92 70.92 70.92 39.106 0 70.92-31.815 70.92-70.92 0-39.105-31.814-70.92-70.92-70.92m0 145.043c-40.872 0-74.124-33.251-74.124-74.123 0-40.872 33.252-74.123 74.124-74.123 40.872 0 74.123 33.25 74.123 74.123 0 40.872-33.25 74.123-74.123 74.123" mask="url(#f)"/>
            <path fill="#FCD56B" d="M222.23 75.728h-15.339c-.856 0-1.549-.693-1.549-1.55v-3.201h18.437v3.202c0 .856-.693 1.549-1.549 1.549" mask="url(#f)"/>
            <path fill="#FFECBB" d="M223.78 69.608h-18.44V58.839c0-.856.696-1.549 1.552-1.549h15.338c.856 0 1.55.693 1.55 1.55v10.768z" mask="url(#f)"/>
            <path fill="#E05B5B" d="M205.34 70.977h18.439V68.24H205.34z" mask="url(#f)"/>
            <path fill="#F2D697" d="M216.73 54.656h-4.339c-.598 0-1.084.486-1.084 1.084v1.55h6.507v-1.55c0-.598-.486-1.084-1.084-1.084" mask="url(#f)"/>
            <path fill="#F2D697" d="M213.76 68.239h1.601v-10.95h-1.601z" mask="url(#f)"/>
            <path fill="#FCD56B" d="M170.265 55.106h-15.339c-.856 0-1.549-.693-1.549-1.55v-3.201h18.437v3.201c0 .857-.693 1.55-1.549 1.55" mask="url(#f)"/>
            <path fill="#FFECBB" d="M171.815 48.985h-18.439V38.217c0-.856.695-1.55 1.55-1.55h15.34c.856 0 1.549.694 1.549 1.55v10.768z" mask="url(#f)"/>
            <path fill="#E05B5B" d="M153.375 50.354h18.439v-2.736h-18.439z" mask="url(#f)"/>
            <path fill="#F2D697" d="M164.765 34.034h-4.339c-.598 0-1.084.486-1.084 1.084v1.55h6.507v-1.55c0-.598-.486-1.084-1.084-1.084M161.795 47.618h1.601v-10.95h-1.601z" mask="url(#f)"/>
            <path fill="#FCD56B" d="M119.476 75.728h-15.338c-.856 0-1.55-.693-1.55-1.55v-3.201h18.438v3.202c0 .856-.693 1.549-1.55 1.549" mask="url(#f)"/>
            <path fill="#FFECBB" d="M121.026 69.608h-18.439V58.839c0-.856.695-1.549 1.551-1.549h15.339c.856 0 1.549.693 1.549 1.55v10.768z" mask="url(#f)"/>
            <path fill="#E05B5B" d="M102.588 70.977h18.438V68.24h-18.438z" mask="url(#f)"/>
            <path fill="#F2D697" d="M113.976 54.656h-4.338c-.599 0-1.085.486-1.085 1.084v1.55h6.507v-1.55c0-.598-.486-1.084-1.084-1.084" mask="url(#f)"/>
            <path fill="#F2D697" d="M111.005 68.239h1.602v-10.95h-1.602z" mask="url(#f)"/>
            <path fill="#FCD56B" d="M97.744 126.408H82.405c-.856 0-1.549-.693-1.549-1.55v-3.201h18.437v3.202c0 .856-.693 1.549-1.55 1.549" mask="url(#f)"/>
            <path fill="#FFECBB" d="M99.293 120.288H80.855v-10.769c0-.856.694-1.549 1.55-1.549h15.339c.856 0 1.55.693 1.55 1.55v10.768z" mask="url(#f)"/>
            <path fill="#E05B5B" d="M80.854 121.656h18.439v-2.737H80.854z" mask="url(#f)"/>
            <path fill="#F2D697" d="M92.244 105.336h-4.34c-.597 0-1.083.486-1.083 1.084v1.55h6.507v-1.55c0-.598-.486-1.084-1.084-1.084M89.274 118.92h1.601v-10.95h-1.601z" mask="url(#f)"/>
            <path fill="#FCD56B" d="M119.476 177.578h-15.338c-.856 0-1.55-.693-1.55-1.549v-3.202h18.438v3.202c0 .856-.693 1.55-1.55 1.55" mask="url(#f)"/>
            <path fill="#FFECBB" d="M121.026 171.458h-18.439V160.69c0-.856.695-1.55 1.551-1.55h15.339c.856 0 1.549.694 1.549 1.55v10.768z" mask="url(#f)"/>
            <path fill="#E05B5B" d="M102.588 172.826h18.438v-2.737h-18.438z" mask="url(#f)"/>
            <path fill="#F2D697" d="M113.976 156.506h-4.338c-.599 0-1.085.486-1.085 1.085v1.549h6.507v-1.55c0-.598-.486-1.084-1.084-1.084M111.005 170.09h1.602v-10.95h-1.602zM216.73 156.506h-4.339c-.598 0-1.084.486-1.084 1.085v1.549h6.507v-1.55c0-.598-.486-1.084-1.084-1.084" mask="url(#f)"/>
            <path fill="#FCD56B" d="M222.23 177.578h-15.339c-.856 0-1.549-.693-1.549-1.549v-3.202h18.437v3.202c0 .856-.693 1.55-1.549 1.55" mask="url(#f)"/>
            <path fill="#FFECBB" d="M223.78 171.458h-18.44V160.69c0-.856.696-1.55 1.552-1.55h15.338c.856 0 1.55.694 1.55 1.55v10.768z" mask="url(#f)"/>
            <path fill="#E05B5B" d="M205.34 172.826h18.439v-2.737H205.34z" mask="url(#f)"/>
            <path fill="#F2D697" d="M213.76 170.09h1.601v-10.95h-1.601z" mask="url(#f)"/>
            <path fill="#FCD56B" d="M242.786 127.627h-15.338c-.856 0-1.55-.693-1.55-1.55v-3.2h18.438v3.2c0 .857-.693 1.55-1.55 1.55" mask="url(#f)"/>
            <path fill="#FFECBB" d="M244.336 121.507h-18.439v-10.769c0-.856.695-1.549 1.551-1.549h15.339c.856 0 1.549.693 1.549 1.55v10.768z" mask="url(#f)"/>
            <path fill="#E05B5B" d="M225.896 122.875h18.44v-2.736h-18.44z" mask="url(#f)"/>
            <path fill="#F2D697" d="M237.286 106.555h-4.338c-.599 0-1.085.486-1.085 1.084v1.55h6.507v-1.55c0-.598-.486-1.084-1.084-1.084" mask="url(#f)"/>
            <path fill="#F2D697" d="M234.316 120.139h1.602v-10.95h-1.602z" mask="url(#f)"/>
            <path fill="#FCD56B" d="M170.265 198.65h-15.339c-.856 0-1.549-.693-1.549-1.55v-3.2h18.437v3.2c0 .857-.693 1.55-1.549 1.55" mask="url(#f)"/>
            <path fill="#FFECBB" d="M171.815 192.53h-18.439V181.76c0-.856.695-1.549 1.55-1.549h15.34c.856 0 1.549.693 1.549 1.55v10.768z" mask="url(#f)"/>
            <path fill="#E05B5B" d="M153.375 193.898h18.439v-2.737h-18.439z" mask="url(#f)"/>
            <path fill="#F2D697" d="M164.765 177.578h-4.339c-.598 0-1.084.486-1.084 1.084v1.55h6.507v-1.55c0-.598-.486-1.084-1.084-1.084" mask="url(#f)"/>
            <path fill="#F2D697" d="M161.795 191.161h1.601v-10.949h-1.601z" mask="url(#f)"/>
            <path fill="#AED882" d="M-13.598 239.89s48.29-36.093 141.182-36.093c92.893 0 138.844 32.657 138.844 32.657v28.643H-13.598V239.89z" mask="url(#f)"/>
            <path fill="#E05B5B" d="M52.848 130.203l11.484 4.351-11.484 4.351z" mask="url(#f)"/>
            <path fill="#89B6BA" d="M52.848 149.28a.878.878 0 0 1-.877-.878v-18.198a.878.878 0 0 1 1.754 0v18.198a.878.878 0 0 1-.877.877" mask="url(#f)"/>
            <path fill="#E05B5B" d="M100.914 187.926c-19.769-13.722-33.702-26.931-47.904-43.898l-1.907 2.247c-14.11 16.625-26.409 27.929-46.32 41.651h96.13z" mask="url(#f)"/>
            <path fill="#FFF8F8" d="M53.01 144.029l-32.256 42.349h11.544z" mask="url(#f)"/>
            <path fill="#FFF8F8" d="M52.887 144.029l32.684 42.349H74.027z" mask="url(#f)"/>
            <path fill="#FFF8F8" d="M53.01 144.029l-5.679 42.349h11.543z" mask="url(#f)"/>
            <path fill="#E05B5B" d="M7.963 224.55h89.77v-39.03H7.963z" mask="url(#f)"/>
            <path fill="#FFF8F8" d="M21.039 224.55h11.347v-39.03H21.039zM47.009 224.55h11.544v-39.03H47.009zM73.546 224.55h11.11v-39.03h-11.11z" mask="url(#f)"/>
            <path fill="#FF9393" d="M101.056 187.233H4.64v-1.714l96.416.002z" mask="url(#f)"/>
            <path fill="#F47E7E" d="M4.782 226.261h96.132v-1.712H4.782z" mask="url(#f)"/>
            <path fill="#CE5656" d="M97.733 189.965a.693.693 0 0 0-.693-.693H8.657a.694.694 0 0 0-.695.693v6.505c0 .25.13.495.348.62a6.883 6.883 0 0 0 9.679-3.13.667.667 0 0 1 1.228 0 6.883 6.883 0 0 0 6.268 4.034 6.882 6.882 0 0 0 6.267-4.035.667.667 0 0 1 1.228 0 6.883 6.883 0 0 0 6.268 4.035 6.883 6.883 0 0 0 6.269-4.035.666.666 0 0 1 1.226 0 6.887 6.887 0 0 0 12.537 0 .667.667 0 0 1 1.228 0 6.883 6.883 0 0 0 6.268 4.035 6.882 6.882 0 0 0 6.267-4.035.667.667 0 0 1 1.228 0 6.885 6.885 0 1 0 12.537 0 .666.666 0 0 1 1.226 0 6.885 6.885 0 0 0 9.699 3.118v-7.112z" mask="url(#f)"/>
            <path fill="#F47E7E" d="M87.27 187.208H4.662v2.544c0 1.986 1 3.88 2.693 4.921 5.361 3.295 10.898-.358 11.084-5.379.137 3.688 3.16 6.639 6.882 6.639 3.721 0 6.744-2.951 6.88-6.637.138 3.686 3.162 6.637 6.883 6.637s6.746-2.951 6.883-6.637c.137 3.686 3.16 6.637 6.88 6.637 3.722 0 6.746-2.951 6.883-6.639.137 3.688 3.161 6.639 6.882 6.639a6.88 6.88 0 0 0 6.136-3.763.822.822 0 0 1 1.49 0 6.885 6.885 0 0 0 13.018-2.876c.137 3.688 3.162 6.639 6.883 6.639h1.517a5.378 5.378 0 0 0 5.378-5.377v-3.348H87.27z" mask="url(#f)"/>
            <path fill="#8E5656" d="M63.033 224.549h-20.37v-9.33c0-5.625 4.56-10.184 10.186-10.184 5.624 0 10.184 4.56 10.184 10.184v9.33z" mask="url(#f)"/>
            <path fill="#7C4A4A" d="M52.848 205.034c-5.624 0-10.184 4.56-10.184 10.184v2.613c0-5.625 4.56-10.185 10.184-10.185 5.626 0 10.184 4.56 10.184 10.185v-2.613c0-5.624-4.558-10.184-10.184-10.184" mask="url(#f)"/>
            <path fill="#84BF56" d="M19.833 226.262c.747-1.285 1.207-2.757 1.207-4.35a8.699 8.699 0 0 0-17.396 0c0 1.593.46 3.065 1.207 4.35h14.982zM94.007 213.946c-3.32 0-6.161 1.979-7.454 4.812-.846-.437-1.791-.707-2.809-.707a6.158 6.158 0 0 0-6.158 6.158c0 .724.148 1.407.377 2.052h23.116c.705-1.212 1.139-2.601 1.139-4.105a8.211 8.211 0 0 0-8.21-8.21" mask="url(#f)"/>
            <path fill="#6D9E3E" d="M86.552 218.758c-.845-.436-1.79-.707-2.808-.707a6.158 6.158 0 0 0-6.158 6.158c0 .723.149 1.407.377 2.053h8.972c-.706-1.212-1.139-2.602-1.139-4.105 0-1.216.28-2.36.756-3.399" mask="url(#f)"/>
            <path fill="#84BF56" d="M205.575 214.462c.507-.87.817-1.867.817-2.946a5.893 5.893 0 0 0-11.786 0c0 1.079.313 2.075.818 2.946h10.15z" mask="url(#f)"/>
            <path fill="#FFF" d="M56.131 83.36c-1.677-1.678-4.061-2.178-6.19-1.557 2.55-3.415 2.304-8.258-.8-11.361a8.725 8.725 0 0 0-12.338 0c-1.866 1.867-2.672 4.365-2.494 6.805a8.655 8.655 0 0 0-3.234-.635 8.723 8.723 0 0 0-8.724 8.725 8.725 8.725 0 0 0 8.724 8.726h20.623a6.249 6.249 0 0 0 4.433-1.837 6.268 6.268 0 0 0 0-8.867" mask="url(#f)"/>
        </g>
        <g transform="translate(113.28 191.463)">
            <mask id="h" fill="#fff">
                <use xlink:href="#g"/>
            </mask>
            <path fill="#993F42" d="M156.166 59.558a4.693 4.693 0 0 1 3.828-5.417l-1.588-9.247a4.691 4.691 0 0 1-1.589-9.246l-1.586-9.251a4.687 4.687 0 0 1-5.421-3.825 4.698 4.698 0 0 1 3.832-5.42l-1.588-9.246c-5.109.873-11.639-2.256-12.52-7.365L10.075 22.788c.878 5.11-4.229 10.256-9.341 11.135l1.59 9.246A4.698 4.698 0 0 1 7.742 47a4.69 4.69 0 0 1-3.833 5.415l1.593 9.248a4.693 4.693 0 0 1 1.59 9.247l1.587 9.246a4.695 4.695 0 0 1 5.42 3.83 4.699 4.699 0 0 1-3.832 5.42l1.588 9.246c5.112-.877 11.64 2.253 12.519 7.365l129.461-22.247c-.879-5.11 4.228-10.256 9.34-11.135l-1.589-9.246a4.699 4.699 0 0 1-5.42-3.832" mask="url(#h)"/>
        </g>
        <g transform="translate(113.28 191.463)">
            <mask id="j" fill="#fff">
                <use xlink:href="#i"/>
            </mask>
            <path fill="#BB5052" d="M151.098 67.838a18.728 18.728 0 0 0-5.535 7.833L29.47 95.62a18.733 18.733 0 0 0-7.832-5.535l-8.826-51.363a18.739 18.739 0 0 0 5.535-7.834L134.439 10.94a18.739 18.739 0 0 0 7.833 5.535l8.826 51.364zm5.069-8.28a4.691 4.691 0 0 1 3.828-5.417l-1.59-9.247a4.692 4.692 0 0 1-5.417-3.828 4.693 4.693 0 0 1 3.83-5.418l-1.588-9.25a4.686 4.686 0 0 1-5.42-3.825 4.696 4.696 0 0 1 3.832-5.421l-1.59-9.246c-5.108.874-11.636-2.256-12.518-7.365L10.074 22.788c.877 5.11-4.23 10.257-9.34 11.136l1.587 9.245a4.698 4.698 0 0 1 5.421 3.832 4.686 4.686 0 0 1-3.831 5.414l1.593 9.249A4.693 4.693 0 0 1 7.09 70.91l1.59 9.246a4.693 4.693 0 0 1 1.586 9.25l1.59 9.246c5.11-.877 11.64 2.253 12.519 7.365l129.46-22.247c-.878-5.11 4.23-10.256 9.34-11.135l-1.588-9.246a4.698 4.698 0 0 1-5.421-3.831z" mask="url(#j)"/>
        </g>
        <g transform="translate(113.28 191.463)">
            <mask id="l" fill="#fff">
                <use xlink:href="#k"/>
            </mask>
            <path fill="#874A4F" d="M156.166 59.558a4.693 4.693 0 0 1 3.828-5.417l-1.588-9.247a4.691 4.691 0 0 1-1.589-9.246l-1.586-9.251a4.687 4.687 0 0 1-5.421-3.825 4.698 4.698 0 0 1 3.832-5.42l-1.588-9.246c-5.109.873-11.639-2.256-12.52-7.365L10.075 22.788c.878 5.11-4.229 10.256-9.341 11.135l1.59 9.246A4.698 4.698 0 0 1 7.742 47a4.69 4.69 0 0 1-3.833 5.415l1.593 9.248a4.693 4.693 0 0 1 1.59 9.247l1.587 9.246a4.695 4.695 0 0 1 5.42 3.83 4.699 4.699 0 0 1-3.832 5.42l1.588 9.246c5.112-.877 11.64 2.253 12.519 7.365l129.461-22.247c-.879-5.11 4.228-10.256 9.34-11.135l-1.589-9.246a4.699 4.699 0 0 1-5.42-3.832" mask="url(#l)"/>
        </g>
        <g transform="translate(113.28 191.463)">
            <mask id="n" fill="#fff">
                <use xlink:href="#m"/>
            </mask>
            <path fill="#BB6B6C" d="M151.098 67.838a18.728 18.728 0 0 0-5.535 7.833L29.47 95.62a18.733 18.733 0 0 0-7.832-5.535l-8.826-51.363a18.739 18.739 0 0 0 5.535-7.834L134.439 10.94a18.739 18.739 0 0 0 7.833 5.535l8.826 51.364zm5.069-8.28a4.691 4.691 0 0 1 3.828-5.417l-1.59-9.247a4.692 4.692 0 0 1-5.417-3.828 4.693 4.693 0 0 1 3.83-5.418l-1.588-9.25a4.686 4.686 0 0 1-5.42-3.825 4.696 4.696 0 0 1 3.832-5.421l-1.59-9.246c-5.108.874-11.636-2.256-12.518-7.365L10.074 22.788c.877 5.11-4.23 10.257-9.34 11.136l1.587 9.245a4.698 4.698 0 0 1 5.421 3.832 4.686 4.686 0 0 1-3.831 5.414l1.593 9.249A4.693 4.693 0 0 1 7.09 70.91l1.59 9.246a4.693 4.693 0 0 1 1.586 9.25l1.59 9.246c5.11-.877 11.64 2.253 12.519 7.365l129.46-22.247c-.878-5.11 4.23-10.256 9.34-11.135l-1.588-9.246a4.698 4.698 0 0 1-5.421-3.831z" mask="url(#n)"/>
        </g>
        <path fill="#FCFFFF" d="M151.088 246.377c2.284-.402 3.553-2.217 3.155-4.46l-.006-.036c-.396-2.248-2.214-3.551-4.498-3.15l-2.154.383 1.349 7.646 2.154-.383zm-6.737-9.295l4.944-.87c3.986-.701 7.221 1.551 7.853 5.118l.007.037c.628 3.572-1.637 6.824-5.623 7.53l-4.944.87-2.237-12.685zM167.093 240.677l-2.41-3.812-.96 4.407 3.37-.595zm-4.251-6.943l2.572-.453 7.686 11.812-2.918.51-1.661-2.638-5.36.947-.658 3.048-2.845.502 3.184-13.728zM176.649 239.309l-6.228-6.82 3.263-.577 3.92 4.558 2.183-5.633 3.17-.56-3.528 8.488.892 5.053-2.79.493zM198.058 234.209c1.395-.244 2.067-1.221 1.872-2.31l-.004-.036c-.222-1.249-1.21-1.768-2.608-1.52l-2.155.378.684 3.879 2.21-.391zm-6.126-5.514l5.18-.914c3.025-.534 5.17.942 5.627 3.531l.007.035c.517 2.934-1.497 4.862-4.339 5.364l-2.121.371.67 3.804-2.788.49-2.236-12.681zM212.248 232.716l-2.413-3.812-.96 4.407 3.373-.595zm-4.255-6.944l2.574-.452 7.688 11.81-2.918.512-1.661-2.638-5.362.947-.658 3.048-2.844.501 3.181-13.728zM219.729 234.964l1.303-2.263c1.304.738 2.606 1.126 4.055.872 1.142-.202 1.752-.777 1.62-1.52l-.006-.035c-.123-.707-.623-.994-2.84-1.163-2.669-.205-4.443-.617-4.886-3.137l-.007-.035c-.406-2.301 1.177-4.15 3.766-4.603 1.85-.328 3.525-.026 4.993.777l-1.077 2.36c-1.261-.583-2.45-.858-3.521-.667-1.065.186-1.542.774-1.433 1.391l.005.035c.147.835.738 1.01 3.03 1.186 2.69.218 4.303.884 4.69 3.097l.008.035c.446 2.52-1.226 4.27-3.96 4.749a8.174 8.174 0 0 1-5.74-1.079M232.04 232.792l1.303-2.262c1.303.737 2.609 1.128 4.056.87 1.142-.2 1.751-.773 1.62-1.519l-.008-.035c-.122-.707-.622-.991-2.838-1.163-2.667-.2-4.442-.618-4.886-3.134l-.007-.035c-.404-2.301 1.175-4.149 3.765-4.607 1.849-.324 3.524-.022 4.993.781l-1.077 2.358c-1.262-.579-2.45-.858-3.522-.668-1.064.186-1.54.777-1.431 1.394l.007.035c.146.832.737 1.01 3.03 1.183 2.69.217 4.301.884 4.691 3.096l.007.035c.444 2.52-1.23 4.27-3.963 4.755-1.923.337-3.977.009-5.74-1.084"/>
        <g fill="#FFF">
            <path d="M170.518 259.936l-.877-1.435-.34 1.653 1.217-.218zm-1.909-3.096l1.453-.256 3.277 5.063-1.612.284-.567-.898-2.095.37-.217 1.037-1.584.277 1.345-5.877zM177.302 259.576c.902-.16 1.41-.765 1.258-1.638l-.004-.02c-.152-.864-.838-1.264-1.74-1.105l-.614.107.488 2.763.612-.107zm-2.839-3.728l2.095-.368c1.939-.342 3.261.577 3.539 2.145l.001.014c.276 1.569-.66 2.932-2.615 3.28l-2.062.363-.958-5.434zM181.951 254.53l1.591-.281 1.665 1.875.927-2.331 1.59-.281.957 5.43-1.498.266-.551-3.119-1.014 2.37-.03.007-1.756-1.868.549 3.103-1.472.26zM190.268 253.063l1.512-.266.958 5.43-1.512.264zM195.883 253.432l-1.628.29-.231-1.32 4.763-.84.231 1.32-1.63.283.727 4.114-1.506.267zM209.309 252.521l-.002-.014c-.139-.786-.825-1.368-1.656-1.22-.823.147-1.255.91-1.116 1.692l.002.018c.137.782.826 1.363 1.647 1.22.832-.148 1.265-.91 1.125-1.696m-4.314.76l-.002-.014c-.274-1.558.758-3.044 2.435-3.34 1.677-.295 3.135.733 3.41 2.293l.004.017c.276 1.56-.756 3.048-2.435 3.34-1.675.299-3.137-.736-3.412-2.296M212.7 249.107l1.404-.247 2.742 2.479-.507-2.874 1.492-.261.956 5.43-1.32.233-2.845-2.572.526 2.98-1.49.264zM220.342 247.759l4.37-.769.223 1.28-2.879.506.146.827 2.607-.462.212 1.186-2.609.462.151.861 2.918-.514.226 1.279-4.407.777z"/>
        </g>
        <path fill="#E5BE45" d="M154.268 258.795l1.276 1.738 2.154-.065-1.258 1.75.726 2.03-2.052-.659-1.705 1.32-.01-2.155-1.782-1.214 2.048-.675zM236.16 244.355l1.275 1.738 2.155-.065-1.258 1.75.726 2.03-2.053-.659-1.705 1.32-.01-2.155-1.781-1.214 2.047-.675z"/>
    </g>
</svg>
