
<svg xmlns="http://www.w3.org/2000/svg" xmlns:xlink="http://www.w3.org/1999/xlink" width="210" height="110" viewBox="0 0 210 110">
    <defs>
        <path id="a" d="M0 110h210V.415H0z"/>
    </defs>
    <g fill="none" fill-rule="evenodd">
        <path fill="#E1FCFF" d="M0 110h210V0H0z"/>
        <g>
            <path fill="#C5EDEF" d="M116.866 41.014c1.83 1.069 3.061 3.036 3.061 5.294 0 3.395-2.777 6.148-6.203 6.148a6.208 6.208 0 0 1-3.7-1.221v9.894h-3.328v-8.794a6.83 6.83 0 0 1-3.48.953c-3.77 0-6.826-3.028-6.826-6.763 0-2.54 1.413-4.748 3.5-5.905.512-4.189 4.105-7.437 8.47-7.437 4.501 0 8.18 3.454 8.506 7.83z"/>
            <path fill="#B3E5E5" d="M81.23 36.804c-.402-5.38-4.923-9.625-10.456-9.625-5.365 0-9.782 3.993-10.41 9.142-2.566 1.422-4.303 4.137-4.303 7.257 0 4.591 3.756 8.313 8.389 8.313a8.397 8.397 0 0 0 4.279-1.171v10.81h4.09V49.368a7.634 7.634 0 0 0 4.548 1.5c4.212 0 7.626-3.383 7.626-7.556 0-2.775-1.514-5.194-3.763-6.508M190.538 50.794c-.327-4.377-4.005-7.83-8.506-7.83-4.365 0-7.958 3.248-8.47 7.437-2.087 1.156-3.5 3.365-3.5 5.904 0 3.735 3.056 6.763 6.825 6.763a6.83 6.83 0 0 0 3.481-.953v8.794h3.328v-9.894a6.208 6.208 0 0 0 3.7 1.221c3.426 0 6.203-2.753 6.203-6.148 0-2.258-1.231-4.225-3.061-5.294M44.808 51.825h3.33l-4.994-5.603h3.328L41.48 40.62h3.33l-4.994-5.603-4.993 5.603h3.33l-4.994 5.603h3.33l-4.994 5.603h3.328l-4.993 5.603h8.322V64.9h3.328v-7.47h8.322z"/>
            <path fill="#C5EDEF" d="M17.206 59.661h3.823l-5.736-6.435h3.825l-5.735-6.437h3.823l-5.736-6.436-5.735 6.436H9.56l-5.735 6.437h3.822L1.912 59.66h3.824L0 66.098h9.558v8.58h3.825v-8.58h9.558z"/>
            <path fill="#C5EDEF" d="M31.404 52.358h4.405l-6.607-7.415h4.404L27 37.528h4.405l-6.607-7.414-6.608 7.414h4.405l-6.607 7.415h4.405l-6.607 7.415h4.404l-6.607 7.414h11.012v9.886H27v-9.886h11.012zM154.97 49.22h3.678l-5.516-6.19h3.678l-5.516-6.191h3.677l-5.516-6.19-5.516 6.19h3.677l-5.516 6.19h3.678l-5.517 6.19h3.678l-5.516 6.19h9.193v8.254h3.678v-8.254h9.193z"/>
            <path fill="#84BF56" d="M62.07 55.443l-5.175-5.807h3.45l-5.175-5.807h3.45l-5.175-5.807h3.45l-5.175-5.808-5.174 5.808h3.45l-5.175 5.807h3.45l-5.175 5.807h3.45l-5.175 5.807z"/>
            <path fill="#6D9E3E" d="M46.545 49.636l-.862.968h12.074l-.862-.968zM48.27 43.829l-.862.968h8.624l-.862-.968zM49.995 38.022l-.862.968h5.174l-.862-.968z"/>
            <mask id="b" fill="#fff">
                <use xlink:href="#a"/>
            </mask>
            <path fill="#89714E" d="M49.995 63.186h3.45v-7.743h-3.45z" mask="url(#b)"/>
            <path fill="#685236" d="M49.995 56.411h3.45v-.968h-3.45z" mask="url(#b)"/>
            <path fill="#84BF56" d="M140.23 52.473l-5.176-5.807h3.45l-5.175-5.808h3.45l-5.175-5.807h3.45l-5.175-5.807-5.174 5.807h3.45l-5.175 5.807h3.45l-5.175 5.808h3.45l-5.175 5.807z" mask="url(#b)"/>
            <path fill="#6D9E3E" d="M124.705 46.666l-.862.968h12.074l-.862-.968zM126.43 40.859l-.862.968h8.624l-.862-.968zM128.155 35.051l-.862.969h5.174l-.862-.969z" mask="url(#b)"/>
            <path fill="#89714E" d="M128.155 60.216h3.45v-7.743h-3.45z" mask="url(#b)"/>
            <path fill="#685236" d="M128.155 53.44h3.45v-.968h-3.45z" mask="url(#b)"/>
            <path fill="#84BF56" d="M24.797 62.839l-5.175-5.807h3.45l-5.175-5.807h3.45l-5.175-5.808h3.45l-5.175-5.807-5.174 5.807h3.45l-5.175 5.808h3.45l-5.175 5.807h3.45l-5.175 5.807z" mask="url(#b)"/>
            <path fill="#6D9E3E" d="M9.273 57.032L8.41 58h12.074l-.863-.968zM10.997 51.225l-.862.968h8.624l-.862-.968zM12.722 45.418l-.862.968h5.174l-.862-.968z" mask="url(#b)"/>
            <path fill="#89714E" d="M12.722 70.581h3.45V62.84h-3.45z" mask="url(#b)"/>
            <path fill="#685236" d="M12.722 63.807h3.45v-.968h-3.45z" mask="url(#b)"/>
            <path fill="#84BF56" d="M207.093 64.154l-5.175-5.807h3.45l-5.175-5.808h3.45l-5.175-5.807h3.45l-5.175-5.807-5.174 5.807h3.45l-5.175 5.807h3.45l-5.175 5.808h3.45l-5.175 5.807z" mask="url(#b)"/>
            <path fill="#6D9E3E" d="M191.569 58.347l-.862.968h12.074l-.862-.968zM193.294 52.54l-.862.968h8.624l-.862-.968zM195.019 46.732l-.862.969h5.174l-.862-.969z" mask="url(#b)"/>
            <path fill="#89714E" d="M195.019 71.896h3.45v-7.742h-3.45z" mask="url(#b)"/>
            <path fill="#685236" d="M195.019 65.122h3.45v-.968h-3.45z" mask="url(#b)"/>
            <path fill="#71A840" d="M128.41 46.89c0 3.242-2.653 5.87-5.924 5.87-3.272 0-5.924-2.628-5.924-5.87 0-3.241 2.652-5.87 5.924-5.87 3.271 0 5.923 2.629 5.923 5.87" mask="url(#b)"/>
            <path fill="#71A840" d="M118.969 47.097c0 3.567-2.918 6.458-6.517 6.458-3.6 0-6.516-2.891-6.516-6.458 0-3.566 2.917-6.458 6.516-6.458s6.517 2.892 6.517 6.458" mask="url(#b)"/>
            <path fill="#89714E" d="M115.776 61.042h3.178V49.935h-3.178z" mask="url(#b)"/>
            <path fill="#000" d="M115.776 51.251h3.178v-1.317h-3.178z" mask="url(#b)"/>
            <path fill="#84BF56" d="M125.517 42.438c0 4.462-3.65 8.08-8.152 8.08-4.503 0-8.153-3.618-8.153-8.08s3.65-8.079 8.153-8.079c4.502 0 8.152 3.617 8.152 8.079" mask="url(#b)"/>
            <path fill="#D8F4BE" d="M210 110H0V75.22s28.121-16.584 103.813-16.584C179.505 58.636 210 75.22 210 75.22V110z" mask="url(#b)"/>
            <path fill="#71A840" d="M149.514 64.946c0 2.556-2.09 4.627-4.669 4.627-2.579 0-4.669-2.07-4.669-4.627 0-2.555 2.09-4.626 4.67-4.626 2.578 0 4.668 2.07 4.668 4.626" mask="url(#b)"/>
            <path fill="#71A840" d="M142.073 65.11c0 2.81-2.3 5.09-5.137 5.09-2.837 0-5.137-2.28-5.137-5.09 0-2.812 2.3-5.091 5.137-5.091 2.837 0 5.137 2.28 5.137 5.09" mask="url(#b)"/>
            <path fill="#89714E" d="M139.556 76.101h2.505v-8.755h-2.505z" mask="url(#b)"/>
            <path fill="#000" d="M139.556 68.384h2.505v-1.037h-2.505z" mask="url(#b)"/>
            <path fill="#84BF56" d="M147.235 61.436c0 3.518-2.877 6.369-6.426 6.369-3.55 0-6.426-2.851-6.426-6.369 0-3.517 2.877-6.368 6.426-6.368 3.549 0 6.426 2.851 6.426 6.368M180.66 61.41l-7.54-8.46h5.028l-7.54-8.462h5.026l-7.54-8.462h5.027l-7.54-8.46-7.54 8.46h5.027l-7.54 8.462h5.027l-7.54 8.462h5.026l-7.54 8.46z" mask="url(#b)"/>
            <path fill="#6D9E3E" d="M158.041 52.95l-1.257 1.41h17.593l-1.256-1.41zM160.554 44.488l-1.257 1.41h12.567l-1.257-1.41zM163.068 36.027l-1.257 1.41h7.54l-1.256-1.41z" mask="url(#b)"/>
            <path fill="#89714E" d="M163.067 72.692h5.027V61.411h-5.027z" mask="url(#b)"/>
            <path fill="#685236" d="M163.067 62.82h5.027v-1.41h-5.027z" mask="url(#b)"/>
            <path fill="#BFDD97" d="M34.18 94.966c0 .342-.551.62-1.231.62-.681 0-1.233-.278-1.233-.62 0-.342.551-.619 1.233-.619.68 0 1.232.277 1.232.62" mask="url(#b)"/>
            <path fill="#77AF46" d="M32.948 95.237a.272.272 0 0 1-.273-.27V81a.272.272 0 1 1 .546 0v13.966c0 .149-.122.27-.273.27" mask="url(#b)"/>
            <path fill="#84BF56" d="M32.948 90.52v.023h-.007c-2.194 0-3.974-1.763-3.974-3.938v-.024h.007c2.195 0 3.974 1.763 3.974 3.938M32.948 89.004v.024h.007c2.194 0 3.973-1.763 3.973-3.938v-.024h-.006c-2.195 0-3.974 1.763-3.974 3.938" mask="url(#b)"/>
            <path fill="#FDB758" d="M34.111 78.388c0 2.478-.52 4.487-1.163 4.487-.642 0-1.163-2.009-1.163-4.487 0-2.479.521-4.488 1.163-4.488s1.163 2.01 1.163 4.488" mask="url(#b)"/>
            <path fill="#E85638" d="M34.917 78.388c0 2.478-.881 4.487-1.968 4.487s-1.97-2.009-1.97-4.487c0-2.479.883-4.488 1.97-4.488s1.968 2.01 1.968 4.488" mask="url(#b)"/>
            <path fill="#E85638" d="M32.948 80.347c-2.49 0-4.508-.877-4.508-1.96 0-1.082 2.018-1.959 4.508-1.959s4.508.877 4.508 1.96c0 1.082-2.018 1.959-4.508 1.959" mask="url(#b)"/>
            <path fill="#F37139" d="M34.34 79.773c-1.76 1.752-3.81 2.553-4.58 1.788-.768-.765.036-2.806 1.796-4.559 1.761-1.752 3.811-2.553 4.58-1.788.77.765-.035 2.807-1.796 4.559" mask="url(#b)"/>
            <path fill="#F37139" d="M31.556 79.773c-1.76-1.752-2.565-3.794-1.796-4.559.77-.765 2.82.036 4.58 1.788 1.76 1.753 2.564 3.794 1.796 4.559-.769.765-2.819-.036-4.58-1.788" mask="url(#b)"/>
            <path fill="#FCC300" d="M34.917 78.388c0 1.082-.881 1.959-1.968 1.959a1.964 1.964 0 0 1-1.97-1.96c0-1.082.883-1.959 1.97-1.959s1.968.877 1.968 1.96" mask="url(#b)"/>
            <path fill="#BFDD97" d="M44.46 95.615c0 .341-.553.619-1.233.619s-1.233-.278-1.233-.62c0-.341.552-.619 1.233-.619.68 0 1.232.278 1.232.62" mask="url(#b)"/>
            <path fill="#77AF46" d="M43.227 95.741a.272.272 0 0 1-.273-.27V84.996a.272.272 0 1 1 .546 0V95.47c0 .148-.122.27-.273.27" mask="url(#b)"/>
            <path fill="#84BF56" d="M43.227 92.135v.017h-.005c-1.646 0-2.98-1.322-2.98-2.953v-.018h.005c1.646 0 2.98 1.322 2.98 2.954M43.227 90.998v.018h.005c1.646 0 2.98-1.322 2.98-2.953v-.018h-.005c-1.646 0-2.98 1.322-2.98 2.953" mask="url(#b)"/>
            <path fill="#FEC678" d="M44.1 83.036c0 1.86-.392 3.365-.873 3.365s-.872-1.506-.872-3.365c0-1.86.39-3.365.873-3.365.48 0 .871 1.506.871 3.365" mask="url(#b)"/>
            <path fill="#F37139" d="M44.703 83.036c0 1.86-.66 3.365-1.476 3.365s-1.477-1.506-1.477-3.365c0-1.86.661-3.365 1.477-3.365.815 0 1.476 1.506 1.476 3.365" mask="url(#b)"/>
            <path fill="#F37139" d="M43.227 84.505c-1.867 0-3.38-.658-3.38-1.47 0-.811 1.513-1.468 3.38-1.468s3.381.657 3.381 1.469c0 .811-1.514 1.47-3.38 1.47" mask="url(#b)"/>
            <path fill="#E85638" d="M44.271 84.075c-1.32 1.314-2.858 1.915-3.435 1.34-.576-.573.027-2.104 1.347-3.418 1.321-1.314 2.859-1.915 3.435-1.34.577.573-.027 2.104-1.347 3.418" mask="url(#b)"/>
            <path fill="#E85638" d="M42.183 84.075c-1.32-1.314-1.924-2.845-1.347-3.419.576-.574 2.114.027 3.435 1.34 1.32 1.315 1.923 2.846 1.347 3.42-.577.574-2.115-.027-3.435-1.341" mask="url(#b)"/>
            <path fill="#FCC300" d="M44.703 83.036c0 .812-.66 1.47-1.476 1.47a1.473 1.473 0 0 1-1.477-1.47c0-.812.661-1.47 1.477-1.47.815 0 1.476.658 1.476 1.47" mask="url(#b)"/>
            <path fill="#BFDD97" d="M23.302 95.14c0 .342-.552.62-1.232.62-.68 0-1.233-.278-1.233-.62 0-.342.552-.62 1.233-.62.68 0 1.232.278 1.232.62" mask="url(#b)"/>
            <path fill="#77AF46" d="M22.07 95.267a.272.272 0 0 1-.273-.27V84.52c0-.15.122-.271.273-.271.151 0 .273.122.273.271v10.475c0 .149-.122.27-.273.27" mask="url(#b)"/>
            <path fill="#84BF56" d="M22.07 91.66v.018h-.005c-1.646 0-2.98-1.322-2.98-2.953v-.018h.005c1.646 0 2.98 1.322 2.98 2.953M22.07 90.524v.018h.005c1.646 0 2.98-1.322 2.98-2.953v-.018h-.005c-1.646 0-2.98 1.322-2.98 2.953" mask="url(#b)"/>
            <path fill="#FEC678" d="M22.942 82.562c0 1.859-.39 3.365-.872 3.365s-.872-1.506-.872-3.365c0-1.86.39-3.366.872-3.366s.872 1.506.872 3.366" mask="url(#b)"/>
            <path fill="#F37139" d="M23.546 82.562c0 1.859-.66 3.365-1.476 3.365s-1.477-1.506-1.477-3.365c0-1.86.661-3.366 1.477-3.366.815 0 1.476 1.506 1.476 3.366" mask="url(#b)"/>
            <path fill="#F37139" d="M22.07 84.03c-1.867 0-3.38-.657-3.38-1.469 0-.811 1.513-1.469 3.38-1.469s3.381.658 3.381 1.47c0 .81-1.514 1.469-3.38 1.469" mask="url(#b)"/>
            <path fill="#E85638" d="M23.114 83.6c-1.32 1.315-2.858 1.915-3.435 1.341-.576-.573.027-2.105 1.347-3.419 1.321-1.314 2.859-1.914 3.435-1.34.577.573-.027 2.104-1.347 3.418" mask="url(#b)"/>
            <path fill="#E85638" d="M21.026 83.6c-1.32-1.314-1.924-2.845-1.347-3.418.576-.574 2.114.026 3.435 1.34 1.32 1.314 1.923 2.846 1.347 3.42-.577.573-2.115-.027-3.435-1.342" mask="url(#b)"/>
            <path fill="#FCC300" d="M23.546 82.562c0 .811-.66 1.47-1.476 1.47a1.473 1.473 0 0 1-1.477-1.47c0-.812.661-1.47 1.477-1.47.815 0 1.476.658 1.476 1.47" mask="url(#b)"/>
            <path fill="#BFDD97" d="M82.363 104.475c0 .342-.552.62-1.232.62-.68 0-1.233-.278-1.233-.62 0-.342.552-.62 1.233-.62.68 0 1.232.278 1.232.62" mask="url(#b)"/>
            <path fill="#77AF46" d="M81.131 104.746a.272.272 0 0 1-.273-.27V90.508c0-.15.122-.271.273-.271.151 0 .273.122.273.271v13.966c0 .149-.122.27-.273.27" mask="url(#b)"/>
            <path fill="#84BF56" d="M81.131 100.027v.024h-.007c-2.194 0-3.974-1.763-3.974-3.938v-.024h.007c2.195 0 3.974 1.763 3.974 3.938M81.131 98.512v.024h.007c2.194 0 3.974-1.763 3.974-3.938v-.024h-.007c-2.195 0-3.974 1.763-3.974 3.938" mask="url(#b)"/>
            <path fill="#FDB758" d="M82.294 87.896c0 2.478-.52 4.487-1.163 4.487-.642 0-1.163-2.009-1.163-4.487 0-2.479.521-4.487 1.163-4.487s1.163 2.008 1.163 4.487" mask="url(#b)"/>
            <path fill="#E85638" d="M83.1 87.896c0 2.478-.882 4.487-1.969 4.487-1.087 0-1.969-2.009-1.969-4.487 0-2.479.882-4.487 1.97-4.487 1.086 0 1.967 2.008 1.967 4.487" mask="url(#b)"/>
            <path fill="#E85638" d="M81.131 89.855c-2.49 0-4.508-.877-4.508-1.96 0-1.081 2.018-1.958 4.508-1.958s4.508.877 4.508 1.959-2.018 1.959-4.508 1.959" mask="url(#b)"/>
            <path fill="#F37139" d="M82.523 89.281c-1.761 1.752-3.811 2.553-4.58 1.788-.768-.765.036-2.805 1.796-4.559 1.76-1.752 3.81-2.552 4.58-1.787.769.765-.035 2.806-1.796 4.558" mask="url(#b)"/>
            <path fill="#F37139" d="M79.74 89.281c-1.762-1.752-2.566-3.793-1.797-4.558.77-.765 2.82.035 4.58 1.787 1.76 1.754 2.564 3.794 1.796 4.559-.769.765-2.819-.036-4.58-1.788" mask="url(#b)"/>
            <path fill="#FCC300" d="M83.1 87.896c0 1.082-.882 1.96-1.969 1.96a1.964 1.964 0 0 1-1.969-1.96c0-1.082.882-1.96 1.97-1.96 1.086 0 1.967.878 1.967 1.96" mask="url(#b)"/>
            <path fill="#BFDD97" d="M92.642 105.123c0 .342-.552.62-1.232.62-.68 0-1.233-.278-1.233-.62 0-.342.552-.62 1.233-.62.68 0 1.232.278 1.232.62" mask="url(#b)"/>
            <path fill="#77AF46" d="M91.41 105.25a.272.272 0 0 1-.273-.271V94.504c0-.15.122-.271.273-.271.151 0 .273.122.273.271v10.475c0 .149-.122.27-.273.27" mask="url(#b)"/>
            <path fill="#84BF56" d="M91.41 101.643v.018h-.005c-1.646 0-2.98-1.322-2.98-2.953v-.018h.005c1.646 0 2.98 1.322 2.98 2.953M91.41 100.507v.018h.005c1.646 0 2.98-1.322 2.98-2.954v-.017h-.005c-1.646 0-2.98 1.322-2.98 2.953" mask="url(#b)"/>
            <path fill="#FEC678" d="M92.282 92.544c0 1.86-.39 3.366-.872 3.366s-.873-1.507-.873-3.366c0-1.859.391-3.365.873-3.365.481 0 .872 1.506.872 3.365" mask="url(#b)"/>
            <path fill="#F37139" d="M92.886 92.544c0 1.86-.66 3.366-1.476 3.366s-1.477-1.507-1.477-3.366c0-1.859.661-3.365 1.477-3.365.815 0 1.476 1.506 1.476 3.365" mask="url(#b)"/>
            <path fill="#F37139" d="M91.41 94.014c-1.867 0-3.381-.658-3.381-1.47 0-.812 1.514-1.469 3.38-1.469 1.868 0 3.382.657 3.382 1.469s-1.514 1.47-3.381 1.47" mask="url(#b)"/>
            <path fill="#E85638" d="M92.454 93.583c-1.32 1.314-2.858 1.915-3.435 1.341-.576-.574.027-2.105 1.347-3.419s2.859-1.914 3.435-1.34c.577.573-.027 2.104-1.347 3.418" mask="url(#b)"/>
            <path fill="#E85638" d="M90.366 93.583c-1.32-1.314-1.924-2.845-1.347-3.419.576-.573 2.114.027 3.435 1.341 1.32 1.314 1.923 2.845 1.347 3.42-.577.573-2.115-.028-3.435-1.342" mask="url(#b)"/>
            <path fill="#FCC300" d="M92.886 92.544c0 .812-.66 1.47-1.476 1.47a1.473 1.473 0 0 1-1.477-1.47c0-.811.661-1.47 1.477-1.47.815 0 1.476.659 1.476 1.47" mask="url(#b)"/>
            <path fill="#BFDD97" d="M71.485 104.649c0 .341-.552.619-1.232.619-.68 0-1.233-.278-1.233-.62 0-.341.552-.619 1.233-.619.68 0 1.232.278 1.232.62" mask="url(#b)"/>
            <path fill="#77AF46" d="M70.253 104.775a.272.272 0 0 1-.273-.27V94.03a.272.272 0 1 1 .546 0v10.474c0 .15-.122.271-.273.271" mask="url(#b)"/>
            <path fill="#84BF56" d="M70.253 101.168v.018h-.005c-1.646 0-2.98-1.322-2.98-2.953v-.018h.005c1.646 0 2.98 1.322 2.98 2.953M70.253 100.032v.018h.005c1.646 0 2.98-1.322 2.98-2.953v-.018h-.005c-1.646 0-2.98 1.322-2.98 2.953" mask="url(#b)"/>
            <path fill="#FEC678" d="M71.125 92.07c0 1.859-.39 3.365-.872 3.365s-.873-1.506-.873-3.365c0-1.86.391-3.366.873-3.366.481 0 .872 1.507.872 3.366" mask="url(#b)"/>
            <path fill="#F37139" d="M71.73 92.07c0 1.859-.662 3.365-1.477 3.365-.816 0-1.477-1.506-1.477-3.365 0-1.86.661-3.366 1.477-3.366.815 0 1.476 1.507 1.476 3.366" mask="url(#b)"/>
            <path fill="#F37139" d="M70.253 93.54c-1.867 0-3.381-.659-3.381-1.47 0-.812 1.514-1.469 3.381-1.469 1.867 0 3.381.657 3.381 1.469 0 .811-1.514 1.47-3.381 1.47" mask="url(#b)"/>
            <path fill="#E85638" d="M71.297 93.109c-1.32 1.314-2.858 1.914-3.435 1.34-.576-.573.027-2.104 1.347-3.418s2.859-1.915 3.435-1.341c.577.574-.027 2.105-1.347 3.419" mask="url(#b)"/>
            <path fill="#E85638" d="M69.21 93.109c-1.32-1.314-1.925-2.845-1.348-3.42.576-.573 2.114.028 3.435 1.342 1.32 1.314 1.923 2.845 1.347 3.419-.577.573-2.115-.027-3.435-1.341" mask="url(#b)"/>
            <path fill="#FCC300" d="M71.73 92.07c0 .812-.662 1.47-1.477 1.47a1.473 1.473 0 0 1-1.477-1.47c0-.812.661-1.47 1.477-1.47.815 0 1.476.658 1.476 1.47" mask="url(#b)"/>
            <path fill="#BFDD97" d="M137.38 101.349c0 .342-.551.619-1.231.619-.681 0-1.233-.277-1.233-.62 0-.341.552-.619 1.233-.619.68 0 1.232.278 1.232.62" mask="url(#b)"/>
            <path fill="#77AF46" d="M136.149 101.62a.272.272 0 0 1-.274-.27V87.382c0-.15.123-.271.274-.271.15 0 .273.121.273.271v13.966c0 .149-.123.27-.273.27" mask="url(#b)"/>
            <path fill="#84BF56" d="M136.149 96.901v.024h-.007c-2.195 0-3.975-1.763-3.975-3.938v-.024h.007c2.195 0 3.975 1.763 3.975 3.938M136.149 95.386v.024h.006c2.195 0 3.975-1.763 3.975-3.938v-.024h-.007c-2.195 0-3.974 1.763-3.974 3.938" mask="url(#b)"/>
            <path fill="#FDB758" d="M137.312 84.77c0 2.478-.521 4.487-1.163 4.487s-1.163-2.009-1.163-4.487c0-2.479.52-4.487 1.163-4.487.642 0 1.163 2.008 1.163 4.487" mask="url(#b)"/>
            <path fill="#E85638" d="M138.117 84.77c0 2.478-.881 4.487-1.968 4.487s-1.97-2.009-1.97-4.487c0-2.479.883-4.487 1.97-4.487s1.968 2.008 1.968 4.487" mask="url(#b)"/>
            <path fill="#E85638" d="M136.149 86.73c-2.49 0-4.508-.878-4.508-1.96 0-1.082 2.018-1.96 4.508-1.96s4.507.878 4.507 1.96c0 1.082-2.018 1.96-4.507 1.96" mask="url(#b)"/>
            <path fill="#F37139" d="M137.54 86.155c-1.76 1.752-3.81 2.553-4.58 1.788-.768-.765.036-2.806 1.796-4.559 1.761-1.752 3.811-2.552 4.58-1.787.77.765-.035 2.806-1.796 4.558" mask="url(#b)"/>
            <path fill="#F37139" d="M134.757 86.155c-1.761-1.752-2.565-3.793-1.796-4.558.769-.765 2.819.035 4.58 1.787 1.76 1.753 2.564 3.794 1.796 4.559-.77.765-2.82-.036-4.58-1.788" mask="url(#b)"/>
            <path fill="#FCC300" d="M138.117 84.77c0 1.082-.881 1.96-1.968 1.96a1.964 1.964 0 0 1-1.97-1.96c0-1.082.883-1.96 1.97-1.96s1.968.878 1.968 1.96" mask="url(#b)"/>
            <path fill="#BFDD97" d="M147.66 101.997c0 .342-.552.62-1.232.62-.681 0-1.233-.278-1.233-.62 0-.342.552-.62 1.233-.62.68 0 1.232.278 1.232.62" mask="url(#b)"/>
            <path fill="#77AF46" d="M146.427 102.123a.272.272 0 0 1-.273-.27V91.378c0-.15.122-.271.273-.271.151 0 .273.121.273.271v10.475c0 .149-.122.27-.273.27" mask="url(#b)"/>
            <path fill="#84BF56" d="M146.427 98.517v.018h-.005c-1.646 0-2.98-1.322-2.98-2.953v-.018h.005c1.646 0 2.98 1.322 2.98 2.953M146.427 97.38v.018h.005c1.646 0 2.98-1.322 2.98-2.953v-.018h-.005c-1.646 0-2.98 1.322-2.98 2.954" mask="url(#b)"/>
            <path fill="#FEC678" d="M147.3 89.418c0 1.86-.391 3.366-.872 3.366-.482 0-.873-1.507-.873-3.366 0-1.859.39-3.365.873-3.365.48 0 .872 1.506.872 3.365" mask="url(#b)"/>
            <path fill="#F37139" d="M147.904 89.418c0 1.86-.661 3.366-1.476 3.366-.816 0-1.477-1.507-1.477-3.366 0-1.859.66-3.365 1.477-3.365.815 0 1.476 1.506 1.476 3.365" mask="url(#b)"/>
            <path fill="#F37139" d="M146.427 90.888c-1.867 0-3.38-.658-3.38-1.47 0-.812 1.513-1.469 3.38-1.469s3.381.657 3.381 1.469-1.514 1.47-3.38 1.47" mask="url(#b)"/>
            <path fill="#E85638" d="M147.471 90.457c-1.32 1.314-2.858 1.915-3.435 1.341-.576-.574.027-2.105 1.347-3.419 1.321-1.314 2.86-1.914 3.435-1.34.577.573-.027 2.104-1.347 3.418" mask="url(#b)"/>
            <path fill="#E85638" d="M145.383 90.457c-1.32-1.314-1.924-2.845-1.347-3.419.577-.573 2.114.027 3.435 1.341 1.32 1.314 1.923 2.845 1.347 3.42-.577.573-2.115-.028-3.435-1.342" mask="url(#b)"/>
            <path fill="#FCC300" d="M147.904 89.418c0 .812-.661 1.47-1.476 1.47a1.473 1.473 0 0 1-1.477-1.47c0-.811.66-1.47 1.477-1.47.815 0 1.476.659 1.476 1.47" mask="url(#b)"/>
            <path fill="#BFDD97" d="M126.503 101.522c0 .342-.552.62-1.232.62-.681 0-1.233-.278-1.233-.62 0-.341.552-.619 1.233-.619.68 0 1.232.278 1.232.62" mask="url(#b)"/>
            <path fill="#77AF46" d="M125.27 101.649a.272.272 0 0 1-.273-.27V90.903a.272.272 0 1 1 .546 0v10.474c0 .149-.122.27-.273.27" mask="url(#b)"/>
            <path fill="#84BF56" d="M125.27 98.043v.017h-.005c-1.646 0-2.98-1.322-2.98-2.953v-.018h.005c1.646 0 2.98 1.322 2.98 2.954M125.27 96.906v.018h.005c1.646 0 2.98-1.322 2.98-2.953v-.018h-.005c-1.646 0-2.98 1.322-2.98 2.953" mask="url(#b)"/>
            <path fill="#FEC678" d="M126.143 88.944c0 1.859-.391 3.365-.872 3.365-.482 0-.873-1.506-.873-3.365 0-1.86.39-3.366.873-3.366.48 0 .872 1.507.872 3.366" mask="url(#b)"/>
            <path fill="#F37139" d="M126.747 88.944c0 1.859-.661 3.365-1.476 3.365-.816 0-1.477-1.506-1.477-3.365 0-1.86.66-3.366 1.477-3.366.815 0 1.476 1.507 1.476 3.366" mask="url(#b)"/>
            <path fill="#F37139" d="M125.27 90.413c-1.867 0-3.38-.658-3.38-1.47 0-.811 1.513-1.468 3.38-1.468s3.381.657 3.381 1.469c0 .811-1.514 1.47-3.38 1.47" mask="url(#b)"/>
            <path fill="#E85638" d="M126.314 89.983c-1.32 1.314-2.858 1.914-3.435 1.34-.576-.573.027-2.104 1.347-3.418 1.321-1.314 2.86-1.915 3.435-1.341.577.574-.027 2.105-1.347 3.419" mask="url(#b)"/>
            <path fill="#E85638" d="M124.227 89.983c-1.32-1.314-1.925-2.845-1.348-3.42.576-.573 2.114.028 3.435 1.342 1.32 1.314 1.924 2.845 1.348 3.419-.578.573-2.116-.027-3.436-1.341" mask="url(#b)"/>
            <path fill="#FCC300" d="M126.747 88.944c0 .811-.661 1.47-1.476 1.47a1.473 1.473 0 0 1-1.477-1.47c0-.812.66-1.47 1.477-1.47.815 0 1.476.658 1.476 1.47" mask="url(#b)"/>
            <path fill="#BFDD97" d="M181.073 100.07c0 .341-.552.618-1.232.618-.681 0-1.233-.277-1.233-.619 0-.342.552-.62 1.233-.62.68 0 1.232.278 1.232.62" mask="url(#b)"/>
            <path fill="#77AF46" d="M179.84 100.34a.272.272 0 0 1-.273-.27V86.104a.272.272 0 1 1 .546 0v13.966c0 .148-.122.27-.273.27" mask="url(#b)"/>
            <path fill="#84BF56" d="M179.84 95.622v.024h-.007c-2.194 0-3.974-1.763-3.974-3.939v-.023h.007c2.195 0 3.974 1.763 3.974 3.938M179.84 94.107v.024h.007c2.194 0 3.974-1.763 3.974-3.939v-.023h-.007c-2.195 0-3.974 1.763-3.974 3.938" mask="url(#b)"/>
            <path fill="#FDB758" d="M181.003 83.49c0 2.479-.52 4.488-1.163 4.488-.642 0-1.163-2.01-1.163-4.488 0-2.478.521-4.487 1.163-4.487s1.163 2.009 1.163 4.487" mask="url(#b)"/>
            <path fill="#E85638" d="M181.809 83.49c0 2.479-.881 4.488-1.968 4.488s-1.97-2.01-1.97-4.488c0-2.478.883-4.487 1.97-4.487s1.968 2.009 1.968 4.487" mask="url(#b)"/>
            <path fill="#E85638" d="M179.84 85.45c-2.49 0-4.508-.878-4.508-1.96 0-1.082 2.018-1.959 4.508-1.959s4.508.877 4.508 1.96c0 1.081-2.018 1.958-4.508 1.958" mask="url(#b)"/>
            <path fill="#F37139" d="M181.232 84.876c-1.76 1.752-3.81 2.552-4.58 1.787-.768-.765.036-2.805 1.796-4.558 1.761-1.752 3.811-2.553 4.58-1.788.77.765-.035 2.807-1.796 4.559" mask="url(#b)"/>
            <path fill="#F37139" d="M178.448 84.876c-1.76-1.752-2.565-3.794-1.796-4.559.77-.765 2.82.036 4.58 1.788 1.76 1.753 2.565 3.793 1.797 4.558-.77.765-2.82-.035-4.58-1.787" mask="url(#b)"/>
            <path fill="#FCC300" d="M181.809 83.49c0 1.083-.881 1.96-1.968 1.96a1.964 1.964 0 0 1-1.97-1.96c0-1.082.883-1.959 1.97-1.959s1.968.877 1.968 1.96" mask="url(#b)"/>
            <path fill="#BFDD97" d="M191.351 100.717c0 .342-.552.62-1.232.62-.68 0-1.233-.278-1.233-.62 0-.342.552-.619 1.233-.619.68 0 1.232.277 1.232.62" mask="url(#b)"/>
            <path fill="#77AF46" d="M190.12 100.844a.272.272 0 0 1-.274-.27V90.098a.272.272 0 1 1 .546 0v10.474c0 .149-.122.27-.273.27" mask="url(#b)"/>
            <path fill="#84BF56" d="M190.12 97.237v.018h-.006c-1.646 0-2.98-1.322-2.98-2.953v-.018h.005c1.646 0 2.98 1.322 2.98 2.953M190.12 96.101v.018h.004c1.646 0 2.98-1.322 2.98-2.953v-.018h-.005c-1.646 0-2.98 1.322-2.98 2.953" mask="url(#b)"/>
            <path fill="#FEC678" d="M190.992 88.139c0 1.859-.391 3.365-.873 3.365s-.873-1.506-.873-3.365c0-1.86.391-3.366.873-3.366s.873 1.507.873 3.366" mask="url(#b)"/>
            <path fill="#F37139" d="M191.595 88.139c0 1.859-.66 3.365-1.476 3.365s-1.477-1.506-1.477-3.365c0-1.86.661-3.366 1.477-3.366.815 0 1.476 1.507 1.476 3.366" mask="url(#b)"/>
            <path fill="#F37139" d="M190.12 89.608c-1.868 0-3.382-.658-3.382-1.47 0-.811 1.514-1.468 3.381-1.468 1.867 0 3.381.657 3.381 1.468 0 .812-1.514 1.47-3.38 1.47" mask="url(#b)"/>
            <path fill="#E85638" d="M191.163 89.178c-1.32 1.314-2.858 1.914-3.435 1.34-.576-.573.027-2.104 1.347-3.418 1.321-1.314 2.86-1.915 3.435-1.341.577.574-.027 2.105-1.347 3.419" mask="url(#b)"/>
            <path fill="#E85638" d="M189.075 89.178c-1.32-1.314-1.924-2.845-1.347-3.42.576-.573 2.114.028 3.435 1.342 1.32 1.314 1.923 2.845 1.347 3.419-.577.573-2.115-.027-3.435-1.341" mask="url(#b)"/>
            <path fill="#FCC300" d="M191.595 88.139c0 .811-.66 1.47-1.476 1.47a1.473 1.473 0 0 1-1.477-1.47c0-.812.661-1.47 1.477-1.47.815 0 1.476.658 1.476 1.47" mask="url(#b)"/>
            <path fill="#BFDD97" d="M170.195 100.243c0 .342-.552.62-1.232.62-.681 0-1.233-.278-1.233-.62 0-.342.552-.62 1.233-.62.68 0 1.232.278 1.232.62" mask="url(#b)"/>
            <path fill="#77AF46" d="M168.962 100.37a.272.272 0 0 1-.273-.271V89.624c0-.15.122-.271.273-.271.151 0 .273.121.273.271v10.475c0 .148-.122.27-.273.27" mask="url(#b)"/>
            <path fill="#84BF56" d="M168.962 96.763v.018h-.005c-1.646 0-2.98-1.322-2.98-2.953v-.018h.005c1.646 0 2.98 1.322 2.98 2.953M168.962 95.627v.017h.005c1.646 0 2.98-1.322 2.98-2.953v-.018h-.005c-1.646 0-2.98 1.322-2.98 2.954" mask="url(#b)"/>
            <path fill="#FEC678" d="M169.834 87.664c0 1.86-.39 3.366-.871 3.366-.482 0-.874-1.507-.874-3.366 0-1.859.392-3.365.874-3.365.48 0 .871 1.506.871 3.365" mask="url(#b)"/>
            <path fill="#F37139" d="M170.439 87.664c0 1.86-.661 3.366-1.476 3.366-.816 0-1.477-1.507-1.477-3.366 0-1.859.66-3.365 1.477-3.365.815 0 1.476 1.506 1.476 3.365" mask="url(#b)"/>
            <path fill="#F37139" d="M168.962 89.134c-1.867 0-3.38-.658-3.38-1.47 0-.812 1.513-1.469 3.38-1.469s3.381.657 3.381 1.469-1.514 1.47-3.38 1.47" mask="url(#b)"/>
            <path fill="#E85638" d="M170.006 88.703c-1.32 1.314-2.858 1.915-3.435 1.341-.576-.574.027-2.105 1.347-3.419 1.321-1.314 2.86-1.914 3.435-1.34.577.573-.027 2.104-1.347 3.418" mask="url(#b)"/>
            <path fill="#E85638" d="M167.918 88.703c-1.32-1.314-1.924-2.845-1.347-3.419.576-.573 2.114.027 3.435 1.341 1.32 1.314 1.923 2.845 1.347 3.419-.577.574-2.115-.027-3.435-1.34" mask="url(#b)"/>
            <path fill="#FCC300" d="M170.439 87.664c0 .812-.661 1.47-1.476 1.47a1.473 1.473 0 0 1-1.477-1.47c0-.811.66-1.47 1.477-1.47.815 0 1.476.659 1.476 1.47" mask="url(#b)"/>
            <path fill="#71A840" d="M43.315 52.151c0 3.923-3.21 7.103-7.167 7.103-3.958 0-7.167-3.18-7.167-7.103 0-3.922 3.209-7.102 7.167-7.102 3.958 0 7.167 3.18 7.167 7.102" mask="url(#b)"/>
            <path fill="#71A840" d="M31.892 52.402c0 4.315-3.53 7.813-7.885 7.813s-7.885-3.498-7.885-7.813c0-4.316 3.53-7.814 7.885-7.814s7.885 3.498 7.885 7.814" mask="url(#b)"/>
            <path fill="#89714E" d="M28.028 69.274h3.846v-13.44h-3.846z" mask="url(#b)"/>
            <path fill="#000" d="M28.028 57.428h3.846v-1.594h-3.846z" mask="url(#b)"/>
            <path fill="#84BF56" d="M39.815 46.764c0 5.398-4.416 9.775-9.864 9.775s-9.865-4.377-9.865-9.775c0-5.4 4.417-9.776 9.865-9.776s9.864 4.377 9.864 9.776M103.85 58.438l-7.54-8.461h5.027l-7.54-8.462h5.026l-7.54-8.462h5.027l-7.54-8.46-7.54 8.46h5.027l-7.54 8.462h5.027l-7.54 8.462h5.026l-7.54 8.46z" mask="url(#b)"/>
            <path fill="#6D9E3E" d="M81.23 49.976l-1.257 1.41h17.593l-1.256-1.41zM83.743 41.515l-1.257 1.41h12.567l-1.257-1.41zM86.257 33.054L85 34.464h7.54l-1.256-1.41z" mask="url(#b)"/>
            <path fill="#89714E" d="M86.256 69.72h5.027V58.437h-5.027z" mask="url(#b)"/>
            <path fill="#685236" d="M86.256 59.848h5.027v-1.41h-5.027z" mask="url(#b)"/>
            <path fill="#84BF56" d="M77.496 68.95l-5.175-5.808h3.45l-5.175-5.807h3.45l-5.175-5.807h3.45l-5.175-5.807-5.174 5.807h3.45l-5.175 5.807h3.45l-5.175 5.807h3.45l-5.175 5.807z" mask="url(#b)"/>
            <path fill="#6D9E3E" d="M61.972 63.142l-.862.968h12.074l-.862-.968zM63.697 57.335l-.862.968h8.624l-.862-.968zM65.422 51.528l-.862.968h5.174l-.862-.968z" mask="url(#b)"/>
            <path fill="#89714E" d="M65.422 76.692h3.45v-7.743h-3.45z" mask="url(#b)"/>
            <path fill="#685236" d="M65.422 69.917h3.45v-.968h-3.45z" mask="url(#b)"/>
        </g>
    </g>
</svg>
