
<svg xmlns="http://www.w3.org/2000/svg" width="210" height="110" viewBox="0 0 210 110">
    <g fill="none" fill-rule="evenodd">
        <path fill="#E1FCFF" d="M0 110h210V0H0z"/>
        <path fill="#D8F4BE" d="M210 110H0V74.346s28.121-16.8 103.813-16.8c75.692 0 106.187 16.8 106.187 16.8V110z"/>
        <path fill="#BFDD97" d="M167.812 89.294c0 .56-.895 1.013-2 1.013-1.103 0-1.998-.453-1.998-1.013 0-.56.895-1.013 1.999-1.013s1.999.453 1.999 1.013"/>
        <path fill="#77AF46" d="M165.805 90.13a.84.84 0 0 1-.829-.717c-.534-3.637-.217-7.015.088-10.283.305-3.256.593-6.332.104-9.641a.837.837 0 1 1 1.658-.244c.52 3.508.208 6.83-.092 10.041-.297 3.169-.603 6.446-.099 9.884a.838.838 0 0 1-.83.96"/>
        <path fill="#84BF56" d="M165.813 81.516c-3.014.629-5.823-1.511-6.596-5.388 4.003-.654 5.97 1.853 6.596 5.388M165.956 79.429c3.241-.08 7.07-2.69 6.891-6.81-3.05.023-5.908 3.467-6.89 6.81M166.267 70.13c-2.136.508-4.535-.866-5.162-2.877 1.924-.465 4.262.767 5.162 2.878"/>
        <path fill="#84BF56" d="M165.638 69.744c2.466.008 3.493-2.217 3.493-4.502-2.275 0-4.008 1.879-3.493 4.502"/>
        <path fill="#BFDD97" d="M50.397 87.297c0 .56.895 1.014 1.999 1.014s1.999-.454 1.999-1.014-.895-1.013-1.999-1.013-1.999.453-1.999 1.013"/>
        <path fill="#77AF46" d="M52.404 88.134a.838.838 0 0 1-.83-.96c.504-3.439.198-6.716-.099-9.885-.3-3.212-.61-6.533-.093-10.04a.838.838 0 1 1 1.66.244c-.49 3.31-.202 6.384.102 9.64.306 3.267.623 6.647.09 10.284a.84.84 0 0 1-.83.717"/>
        <path fill="#84BF56" d="M52.396 79.52c3.014.629 5.823-1.511 6.596-5.388-4.003-.654-5.97 1.853-6.596 5.388M52.252 77.433c-3.24-.08-7.07-2.69-6.89-6.81 3.05.023 5.907 3.467 6.89 6.81M51.941 68.135c2.136.506 4.535-.867 5.162-2.878-1.924-.465-4.261.767-5.162 2.878"/>
        <path fill="#84BF56" d="M52.57 67.748c-2.465.008-3.492-2.217-3.492-4.502 2.275 0 4.008 1.879 3.493 4.502"/>
        <path fill="#BFDD97" d="M112.506 96.149c0 1.058-1.692 1.915-3.778 1.915-2.087 0-3.78-.857-3.78-1.915s1.693-1.915 3.78-1.915c2.086 0 3.778.857 3.778 1.915"/>
        <path fill="#77AF46" d="M108.728 96.987a.838.838 0 0 1-.838-.838V52.937a.838.838 0 1 1 1.675 0V96.15a.838.838 0 0 1-.837.838"/>
        <path fill="#84BF56" d="M108.728 82.389v.074h-.021c-6.73 0-12.184-5.455-12.184-12.185v-.073h.02c6.73 0 12.185 5.455 12.185 12.184M108.728 77.7v.075h.02c6.73 0 12.185-5.455 12.185-12.185v-.073h-.021c-6.73 0-12.184 5.455-12.184 12.184"/>
        <path fill="#FDB758" d="M112.294 44.853c0 7.668-1.597 13.883-3.566 13.883-1.97 0-3.567-6.215-3.567-13.883 0-7.668 1.597-13.883 3.567-13.883 1.969 0 3.566 6.215 3.566 13.883"/>
        <path fill="#F37139" d="M114.776 44.866c.017 7.651-2.678 13.848-6.018 13.84-3.341-.007-6.062-6.215-6.079-13.866-.016-7.651 2.678-13.848 6.019-13.841 3.34.008 6.061 6.216 6.078 13.867"/>
        <path fill="#F37139" d="M108.74 50.901c-7.65-.017-13.858-2.738-13.866-6.078-.007-3.34 6.19-6.035 13.84-6.019 7.652.017 13.86 2.738 13.867 6.08.008 3.34-6.19 6.034-13.84 6.017"/>
        <path fill="#E85638" d="M112.995 40.585c5.422 5.422 7.906 11.728 5.55 14.085-2.358 2.357-8.663-.128-14.085-5.55-5.422-5.422-7.907-11.727-5.55-14.084 2.357-2.357 8.663.127 14.085 5.55"/>
        <path fill="#E85638" d="M113.014 49.14c-5.398 5.397-11.694 7.855-14.061 5.487-2.367-2.367.09-8.662 5.489-14.06 5.398-5.399 11.693-7.856 14.06-5.489 2.368 2.367-.09 8.663-5.488 14.061"/>
        <path fill="#FCC300" d="M114.763 44.853c0 3.348-2.702 6.062-6.035 6.062-3.334 0-6.036-2.714-6.036-6.062 0-3.348 2.702-6.062 6.036-6.062 3.333 0 6.035 2.714 6.035 6.062"/>
        <path fill="#BFDD97" d="M144.023 98.155c0 1.058-1.692 1.915-3.778 1.915-2.087 0-3.779-.857-3.779-1.915s1.692-1.915 3.779-1.915c2.086 0 3.778.857 3.778 1.915"/>
        <path fill="#77AF46" d="M140.245 98.546a.838.838 0 0 1-.838-.838V65.299a.839.839 0 1 1 1.676 0v32.409a.838.838 0 0 1-.838.838"/>
        <path fill="#84BF56" d="M140.245 87.387v.055h-.016a9.138 9.138 0 0 1-9.138-9.138v-.055h.016a9.138 9.138 0 0 1 9.138 9.138M140.245 83.871v.055h.016a9.138 9.138 0 0 0 9.138-9.138v-.055h-.016a9.138 9.138 0 0 0-9.138 9.138"/>
        <path fill="#FEC678" d="M142.92 59.235c0 5.751-1.199 10.413-2.676 10.413s-2.675-4.662-2.675-10.413c0-5.75 1.198-10.413 2.675-10.413 1.477 0 2.675 4.662 2.675 10.413"/>
        <path fill="#F37139" d="M144.771 59.235c0 5.751-2.027 10.413-4.527 10.413-2.499 0-4.526-4.662-4.526-10.413 0-5.75 2.027-10.413 4.526-10.413 2.5 0 4.527 4.662 4.527 10.413"/>
        <path fill="#F37139" d="M140.245 63.782c-5.726 0-10.368-2.035-10.368-4.546s4.642-4.546 10.368-4.546 10.368 2.035 10.368 4.546c0 2.51-4.642 4.546-10.368 4.546"/>
        <path fill="#E85638" d="M143.445 62.45c-4.049 4.066-8.764 5.924-10.532 4.148-1.767-1.775.082-6.51 4.131-10.577 4.048-4.067 8.764-5.924 10.531-4.148 1.768 1.775-.08 6.511-4.13 10.577"/>
        <path fill="#E85638" d="M137.044 62.45c-4.05-4.066-5.898-8.802-4.13-10.577 1.767-1.776 6.483.081 10.53 4.148 4.05 4.066 5.899 8.802 4.132 10.577-1.768 1.776-6.483-.082-10.532-4.148"/>
        <path fill="#FCC300" d="M144.771 59.235c0 2.511-2.027 4.546-4.527 4.546-2.499 0-4.526-2.035-4.526-4.546 0-2.51 2.027-4.546 4.526-4.546 2.5 0 4.527 2.035 4.527 4.546"/>
        <path fill="#BFDD97" d="M79.151 96.687c0 1.058-1.692 1.915-3.778 1.915-2.087 0-3.779-.857-3.779-1.915s1.692-1.915 3.78-1.915c2.085 0 3.777.857 3.777 1.915"/>
        <path fill="#77AF46" d="M75.373 97.078a.838.838 0 0 1-.838-.838V63.831a.839.839 0 1 1 1.676 0V96.24a.838.838 0 0 1-.838.838"/>
        <path fill="#84BF56" d="M75.373 85.92v.054h-.016a9.138 9.138 0 0 1-9.138-9.138v-.055h.016a9.138 9.138 0 0 1 9.138 9.138M75.373 82.403v.055h.016a9.138 9.138 0 0 0 9.138-9.138v-.055h-.016a9.138 9.138 0 0 0-9.138 9.138"/>
        <path fill="#FEC678" d="M78.048 57.767c0 5.751-1.198 10.413-2.675 10.413-1.477 0-2.675-4.662-2.675-10.413 0-5.75 1.198-10.413 2.675-10.413 1.477 0 2.675 4.662 2.675 10.413"/>
        <path fill="#F37139" d="M79.9 57.767c0 5.751-2.027 10.413-4.527 10.413s-4.526-4.662-4.526-10.413c0-5.75 2.027-10.413 4.526-10.413 2.5 0 4.527 4.662 4.527 10.413"/>
        <path fill="#F37139" d="M75.373 62.313c-5.726 0-10.368-2.035-10.368-4.546 0-2.51 4.642-4.546 10.368-4.546s10.368 2.036 10.368 4.547c0 2.51-4.642 4.545-10.368 4.545"/>
        <path fill="#E85638" d="M78.574 60.982c-4.05 4.066-8.764 5.924-10.532 4.148-1.767-1.775.082-6.511 4.13-10.577 4.049-4.067 8.765-5.924 10.532-4.148 1.768 1.775-.081 6.511-4.13 10.577"/>
        <path fill="#E85638" d="M72.172 60.982c-4.049-4.066-5.898-8.802-4.13-10.577 1.767-1.776 6.483.081 10.531 4.148 4.05 4.066 5.898 8.802 4.131 10.577-1.768 1.776-6.483-.082-10.532-4.148"/>
        <path fill="#FCC300" d="M79.9 57.767c0 2.511-2.027 4.546-4.527 4.546s-4.526-2.035-4.526-4.546c0-2.51 2.027-4.546 4.526-4.546 2.5 0 4.527 2.035 4.527 4.546"/>
    </g>
</svg>
