
<svg xmlns="http://www.w3.org/2000/svg" viewBox="0 0 67 67"><defs><style>.cls-1,.cls-3,.cls-4{fill:#fff;}.cls-1{opacity:0.01;}.cls-2,.cls-5{fill:#dfe7eb;}.cls-2,.cls-4{stroke:#a3b0bf;}.cls-2{stroke-miterlimit:10;}.cls-2,.cls-4,.cls-6,.cls-7{stroke-width:1.5px;}.cls-4,.cls-6,.cls-7{stroke-linecap:round;stroke-linejoin:round;}.cls-6{fill:none;}.cls-6,.cls-7{stroke:#08c7fb;}.cls-7{fill:#d8f4fd;}</style></defs><title>Information at your fingertips</title><g id="Layer_2" data-name="Layer 2"><g id="Layer_1-2" data-name="Layer 1"><rect class="cls-1" width="67" height="67"/><path class="cls-2" d="M6,4.92H56.36a5,5,0,0,1,5,5v7.29a0,0,0,0,1,0,0H1a0,0,0,0,1,0,0V9.92A5,5,0,0,1,6,4.92Z"/><ellipse id="_Path_" data-name="&lt;Path&gt;" class="cls-3" cx="7.72" cy="11.07" rx="1.12" ry="1.14"/><ellipse id="_Path_2" data-name="&lt;Path&gt;" class="cls-3" cx="12.22" cy="11.07" rx="1.12" ry="1.14"/><ellipse id="_Path_3" data-name="&lt;Path&gt;" class="cls-3" cx="16.72" cy="11.07" rx="1.12" ry="1.14"/><path class="cls-4" d="M39.12,51.73a1.55,1.55,0,0,1,0-2.2,3.28,3.28,0,0,1,4.28-.3l3.94,3V37.42a2.33,2.33,0,1,1,4.66,0v7.77a2.33,2.33,0,0,1,4.66,0v1.55a2.33,2.33,0,1,1,4.66,0V48.3a2.29,2.29,0,0,1,0-.28V17.21H1V51.07a5,5,0,0,0,5,5H43.45Z"/><path class="cls-5" d="M34.15,27.06H18.53a1,1,0,0,1,0-2H34.15a1,1,0,0,1,0,2Z"/><path class="cls-5" d="M34.15,37H18.53a1,1,0,1,1,0-2H34.15a1,1,0,0,1,0,2Z"/><path class="cls-5" d="M34.15,47H18.53a1,1,0,1,1,0-2H34.15a1,1,0,0,1,0,2Z"/><line class="cls-6" x1="6.57" y1="26.06" x2="12.83" y2="26.06"/><line class="cls-6" x1="6.57" y1="36.02" x2="12.83" y2="36.02"/><line class="cls-6" x1="6.57" y1="45.97" x2="12.83" y2="45.97"/><path id="_Path_4" data-name="&lt;Path&gt;" class="cls-7" d="M47.35,52.19l-3.94-3a3.28,3.28,0,0,0-4.28.3h0a1.55,1.55,0,0,0,0,2.2L50.19,62.8a6.22,6.22,0,0,0,4.4,1.82h3.64A7.77,7.77,0,0,0,66,56.85V48.3A2.33,2.33,0,0,0,63.67,46h0a2.33,2.33,0,0,0-2.33,2.33V46.75A2.33,2.33,0,0,0,59,44.42h0a2.33,2.33,0,0,0-2.33,2.33V45.19a2.33,2.33,0,0,0-2.33-2.33h0A2.33,2.33,0,0,0,52,45.19V37.42a2.33,2.33,0,0,0-2.33-2.33h0a2.33,2.33,0,0,0-2.33,2.33Z"/><path id="_Path_5" data-name="&lt;Path&gt;" class="cls-6" d="M54.72,39.38a5.44,5.44,0,1,0-10,.14"/></g></g></svg>