<svg class="icon icon-sm" xmlns="http://www.w3.org/2000/svg" viewBox="0 0 512 396"><path d="M455.7 0H56.4C25.2 0-.2 25.4-.2 56.6v282.9c0 31.2 25.3 56.5 56.5 56.6h399.3c31.2 0 56.6-25.4 56.6-56.6V56.6c0-31.2-25.4-56.6-56.5-56.6zM56.3 32h399.3c13.5 0 24.6 11 24.6 24.6v9.7L266.7 177.5s-.1 0-.1.1c-6.6 3.5-14.5 3.5-21 0L31.8 62.4v-5.8C31.8 43 42.8 32 56.3 32zm399.4 332H56.4c-13.5 0-24.6-11-24.6-24.6V98.7l198.6 107.1c8 4.3 16.8 6.4 25.6 6.4s17.5-2.1 25.5-6.4l198.6-103.5v237.1c.1 13.6-10.9 24.6-24.4 24.6z"></path></svg>