

<svg width="75px" height="75px" viewBox="0 0 75 75" version="1.1" xmlns="http://www.w3.org/2000/svg" xmlns:xlink="http://www.w3.org/1999/xlink">
   
    <title>Partner inquire</title>
    <desc>Created with sketchtool.</desc>
    <g id="Page-1" stroke="none" stroke-width="1" fill="none" fill-rule="evenodd">
        <g id="freshworks-soln-partner-benefits" transform="translate(-1053.000000, -715.000000)">
            <g id="Group-5" transform="translate(1053.000000, 715.000000)">
                <polygon id="Path" fill-opacity="0.01" fill="#FFFFFF" points="0 75 75 75 75 0 0 0"></polygon>
                <path d="M25,14 C25,17.8659932 21.8659932,21 18,21 C14.1340068,21 11,17.8659932 11,14 C11,10.1340068 14.1340068,7 18,7 C21.8659932,7 25,10.1340068 25,14 Z" id="Path" stroke="#A3B0BF" stroke-width="1.5" stroke-linecap="round" stroke-linejoin="round"></path>
                <path d="M14.9988954,37.8759117 C15.0437522,40.4059532 13.7196678,42.7632425 11.5357594,44.0413896 C9.35185101,45.3195368 6.64814899,45.3195368 4.4642406,44.0413896 C2.28033221,42.7632425 0.956247817,40.4059532 1.00110463,37.8759117 C1.06877916,34.0588919 4.18238287,31 8,31 C11.8176171,31 14.9312208,34.0588919 14.9988954,37.8759117 Z" id="Path" stroke="#A3B0BF" stroke-width="1.5" stroke-linecap="round" stroke-linejoin="round"></path>
                <path d="M25,60.9999999 C25,63.5008591 23.6658076,65.8117482 21.5,67.0621778 C19.3341925,68.3126074 16.6658075,68.3126074 14.5,67.0621778 C12.3341924,65.8117482 11,63.5008591 11,60.9999999 C11,57.1340067 14.1340068,54 18,54 C21.8659932,54 25,57.1340067 25,60.9999999 Z" id="Path" stroke="#A3B0BF" stroke-width="1.5" stroke-linecap="round" stroke-linejoin="round"></path>
                <path d="M50,60.9989006 C50.0003928,58.4980415 51.3349483,56.1873619 53.5009522,54.9372725 C55.6669562,53.6871831 58.3353411,53.6876023 60.5009522,54.9383721 C62.6665634,56.1891419 64.0003928,58.5002406 63.9999999,61.0010998 C63.9993925,64.867093 60.8648935,68.0006073 56.9989004,68 C53.1329072,67.9993927 49.9993928,64.8648938 50,60.9989006 Z" id="Path" stroke="#A3B0BF" stroke-width="1.5" stroke-linecap="round" stroke-linejoin="round"></path>
                <path d="M60,37.9994499 C60,34.1337604 63.1340067,31 67,31 C70.8659932,31 73.9999999,34.1337604 73.9999999,37.9994499 C74.000393,40.5001124 72.6665638,42.8110297 70.5009528,44.0617013 C68.3353418,45.312373 65.6669569,45.3127924 63.5009529,44.0628015 C61.3349488,42.8128107 60.0003931,40.5023128 60,38.0016503 L60,37.9994499 Z" id="Path" stroke="#A3B0BF" stroke-width="1.5" stroke-linecap="round" stroke-linejoin="round"></path>
                <path d="M50.0000004,13.9978008 C50.000786,11.4969418 51.3357045,9.18647195 53.5019047,7.93672288 C55.668105,6.68697381 58.3364898,6.68781213 60.5019044,7.93892206 C62.667319,9.190032 64.0007853,11.5013402 63.9999997,14.0021992 C63.9987851,17.8681922 60.8637939,21.0012142 56.9978008,20.9999996 C53.1318078,20.9987851 49.9987858,17.8637939 50.0000004,13.9978008 Z" id="Path" stroke="#A3B0BF" stroke-width="1.5" stroke-linecap="round" stroke-linejoin="round"></path>
                <path d="M22,19 L25,22" id="Path" fill="#D7E3F9"></path>
                <path d="M23,19 L26,22" id="Path" stroke="#A3B0BF" stroke-width="1.5" stroke-linecap="round" stroke-linejoin="round"></path>
                <path d="M15,37 L21,37" id="Path" fill="#D7E3F9"></path>
                <path d="M15,37 L21,37" id="Path" stroke="#A3B0BF" stroke-width="1.5" stroke-linecap="round" stroke-linejoin="round"></path>
                <path d="M22,56 L25,53" id="Path" fill="#D7E3F9"></path>
                <path d="M22,55 L25,52" id="Path" stroke="#A3B0BF" stroke-width="1.5" stroke-linecap="round" stroke-linejoin="round"></path>
                <path d="M53,56 L50,53" id="Path" fill="#FFEDCC"></path>
                <path d="M53,55 L50,52" id="Path" stroke="#A3B0BF" stroke-width="1.5" stroke-linecap="round" stroke-linejoin="round"></path>
                <path d="M60,37 L54,37" id="Path" fill="#D7E3F9"></path>
                <path d="M60,37 L54,37" id="Path" stroke="#A3B0BF" stroke-width="1.5" stroke-linecap="round" stroke-linejoin="round"></path>
                <path d="M53,19 L50,22" id="Path" fill="#FFEDCC"></path>
                <path d="M53,20 L49.6413502,23.294209 L53,20 Z" id="Path" stroke="#A3B0BF" stroke-width="1.5" stroke-linecap="round" stroke-linejoin="round"></path>
                <path d="M37.8945148,51 C30.2194093,51 24,44.7842769 24,37.1171142 C24,29.4499515 30.2194093,23.2342284 37.8945148,23.2342284 C45.5675105,23.2342284 51.7890295,29.4499515 51.7890295,37.1171142 C51.7890295,44.7842769 45.5675105,51 37.8945148,51 Z" id="Path" stroke="#3973E6" stroke-width="1.5" fill="#D7E3F9" stroke-linecap="round" stroke-linejoin="round"></path>
                <path d="M43,34.5030755 C43,37.5375582 40.5370019,40 37.5,40 C34.4629981,40 32,37.5396086 32,34.5010252 C32,31.4665424 34.4629981,29 37.5,29 C40.5370019,29 43,31.4644921 43,34.5010252 L43,34.5030755 Z" id="Path" stroke="#3973E6" stroke-width="1.5" stroke-linecap="round" stroke-linejoin="round"></path>
                <path d="M28,47.0337152 C29.359914,43.5325265 33.0761956,41 37.498979,41 C41.9217625,41 45.640086,43.5325265 47,47.0337152 C47,47.0337152 37.6888769,55.9578561 28,47.0337152 Z" id="Path" stroke="#3973E6" stroke-width="1.5" stroke-linecap="round" stroke-linejoin="round"></path>
            </g>
        </g>
    </g>
</svg>