<svg class="icon icon-sm" xmlns="http://www.w3.org/2000/svg" viewBox="0 0 512 512"><path d="M511.1 410.8c-.9-21.8-13.8-42.4-39.6-63.1-30.3-24.4-53.4-35.3-74.7-35.3-26.6 0-43.8 17.4-60.3 34.1l-5.4 5.4c-.6.6-1.9.8-2.8.8-7.9 0-33.2-7-97.9-71.7-47.7-47.7-64.2-74.3-69.7-88.1-3-7.6-2.4-10.8-2.3-11.4.1-.3.1-.3 1-1.2l5.3-5.2c17.6-17.3 32.3-33.5 34.1-56.5 1.8-22.3-8.7-45.8-35.1-78.6C142.3 13.2 120.9.2 98.3.2 67.9.2 45 24.2 26.7 43.5c-3 3.1-6 6.4-8.9 9.2C-5.3 75.8-5.9 122.6 16.1 181c23 61 68.3 127.3 127.6 186.6C189 412.9 239 450.4 288.2 476c43.8 22.8 85.6 35.3 117.8 35.3 22.8 0 41-6.1 52.6-17.7 2.5-2.5 5.3-5.1 8.2-7.9l.8-.8c20-18.9 44.8-42.6 43.5-74.1zm-65.8 50.6l-.8.8c-2.9 2.8-6 5.7-8.8 8.5-5.3 5.3-15.8 8.2-29.7 8.2-26.6 0-64.1-11.5-102.8-31.7-46.3-24.1-93.5-59.5-136.5-102.5-56.1-56.1-98.8-118.3-120.2-175.1-13.6-36-20.6-79-5.7-93.9 3.1-3.1 6.5-6.7 9.5-9.8 14.7-15.6 31.5-33.2 48-33.2 12 0 25.5 9.3 40.2 27.5 20.5 25.5 29.1 42.6 28 55.7-.9 11-8.6 20.4-24.6 36.1l-5.3 5.3c-11.7 11.7-13.7 27.7-6 47.4 9.7 24.7 34.9 57.1 76.9 99.2 72.8 72.8 103.8 81.2 120.8 81.2 10 0 19.1-3.6 25.8-10.3l5.4-5.5c15.4-15.7 24.8-24.5 37.2-24.5 13.1 0 30.9 9.2 54.4 28.1 17.8 14.3 27 27.5 27.5 39.2.8 16.9-17.3 34.1-33.3 49.3zM275 126.2c30.6 0 59.1 11.3 80.4 31.8 21.4 20.6 33.1 48.6 33.1 78.7 0 9 7.3 16.2 16.2 16.2 9 0 16.2-7.3 16.2-16.2 0-39-15.3-75.2-43-102C350.6 108.4 314 93.8 275 93.8c-9 0-16.2 7.3-16.2 16.2s7.3 16.2 16.2 16.2z"></path><path d="M289.4 43.9c47.6 0 92.3 18.5 125.9 52.2 33.6 33.6 52.1 78.4 52.1 126 0 9 7.3 16.2 16.2 16.2 9 0 16.2-7.3 16.2-16.2 0-56.2-21.9-109.1-61.6-148.9-39.8-39.8-92.6-61.7-148.9-61.7-9 0-16.2 7.3-16.2 16.2s7.3 16.2 16.3 16.2z"></path></svg>