
<svg width="57px" height="42px" viewBox="0 0 57 42" version="1.1" xmlns="http://www.w3.org/2000/svg" xmlns:xlink="http://www.w3.org/1999/xlink">
   
    <title>Support Enquire</title>
    <desc>Created with sketchtool.</desc>
    <defs></defs>
    <g id="Page-1" stroke="none" stroke-width="1" fill="none" fill-rule="evenodd">
        <g id="freshworks-contact-us-v3" transform="translate(-228.000000, -855.000000)">
            <g id="Group-10" transform="translate(224.000000, 843.000000)">
                <g id="Group-5" transform="translate(5.000000, 13.000000)">
                    <g id="Group-4">
                        <path d="M37,6.00250209 C37,3.15112594 34.6624371,0.835154295 31.767118,0.818181818 L5.44603482,0.818181818 C2.53818182,0.818181818 0.181818182,3.14032527 0.181818182,6.00250209 L0.181818182,21.5554629 C0.181818182,24.4191827 2.53818182,26.7397832 5.44603482,26.7397832 L8.07814313,26.7397832 L5.44603482,34.4545455 L15.9744681,26.7397832 L17.4478348,26.7397832" id="Stroke-3" stroke="#3973E6" stroke-width="2" stroke-linecap="round" stroke-linejoin="round"></path>
                        <path d="M26.916958,23.1217681 L45.4571678,23.1217681 M26.916958,15.3452877 L45.4571678,15.3452877 M22.9440559,6.27272727 L49.4300699,6.27272727 C52.3561439,6.27272727 54.7272727,8.59332777 54.7272727,11.4570475 L54.7272727,27.0115513 C54.7272727,29.8737281 52.3561439,32.1943286 49.4300699,32.1943286 L46.7814685,32.1943286 L49.4300699,39.9090909 L38.8356643,32.1943286 L22.9440559,32.1943286 C20.0305944,32.1773561 17.6783841,29.8613845 17.6783841,27.0115513 L17.6783841,11.4570475 C17.6783841,8.60567139 20.0305944,6.28969975 22.9440559,6.27272727 M8.81818182,17.9374479 L17.6783841,17.9374479 M8.81818182,10.1609675 L17.6783841,10.1609675" id="Fill-5" fill-opacity="0.297016531" fill="#3973E6"></path>
                        <path d="M26.916958,23.1217681 L45.4571678,23.1217681 L26.916958,23.1217681 Z M26.916958,15.3452877 L45.4571678,15.3452877 L26.916958,15.3452877 Z M22.9440559,6.27272727 L49.4300699,6.27272727 C52.3561439,6.27272727 54.7272727,8.59332777 54.7272727,11.4570475 L54.7272727,27.0115513 C54.7272727,29.8737281 52.3561439,32.1943286 49.4300699,32.1943286 L46.7814685,32.1943286 L49.4300699,39.9090909 L38.8356643,32.1943286 L22.9440559,32.1943286 C20.0305944,32.1773561 17.6783841,29.8613845 17.6783841,27.0115513 L17.6783841,11.4570475 C17.6783841,8.60567139 20.0305944,6.28969975 22.9440559,6.27272727 Z M8.81818182,17.9374479 L17.6783841,17.9374479 L8.81818182,17.9374479 Z M8.81818182,10.1609675 L17.6783841,10.1609675 L8.81818182,10.1609675 Z" id="Stroke-7" stroke="#3973E6" stroke-width="2" stroke-linecap="round" stroke-linejoin="round"></path>
                    </g>
                </g>
            </g>
        </g>
    </g>
</svg>