
<svg width="54px" height="46px" viewBox="0 0 54 46" version="1.1" xmlns="http://www.w3.org/2000/svg" xmlns:xlink="http://www.w3.org/1999/xlink">
   
    <title>Telephone</title>
    <desc>Created with sketchtool.</desc>
    <defs></defs>
    <g id="Page-1" stroke="none" stroke-width="1" fill="none" fill-rule="evenodd">
        <g id="freshworks-contact-us-v3" transform="translate(-229.000000, -536.000000)">
            <g id="Group-6" transform="translate(223.000000, 526.000000)">
                <g id="Group" transform="translate(6.000000, 10.000000)">
                    <g id="Group-25">
                        <g>
                            <g id="Group-2" transform="translate(0.663866, 0.932773)">
                                <path d="M26.297709,0.200910007 C19.4892842,0.200910007 11.6991186,1.36423865 6.33658154,3.3748253 C2.79500045,4.70232197 0.464889508,8.12909377 0.464889508,11.9332633 L0.464889508,15.0722693 C0.464889508,16.5412902 1.64916722,17.7329237 3.10912003,17.7329237 L10.4782717,17.7329237 C11.9391622,17.7329237 13.1225022,16.5412902 13.1225022,15.0722693 L13.1225022,11.2850827 C13.1225022,9.18203357 19.0288881,7.57243205 26.297709,7.57243205" id="Fill-15" fill="#FFFFFF"></path>
                                <path d="M26.297709,0.200910007 C33.1061338,0.200910007 40.8034701,1.36423865 46.1641317,3.3748253 C49.7066505,4.70232197 52.0367614,8.12909377 52.0367614,11.9332633 L52.0367614,15.0722693 C52.0367614,16.5412902 50.8524837,17.7329237 49.3925309,17.7329237 L42.0233792,17.7329237 C40.5624888,17.7329237 39.3782111,16.5412902 39.3782111,15.0722693 L39.3782111,11.2850827 C39.3782111,9.18203357 33.5665299,7.57243205 26.297709,7.57243205" id="Fill-17" fill="#FFFFFF"></path>
                                <path d="M26.297709,0.200910007 C19.4892842,0.200910007 11.6991186,1.36423865 6.33658154,3.3748253 C2.79500045,4.70232197 0.464889508,8.12909377 0.464889508,11.9332633 L0.464889508,15.0722693 C0.464889508,16.5412902 1.64916722,17.7329237 3.10912003,17.7329237 L10.4782717,17.7329237 C11.9391622,17.7329237 13.1225022,16.5412902 13.1225022,15.0722693 L13.1225022,11.2850827 C13.1225022,9.18203357 19.0288881,7.57243205 26.297709,7.57243205" id="Stroke-19" stroke="#3973E6" stroke-width="2" stroke-linecap="round" stroke-linejoin="round"></path>
                                <path d="M26.297709,0.200910007 C33.1061338,0.200910007 40.8034701,1.36423865 46.1641317,3.3748253 C49.7066505,4.70232197 52.0367614,8.12909377 52.0367614,11.9332633 L52.0367614,15.0722693 C52.0367614,16.5412902 50.8524837,17.7329237 49.3925309,17.7329237 L42.0233792,17.7329237 C40.5624888,17.7329237 39.3782111,16.5412902 39.3782111,15.0722693 L39.3782111,11.2850827 C39.3782111,9.18203357 33.5665299,7.57243205 26.297709,7.57243205" id="Stroke-21" stroke="#3973E6" stroke-width="2" stroke-linecap="round" stroke-linejoin="round"></path>
                            </g>
                            <g id="Group-7" transform="translate(6.714286, 16.815126)">
                                <path d="M30.0656364,3.81186352 L30.050581,3.81186352 L30.050581,0.0519738564 L25.5113989,0.0519738564 L25.5113989,3.81186352 L14.5878155,3.81186352 L14.5878155,0.00476696991 L10.0486334,0.00476696991 L10.0486334,3.81186352 L10.0392238,3.81186352 L1.41910605,16.5716073 C0.566597958,17.8332344 0.112115165,19.3142348 0.112115165,20.8294833 L0.112115165,25.2613769 C0.112115165,26.740526 1.33065599,27.938285 2.83430713,27.938285 L37.2696121,27.938285 C38.7732632,27.938285 39.992745,26.740526 39.992745,25.2613769 L39.992745,20.8294833 C39.992745,19.3142348 39.5373212,17.8332344 38.6848131,16.5716073 L30.0656364,3.81186352 Z" id="Fill-7" fill-opacity="0.3" fill="#3973E6"></path>
                                <path d="M30.0656364,3.81186352 L30.050581,3.81186352 L30.050581,0.0519738564 L25.5113989,0.0519738564 L25.5113989,3.81186352 L14.5878155,3.81186352 L14.5878155,0.00476696991 L10.0486334,0.00476696991 L10.0486334,3.81186352 L10.0392238,3.81186352 L1.41910605,16.5716073 C0.566597958,17.8332344 0.112115165,19.3142348 0.112115165,20.8294833 L0.112115165,25.2613769 C0.112115165,26.740526 1.33065599,27.938285 2.83430713,27.938285 L37.2696121,27.938285 C38.7732632,27.938285 39.992745,26.740526 39.992745,25.2613769 L39.992745,20.8294833 C39.992745,19.3142348 39.5373212,17.8332344 38.6848131,16.5716073 L30.0656364,3.81186352 Z" id="Stroke-9" stroke="#3973E6" stroke-width="2" stroke-linecap="round" stroke-linejoin="round"></path>
                                <path d="M13.2414926,10.2713392 C13.2414926,8.99860447 14.28972,7.96745797 15.5835375,7.96745797 C16.8773549,7.96745797 17.9265233,8.99860447 17.9265233,10.2713392" id="Stroke-11" stroke="#3973E6" stroke-width="2" stroke-linecap="round" stroke-linejoin="round"></path>
                                <path d="M22.3836539,10.2713392 C22.3836539,8.99860447 23.4318813,7.96745797 24.7256988,7.96745797 C26.0195163,7.96745797 27.0686846,8.99860447 27.0686846,10.2713392" id="Stroke-13" stroke="#3973E6" stroke-width="2" stroke-linecap="round" stroke-linejoin="round"></path>
                                <path d="M27.0682141,15.5276871 C27.0682141,19.3394118 23.9272958,22.4291488 20.0524301,22.4291488 C16.1775644,22.4291488 13.0357051,19.3394118 13.0357051,15.5276871" id="Stroke-23" stroke="#3973E6" stroke-width="2" stroke-linecap="round" stroke-linejoin="round"></path>
                            </g>
                        </g>
                    </g>
                </g>
            </g>
        </g>
    </g>
</svg>