<svg xmlns="http://www.w3.org/2000/svg" viewBox="0 0 230 150" width="230" height="150" preserveAspectRatio="xMidYMid meet" style="width: 100%; height: 100%;"><defs><clipPath id="animationMask_ITZYg38bQf"><rect width="230" height="150" x="0" y="0"></rect></clipPath><mask id="ly_4KKJ8Dlh7Y" mask-type="alpha"><g style="user-select: none;" transform="matrix(0.55,0,0,0.55,-0.5,9)" opacity="1"><g opacity="1" transform="matrix(1,0,0,1,289.276,112.442)"><path fill="rgb(150,112,71)" fill-opacity="1" d="M0 0 M2.179,-12.99 C1.0759999999999998,-14.415000000000001 -1.0759999999999998,-14.415000000000001 -2.179,-12.99 C-2.179,-12.99 -21.695,12.223 -21.695,12.223 C-22.387,13.117 -21.75,14.415 -20.62,14.415 C-20.62,14.415 20.62,14.415 20.62,14.415 C21.75,14.415 22.387,13.117 21.696,12.223 C21.696,12.223 2.179,-12.99 2.179,-12.99z"></path></g><g opacity="1" transform="matrix(1,0,0,1,289.276,112.442)"><path fill="rgb(150,112,71)" fill-opacity="1" d="M0 0 M2.179,-12.99 C2.179,-12.99 21.696,12.223 21.696,12.223 C22.387,13.117 21.75,14.415 20.62,14.415 C20.62,14.415 -20.62,14.415 -20.62,14.415 C-21.75,14.415 -22.387,13.117 -21.695,12.223 C-21.695,12.223 -2.179,-12.99 -2.179,-12.99 C-1.0759999999999998,-14.415000000000001 1.0759999999999998,-14.415000000000001 2.179,-12.99z"></path></g><g opacity="1" transform="matrix(1,0,0,1,289.276,182.773)"><path fill="rgb(191,221,150)" fill-opacity="1" d="M0 0 M27.011,3.262 C27.011,3.262 -27.01,3.262 -27.01,3.262 C-28.812,3.262 -30.272,1.802 -30.272,0 C-30.272,-1.801 -28.812,-3.262 -27.01,-3.262 C-27.01,-3.262 27.011,-3.262 27.011,-3.262 C28.811999999999998,-3.262 30.273,-1.801 30.273,0 C30.273,1.802 28.811999999999998,3.262 27.011,3.262z"></path></g><g opacity="1" transform="matrix(1,0,0,1,289.276,154.474)"><path fill="rgb(237,216,137)" fill-opacity="1" d="M0 0 M24.265,27.617 C24.265,27.617 -24.265,27.617 -24.265,27.617 C-24.265,27.617 -19.159,-27.617 -19.159,-27.617 C-19.159,-27.617 19.159,-27.617 19.159,-27.617 C19.159,-27.617 24.265,27.617 24.265,27.617z"></path></g><g opacity="1" transform="matrix(1,0,0,1,289.276,159.474)"><path fill="rgb(201,173,94)" fill-opacity="1" d="M0 0 M4.139,5.136 C4.139,5.136 -4.138,5.136 -4.138,5.136 C-4.138,5.136 -4.138,-0.997 -4.138,-0.997 C-4.138,-3.283 -2.285,-5.137 0,-5.137 C2.286,-5.137 4.139,-3.283 4.139,-0.997 C4.139,-0.997 4.139,5.136 4.139,5.136z"></path></g><g opacity="1" transform="matrix(1,0,0,1,289.276,141.497)"><path fill="rgb(201,173,94)" fill-opacity="1" d="M0 0 M4.139,5.137 C4.139,5.137 -4.138,5.137 -4.138,5.137 C-4.138,5.137 -4.138,-0.997 -4.138,-0.997 C-4.138,-3.283 -2.285,-5.137 0,-5.137 C2.286,-5.137 4.139,-3.283 4.139,-0.997 C4.139,-0.997 4.139,5.137 4.139,5.137z"></path></g><g opacity="1" transform="matrix(1,0,0,1,289.276,176.954)"><path fill="rgb(201,173,94)" fill-opacity="1" d="M0 0 M4.139,5.137 C4.139,5.137 -4.138,5.137 -4.138,5.137 C-4.138,5.137 -4.138,-0.997 -4.138,-0.997 C-4.138,-3.283 -2.285,-5.136 0,-5.136 C2.286,-5.136 4.139,-3.283 4.139,-0.997 C4.139,-0.997 4.139,5.137 4.139,5.137z"></path></g><g opacity="1" transform="matrix(1,0,0,1,289.276,128.869)"><path fill="rgb(219,193,117)" fill-opacity="1" d="M0 0 M19.531,2.012 C19.531,2.012 -19.531,2.012 -19.531,2.012 C-19.531,2.012 -19.159,-2.012 -19.159,-2.012 C-19.159,-2.012 19.159,-2.012 19.159,-2.012 C19.159,-2.012 19.531,2.012 19.531,2.012z"></path></g></g></mask><clipPath id="cp_X6z7tWOp"><path d="M0,0 L420,0 L420,280 L0,280z"></path></clipPath></defs><g clip-path="url(#animationMask_ITZYg38bQf)"><g clip-path="url(#cp_X6z7tWOp)" transform="matrix(0.55,0,0,0.55,-0.5,-2)" opacity="1"><g transform="matrix(1,0,0,1.2,0,-4)" opacity="1" style="user-select: none;"><g opacity="1" transform="matrix(1,0,0,1,210,120)"><path fill="rgb(224,252,255)" fill-opacity="1" d="M0 0 M-210,120 C-210,120 210,120 210,120 C210,120 210,-120 210,-120 C210,-120 -210,-120 -210,-120 C-210,-120 -210,120 -210,120z"></path></g></g><g transform="matrix(1,0,0,1,0,20)" opacity="1" style="user-select: none;"><g opacity="1" transform="matrix(1,0,0,1,74.516,120.733)"><path fill="rgb(196,237,239)" fill-opacity="1" d="M0 0 M9.986,3.77 C9.986,3.77 16.643,3.77 16.643,3.77 C16.643,3.77 6.656,-7.54 6.656,-7.54 C6.656,-7.54 13.314,-7.54 13.314,-7.54 C13.314,-7.54 3.328,-18.847 3.328,-18.847 C3.328,-18.847 9.986,-18.847 9.986,-18.847 C9.986,-18.847 -0.001,-30.155 -0.001,-30.155 C-0.001,-30.155 -9.987,-18.847 -9.987,-18.847 C-9.987,-18.847 -3.329,-18.847 -3.329,-18.847 C-3.329,-18.847 -13.314,-7.54 -13.314,-7.54 C-13.314,-7.54 -6.658,-7.54 -6.658,-7.54 C-6.658,-7.54 -16.643,3.77 -16.643,3.77 C-16.643,3.77 -9.987,3.77 -9.987,3.77 C-9.987,3.77 -19.972,15.078 -19.972,15.078 C-19.972,15.078 -3.329,15.078 -3.329,15.078 C-3.329,15.078 -3.329,30.155 -3.329,30.155 C-3.329,30.155 3.328,30.155 3.328,30.155 C3.328,30.155 3.328,15.078 3.328,15.078 C3.328,15.078 19.971,15.078 19.971,15.078 C19.971,15.078 9.986,3.77 9.986,3.77z"></path></g><g opacity="1" transform="matrix(1,0,0,1,247.264,119.234)"><path fill="rgb(196,237,239)" fill-opacity="1" d="M0 0 M9.168,3.46 C9.168,3.46 15.28,3.46 15.28,3.46 C15.28,3.46 6.111,-6.921 6.111,-6.921 C6.111,-6.921 12.224,-6.921 12.224,-6.921 C12.224,-6.921 3.057,-17.303 3.057,-17.303 C3.057,-17.303 9.168,-17.303 9.168,-17.303 C9.168,-17.303 0.001,-27.685 0.001,-27.685 C0.001,-27.685 -9.167,-17.303 -9.167,-17.303 C-9.167,-17.303 -3.057,-17.303 -3.057,-17.303 C-3.057,-17.303 -12.223,-6.921 -12.223,-6.921 C-12.223,-6.921 -6.111,-6.921 -6.111,-6.921 C-6.111,-6.921 -15.279,3.46 -15.279,3.46 C-15.279,3.46 -9.167,3.46 -9.167,3.46 C-9.167,3.46 -18.335,13.842 -18.335,13.842 C-18.335,13.842 -3.057,13.842 -3.057,13.842 C-3.057,13.842 -3.057,27.685 -3.057,27.685 C-3.057,27.685 3.057,27.685 3.057,27.685 C3.057,27.685 3.057,13.842 3.057,13.842 C3.057,13.842 18.336,13.842 18.336,13.842 C18.336,13.842 9.168,3.46 9.168,3.46z"></path></g><g opacity="1" transform="matrix(1,0,0,1,364.338,130.239)"><path fill="rgb(196,237,239)" fill-opacity="1" d="M0 0 M9.168,3.46 C9.168,3.46 15.28,3.46 15.28,3.46 C15.28,3.46 6.111,-6.921 6.111,-6.921 C6.111,-6.921 12.224,-6.921 12.224,-6.921 C12.224,-6.921 3.056,-17.303 3.056,-17.303 C3.056,-17.303 9.168,-17.303 9.168,-17.303 C9.168,-17.303 0,-27.685 0,-27.685 C0,-27.685 -9.168,-17.303 -9.168,-17.303 C-9.168,-17.303 -3.057,-17.303 -3.057,-17.303 C-3.057,-17.303 -12.224,-6.921 -12.224,-6.921 C-12.224,-6.921 -6.112,-6.921 -6.112,-6.921 C-6.112,-6.921 -15.28,3.46 -15.28,3.46 C-15.28,3.46 -9.168,3.46 -9.168,3.46 C-9.168,3.46 -18.336,13.842 -18.336,13.842 C-18.336,13.842 -3.057,13.842 -3.057,13.842 C-3.057,13.842 -3.057,27.685 -3.057,27.685 C-3.057,27.685 3.056,27.685 3.056,27.685 C3.056,27.685 3.056,13.842 3.056,13.842 C3.056,13.842 18.336,13.842 18.336,13.842 C18.336,13.842 9.168,3.46 9.168,3.46z"></path></g><g opacity="1" transform="matrix(1,0,0,1,217.971,110.785)"><path fill="rgb(196,237,239)" fill-opacity="1" d="M0 0 M12.042,4.545 C12.042,4.545 20.068,4.545 20.068,4.545 C20.068,4.545 8.027,-9.091 8.027,-9.091 C8.027,-9.091 16.055,-9.091 16.055,-9.091 C16.055,-9.091 4.014,-22.726 4.014,-22.726 C4.014,-22.726 12.042,-22.726 12.042,-22.726 C12.042,-22.726 0.001,-36.362 0.001,-36.362 C0.001,-36.362 -12.042,-22.726 -12.042,-22.726 C-12.042,-22.726 -4.014,-22.726 -4.014,-22.726 C-4.014,-22.726 -16.055,-9.091 -16.055,-9.091 C-16.055,-9.091 -8.027,-9.091 -8.027,-9.091 C-8.027,-9.091 -20.07,4.545 -20.07,4.545 C-20.07,4.545 -12.042,4.545 -12.042,4.545 C-12.042,4.545 -24.083,18.181 -24.083,18.181 C-24.083,18.181 -4.014,18.181 -4.014,18.181 C-4.014,18.181 -4.014,36.362 -4.014,36.362 C-4.014,36.362 4.014,36.362 4.014,36.362 C4.014,36.362 4.014,18.181 4.014,18.181 C4.014,18.181 24.083,18.181 24.083,18.181 C24.083,18.181 12.042,4.545 12.042,4.545z"></path></g></g><g transform="matrix(1,0,0,1,0,20)" opacity="1" style="user-select: none;"><g opacity="1" transform="matrix(1,0,0,1,34.07,125.973)"><path fill="rgb(132,191,86)" fill-opacity="1" d="M0 0 M20.699,23.439 C20.699,23.439 10.349,11.719 10.349,11.719 C10.349,11.719 17.249,11.719 17.249,11.719 C17.249,11.719 6.899,0 6.899,0 C6.899,0 13.799,0 13.799,0 C13.799,0 3.449,-11.72 3.449,-11.72 C3.449,-11.72 10.349,-11.72 10.349,-11.72 C10.349,-11.72 0,-23.439 0,-23.439 C0,-23.439 -10.35,-11.72 -10.35,-11.72 C-10.35,-11.72 -3.45,-11.72 -3.45,-11.72 C-3.45,-11.72 -13.8,0 -13.8,0 C-13.8,0 -6.9,0 -6.9,0 C-6.9,0 -17.249,11.719 -17.249,11.719 C-17.249,11.719 -10.35,11.719 -10.35,11.719 C-10.35,11.719 -20.699,23.439 -20.699,23.439 C-20.699,23.439 20.699,23.439 20.699,23.439z"></path></g><g opacity="1" transform="matrix(1,0,0,1,34.069,138.669)"><path fill="rgb(109,158,61)" fill-opacity="1" d="M0 0 M-10.35,-0.977 C-10.35,-0.977 -12.074,0.977 -12.074,0.977 C-12.074,0.977 12.075,0.977 12.075,0.977 C12.075,0.977 10.35,-0.977 10.35,-0.977 C10.35,-0.977 -10.35,-0.977 -10.35,-0.977z"></path></g><g opacity="1" transform="matrix(1,0,0,1,34.069,126.949)"><path fill="rgb(109,158,61)" fill-opacity="1" d="M0 0 M-6.9,-0.977 C-6.9,-0.977 -8.624,0.977 -8.624,0.977 C-8.624,0.977 8.624,0.977 8.624,0.977 C8.624,0.977 6.9,-0.977 6.9,-0.977 C6.9,-0.977 -6.9,-0.977 -6.9,-0.977z"></path></g><g opacity="1" transform="matrix(1,0,0,1,34.07,115.229)"><path fill="rgb(109,158,61)" fill-opacity="1" d="M0 0 M-3.45,-0.977 C-3.45,-0.977 -5.175,0.977 -5.175,0.977 C-5.175,0.977 5.175,0.977 5.175,0.977 C5.175,0.977 3.449,-0.977 3.449,-0.977 C3.449,-0.977 -3.45,-0.977 -3.45,-0.977z"></path></g><g opacity="1" transform="matrix(1,0,0,1,34.069,157.225)"><path fill="rgb(137,112,79)" fill-opacity="1" d="M0 0 M3.45,7.814 C3.45,7.814 -3.449,7.814 -3.449,7.814 C-3.449,7.814 -3.449,-7.813 -3.449,-7.813 C-3.449,-7.813 3.45,-7.813 3.45,-7.813 C3.45,-7.813 3.45,7.814 3.45,7.814z"></path></g><g opacity="1" transform="matrix(1,0,0,1,34.069,150.388)"><path fill="rgb(104,81,53)" fill-opacity="1" d="M0 0 M3.45,0.977 C3.45,0.977 -3.449,0.977 -3.449,0.977 C-3.449,0.977 -3.449,-0.977 -3.449,-0.977 C-3.449,-0.977 3.45,-0.977 3.45,-0.977 C3.45,-0.977 3.45,0.977 3.45,0.977z"></path></g></g><g transform="matrix(1,0,0,1,0,20)" opacity="1" style="user-select: none;"><g opacity="1" transform="matrix(1,0,0,1,210,188.169)"><path fill="rgb(216,244,191)" fill-opacity="1" d="M0 0 M-2.375,-51.831 C149.009,-51.831 210,-18.36 210,-18.36 C210,-18.36 210,74.331 210,74.331 C210,74.331 -210,74.331 -210,74.331 C-210,74.331 -210,-18.36 -210,-18.36 C-210,-18.36 -153.759,-51.831 -2.375,-51.831z"></path></g></g><g transform="matrix(1,0,0,1,0,20)" opacity="1" style="user-select: none;"><g opacity="1" transform="matrix(1,0,0,1,210,188.169)"><path fill="rgb(216,244,191)" fill-opacity="1" d="M0 0 M-2.375,-51.831 C-153.759,-51.831 -210,-18.36 -210,-18.36 C-210,-18.36 -210,74.331 -210,74.331 C-210,74.331 210,74.331 210,74.331 C210,74.331 210,-18.36 210,-18.36 C210,-18.36 149.009,-51.831 -2.375,-51.831z"></path></g></g><g transform="matrix(1,0,0,1,0,20)" opacity="1" style="user-select: none;"><g opacity="1" transform="matrix(1,0,0,1,122.753,126.066)"><path fill="rgb(234,234,234)" fill-opacity="1" d="M0 0 M1.386,-27.741 C1.386,-27.741 1.386,-41.574 1.386,-41.574 C1.386,-43.105999999999995 0.14600000000000013,-44.346 -1.386,-44.346 C-1.386,-44.346 -9.704,-44.346 -9.704,-44.346 C-11.236,-44.346 -12.476,-43.105999999999995 -12.476,-41.574 C-12.476,-41.574 -12.476,-11.105 -12.476,-11.105 C-12.476,-11.105 -37.429,-11.105 -37.429,-11.105 C-37.429,-11.105 -37.429,44.346 -37.429,44.346 C-37.429,44.346 37.429,44.346 37.429,44.346 C37.429,44.346 37.429,8.303 37.429,8.303 C37.429,8.303 1.386,-27.741 1.386,-27.741z"></path></g><g opacity="1" transform="matrix(1,0,0,1,117.208,126.08)"><path fill="rgb(204,204,204)" fill-opacity="1" d="M0 0 M6.931,44.36 C6.931,44.36 6.931,-41.588 6.931,-41.588 C6.931,-43.120000000000005 5.691,-44.36 4.159,-44.36 C4.159,-44.36 -4.159,-44.36 -4.159,-44.36 C-5.691,-44.36 -6.931,-43.120000000000005 -6.931,-41.588 C-6.931,-41.588 -6.931,44.36 -6.931,44.36 C-6.931,44.36 6.931,44.36 6.931,44.36z"></path></g><g opacity="1" transform="matrix(1,0,0,1,142.161,159.351)"><path fill="rgb(66,71,84)" fill-opacity="1" d="M0 0 M9.704,-11.09 C9.704,-11.09 -9.704,-11.09 -9.704,-11.09 C-9.704,-11.09 -9.704,11.09 -9.704,11.09 C-9.704,11.09 9.704,11.09 9.704,11.09 C9.704,11.09 9.704,-11.09 9.704,-11.09z"></path></g><g opacity="1" transform="matrix(1,0,0,1,142.161,126.081)"><path fill="rgb(71,158,204)" fill-opacity="1" d="M0 0 M9.704,8.317 C9.704,8.317 -9.704,-11.09 -9.704,-11.09 C-9.704,-11.09 -9.704,11.09 -9.704,11.09 C-9.704,11.09 9.704,11.09 9.704,11.09 C9.704,11.09 9.704,8.317 9.704,8.317z"></path></g><g opacity="1" transform="matrix(1,0,0,1,97.801,130.24)"><path fill="rgb(71,158,204)" fill-opacity="1" d="M0 0 M6.932,-6.932 C6.932,-6.932 -6.932,-6.932 -6.932,-6.932 C-6.932,-6.932 -6.932,6.931 -6.932,6.931 C-6.932,6.931 6.932,6.931 6.932,6.931 C6.932,6.931 6.932,-6.932 6.932,-6.932z"></path></g><g opacity="1" transform="matrix(1,0,0,1,97.801,116.377)"><path fill="rgb(204,204,204)" fill-opacity="1" d="M0 0 M12.477,1.386 C12.477,1.386 -12.477,1.386 -12.477,1.386 C-12.477,1.386 -12.477,-1.386 -12.477,-1.386 C-12.477,-1.386 12.477,-1.386 12.477,-1.386 C12.477,-1.386 12.477,1.386 12.477,1.386z"></path></g><g opacity="1" transform="matrix(1,0,0,1,142.161,119.149)"><path fill="rgb(204,204,204)" fill-opacity="1" d="M0 0 M18.021,20.794 C18.021,20.794 -18.021,-15.249 -18.021,-15.249 C-18.021,-15.249 -18.021,-20.794 -18.021,-20.794 C-18.021,-20.794 18.021,15.248 18.021,15.248 C18.021,15.248 18.021,20.794 18.021,20.794z"></path></g><g opacity="1" transform="matrix(1,0,0,1,95.028,110.831)"><path fill="rgb(239,76,76)" fill-opacity="1" d="M0 0 M15.249,-4.159 C15.249,-4.159 -12.476,-4.159 -12.476,-4.159 C-14.009,-4.159 -15.249,-2.919 -15.249,-1.387 C-15.249,-1.387 -15.249,1.387 -15.249,1.387 C-15.249,2.919 -14.009,4.159 -12.476,4.159 C-12.476,4.159 15.249,4.159 15.249,4.159 C15.249,4.159 15.249,-4.159 15.249,-4.159z"></path></g><g opacity="1" transform="matrix(1,0,0,1,146.231,113.348)"><path fill="rgb(239,76,76)" fill-opacity="1" d="M0 0 M21.01,18.069 C21.01,18.069 -22.092,-25.033 -22.092,-25.033 C-22.092,-25.033 -22.092,-13.271 -22.092,-13.271 C-22.092,-13.271 15.128,23.95 15.128,23.95 C16.209,25.032999999999998 17.966,25.032999999999998 19.049,23.95 C19.049,23.95 21.01,21.99 21.01,21.99 C22.093,20.906 22.093,19.151999999999997 21.01,18.069z"></path></g><g opacity="1" transform="matrix(1,0,0,1,146.231,113.348)"><path fill="rgb(239,76,76)" fill-opacity="1" d="M0 0 M21.01,18.069 C22.093,19.151999999999997 22.093,20.906 21.01,21.99 C21.01,21.99 19.049,23.95 19.049,23.95 C17.966,25.032999999999998 16.209,25.032999999999998 15.128,23.95 C15.128,23.95 -22.092,-13.271 -22.092,-13.271 C-22.092,-13.271 -22.092,-25.033 -22.092,-25.033 C-22.092,-25.033 21.01,18.069 21.01,18.069z"></path></g><g opacity="1" transform="matrix(1,0,0,1,97.801,124.694)"><path fill="rgb(51,142,181)" fill-opacity="1" d="M0 0 M-6.932,1.386 C-6.932,1.386 6.932,1.386 6.932,1.386 C6.932,1.386 6.932,-1.386 6.932,-1.386 C6.932,-1.386 -6.932,-1.386 -6.932,-1.386 C-6.932,-1.386 -6.932,1.386 -6.932,1.386z"></path></g><g opacity="1" transform="matrix(1,0,0,1,142.161,126.081)"><path fill="rgb(51,142,181)" fill-opacity="1" d="M0 0 M-9.704,-8.318 C-9.704,-8.318 9.704,11.09 9.704,11.09 C9.704,11.09 9.704,8.317 9.704,8.317 C9.704,8.317 -9.704,-11.09 -9.704,-11.09 C-9.704,-11.09 -9.704,-8.318 -9.704,-8.318z"></path></g><g opacity="1" transform="matrix(1,0,0,1,90.869,162.123)"><path fill="rgb(132,191,86)" fill-opacity="1" d="M0 0 M9.552,8.318 C10.504999999999999,6.68 11.09,4.803 11.09,2.773 C11.09,-3.3509999999999995 6.124,-8.317 0,-8.317 C-6.125,-8.317 -11.09,-3.3509999999999995 -11.09,2.773 C-11.09,4.803 -10.506,6.68 -9.552,8.318 C-9.552,8.318 9.552,8.318 9.552,8.318z"></path></g><g opacity="1" transform="matrix(1,0,0,1,90.869,162.123)"><path fill="rgb(109,158,61)" fill-opacity="1" d="M0 0 M58.796,8.318 C59.437,7.215999999999999 59.831,5.952999999999999 59.831,4.587 C59.831,0.46699999999999964 56.489999999999995,-2.873 52.37,-2.873 C48.25,-2.873 44.91,0.46699999999999964 44.91,4.587 C44.91,5.952999999999999 45.303,7.215999999999999 45.945,8.318 C45.945,8.318 58.796,8.318 58.796,8.318z"></path></g><g opacity="1" transform="matrix(1,0,0,1,90.869,162.123)"><path fill="rgb(132,191,86)" fill-opacity="1" d="M0 0 M76.052,8.318 C77.00500000000001,6.68 77.59,4.803 77.59,2.773 C77.59,-3.3509999999999995 72.624,-8.317 66.5,-8.317 C60.375,-8.317 55.41,-3.3509999999999995 55.41,2.773 C55.41,4.803 55.994,6.68 56.948,8.318 C56.948,8.318 76.052,8.318 76.052,8.318z"></path></g></g><g transform="matrix(1,0,0,1,-257,30)" opacity="1" style="user-select: none;"><g opacity="1" transform="matrix(1,0,0,1,322.571,223.04)"><path fill="rgb(191,221,150)" fill-opacity="1" d="M0 0 M2.465,0 C2.465,0.69 1.361,1.25 0,1.25 C-1.361,1.25 -2.465,0.69 -2.465,0 C-2.465,-0.689 -1.361,-1.249 0,-1.249 C1.361,-1.249 2.465,-0.689 2.465,0z"></path></g><g opacity="1" transform="matrix(1,0,0,1,322.571,223.04)"><path fill="rgb(191,221,150)" fill-opacity="1" d="M0 0 M2.465,0 C2.465,-0.689 1.361,-1.249 0,-1.249 C-1.361,-1.249 -2.465,-0.689 -2.465,0 C-2.465,0.69 -1.361,1.25 0,1.25 C1.361,1.25 2.465,0.69 2.465,0z"></path></g><g opacity="1" transform="matrix(1,0,0,1,322.571,212.179)"><path fill="rgb(119,175,71)" fill-opacity="1" d="M0 0 M0,11.117 C-0.302,11.117 -0.547,10.872 -0.547,10.57 C-0.547,10.57 -0.547,-10.57 -0.547,-10.57 C-0.547,-10.871 -0.302,-11.117 0,-11.117 C0.302,-11.117 0.547,-10.871 0.547,-10.57 C0.547,-10.57 0.547,10.57 0.547,10.57 C0.547,10.872 0.302,11.117 0,11.117z"></path></g><g opacity="1" transform="matrix(1,0,0,1,322.571,212.179)"><path fill="rgb(119,175,71)" fill-opacity="1" d="M0 0 M0,11.117 C0.302,11.117 0.547,10.872 0.547,10.57 C0.547,10.57 0.547,-10.57 0.547,-10.57 C0.547,-10.871 0.302,-11.117 0,-11.117 C-0.302,-11.117 -0.547,-10.871 -0.547,-10.57 C-0.547,-10.57 -0.547,10.57 -0.547,10.57 C-0.547,10.872 -0.302,11.117 0,11.117z"></path></g><g opacity="1" transform="matrix(1,0,0,1,319.586,213.055)"><path fill="rgb(132,191,86)" fill-opacity="1" d="M0 0 M2.986,2.963 C2.986,2.963 2.986,2.998 2.986,2.998 C2.986,2.998 2.975,2.998 2.975,2.998 C-0.3169999999999997,2.998 -2.986,0.3299999999999996 -2.986,-2.962 C-2.986,-2.962 -2.986,-2.998 -2.986,-2.998 C-2.986,-2.998 -2.976,-2.998 -2.976,-2.998 C0.31599999999999984,-2.998 2.986,-0.32899999999999974 2.986,2.963z"></path></g><g opacity="1" transform="matrix(1,0,0,1,319.586,213.055)"><path fill="rgb(132,191,86)" fill-opacity="1" d="M0 0 M2.986,2.963 C2.986,-0.32899999999999974 0.31599999999999984,-2.998 -2.976,-2.998 C-2.976,-2.998 -2.986,-2.998 -2.986,-2.998 C-2.986,-2.998 -2.986,-2.962 -2.986,-2.962 C-2.986,0.3299999999999996 -0.3169999999999997,2.998 2.975,2.998 C2.975,2.998 2.986,2.998 2.986,2.998 C2.986,2.998 2.986,2.963 2.986,2.963z"></path></g><g opacity="1" transform="matrix(1,0,0,1,325.557,210.762)"><path fill="rgb(132,191,86)" fill-opacity="1" d="M0 0 M-2.985,2.962 C-2.985,2.962 -2.985,2.998 -2.985,2.998 C-2.985,2.998 -2.974,2.998 -2.974,2.998 C0.3169999999999997,2.998 2.986,0.32899999999999974 2.986,-2.963 C2.986,-2.963 2.986,-2.998 2.986,-2.998 C2.986,-2.998 2.976,-2.998 2.976,-2.998 C-0.31599999999999984,-2.998 -2.985,-0.3299999999999996 -2.985,2.962z"></path></g><g opacity="1" transform="matrix(1,0,0,1,325.557,210.762)"><path fill="rgb(132,191,86)" fill-opacity="1" d="M0 0 M-2.985,2.962 C-2.985,-0.3299999999999996 -0.31599999999999984,-2.998 2.976,-2.998 C2.976,-2.998 2.986,-2.998 2.986,-2.998 C2.986,-2.998 2.986,-2.963 2.986,-2.963 C2.986,0.32899999999999974 0.3169999999999997,2.998 -2.974,2.998 C-2.974,2.998 -2.985,2.998 -2.985,2.998 C-2.985,2.998 -2.985,2.962 -2.985,2.962z"></path></g><g opacity="1" transform="matrix(1,0,0,1,322.572,197.654)"><path fill="rgb(242,112,56)" fill-opacity="1" d="M0 0 M2.953,0 C2.953,3.751 1.631,6.792 0,6.792 C-1.631,6.792 -2.953,3.751 -2.953,0 C-2.953,-3.751 -1.631,-6.792 0,-6.792 C1.631,-6.792 2.953,-3.751 2.953,0z"></path></g><g opacity="1" transform="matrix(1,0,0,1,322.572,197.654)"><path fill="rgb(242,112,56)" fill-opacity="1" d="M0 0 M2.953,0 C2.953,-3.751 1.631,-6.792 0,-6.792 C-1.631,-6.792 -2.953,-3.751 -2.953,0 C-2.953,3.751 -1.631,6.792 0,6.792 C1.631,6.792 2.953,3.751 2.953,0z"></path></g><g opacity="1" transform="matrix(1,0,0,1,322.571,197.655)"><path fill="rgb(242,112,56)" fill-opacity="1" d="M0 0 M0,2.965 C-3.734,2.965 -6.763,1.637 -6.763,-0.001 C-6.763,-1.6389999999999998 -3.734,-2.965 0,-2.965 C3.735,-2.965 6.763,-1.6389999999999998 6.763,-0.001 C6.763,1.637 3.735,2.965 0,2.965z"></path></g><g opacity="1" transform="matrix(1,0,0,1,322.571,197.655)"><path fill="rgb(242,112,56)" fill-opacity="1" d="M0 0 M0,2.965 C3.735,2.965 6.763,1.637 6.763,-0.001 C6.763,-1.6389999999999998 3.735,-2.965 0,-2.965 C-3.734,-2.965 -6.763,-1.6389999999999998 -6.763,-0.001 C-6.763,1.637 -3.734,2.965 0,2.965z"></path></g><g opacity="1" transform="matrix(1,0,0,1,322.572,197.655)"><path fill="rgb(232,86,56)" fill-opacity="1" d="M0 0 M2.087,2.096 C-0.5539999999999998,4.748 -3.63,5.959999999999999 -4.782,4.802 C-5.9350000000000005,3.6439999999999997 -4.729,0.5550000000000002 -2.089,-2.097 C0.5529999999999999,-4.75 3.6279999999999997,-5.961 4.781,-4.803 C5.933999999999999,-3.645 4.728,-0.556 2.087,2.096z"></path></g><g opacity="1" transform="matrix(1,0,0,1,322.572,197.655)"><path fill="rgb(232,86,56)" fill-opacity="1" d="M0 0 M2.087,2.096 C4.728,-0.556 5.933999999999999,-3.645 4.781,-4.803 C3.6279999999999997,-5.961 0.5529999999999999,-4.75 -2.089,-2.097 C-4.729,0.5550000000000002 -5.9350000000000005,3.6439999999999997 -4.782,4.802 C-3.63,5.959999999999999 -0.5539999999999998,4.748 2.087,2.096z"></path></g><g opacity="1" transform="matrix(1,0,0,1,322.571,197.655)"><path fill="rgb(232,86,56)" fill-opacity="1" d="M0 0 M-2.087,2.096 C-4.728,-0.556 -5.934,-3.645 -4.78,-4.803 C-3.628,-5.961 -0.552,-4.75 2.089,-2.097 C4.729,0.5550000000000002 5.9350000000000005,3.6439999999999997 4.783,4.802 C3.6300000000000003,5.959999999999999 0.5549999999999997,4.748 -2.087,2.096z"></path></g><g opacity="1" transform="matrix(1,0,0,1,322.571,197.655)"><path fill="rgb(232,86,56)" fill-opacity="1" d="M0 0 M-2.087,2.096 C0.5549999999999997,4.748 3.6300000000000003,5.959999999999999 4.783,4.802 C5.9350000000000005,3.6439999999999997 4.729,0.5550000000000002 2.089,-2.097 C-0.552,-4.75 -3.628,-5.961 -4.78,-4.803 C-5.934,-3.645 -4.728,-0.556 -2.087,2.096z"></path></g><g opacity="1" transform="matrix(1,0,0,1,322.572,197.655)"><path fill="rgb(252,193,0)" fill-opacity="1" d="M0 0 M2.953,-0.001 C2.953,1.637 1.631,2.965 0,2.965 C-1.631,2.965 -2.953,1.637 -2.953,-0.001 C-2.953,-1.6389999999999998 -1.631,-2.965 0,-2.965 C1.631,-2.965 2.953,-1.6389999999999998 2.953,-0.001z"></path></g><g opacity="1" transform="matrix(1,0,0,1,322.572,197.655)"><path fill="rgb(252,193,0)" fill-opacity="1" d="M0 0 M2.953,-0.001 C2.953,-1.6389999999999998 1.631,-2.965 0,-2.965 C-1.631,-2.965 -2.953,-1.6389999999999998 -2.953,-0.001 C-2.953,1.637 -1.631,2.965 0,2.965 C1.631,2.965 2.953,1.637 2.953,-0.001z"></path></g></g><g transform="matrix(1.35,0,0,1.35,-348.2938,-48.05)" opacity="1" style="user-select: none;"><g opacity="1" transform="matrix(0.7,0,0,0.7,322.571,223.04)"><path fill="rgb(191,221,150)" fill-opacity="1" d="M0 0 M2.465,0 C2.465,0.69 1.361,1.25 0,1.25 C-1.361,1.25 -2.465,0.69 -2.465,0 C-2.465,-0.689 -1.361,-1.249 0,-1.249 C1.361,-1.249 2.465,-0.689 2.465,0z"></path></g><g opacity="1" transform="matrix(0.7,0,0,0.7,322.571,223.04)"><path fill="rgb(191,221,150)" fill-opacity="1" d="M0 0 M2.465,0 C2.465,-0.689 1.361,-1.249 0,-1.249 C-1.361,-1.249 -2.465,-0.689 -2.465,0 C-2.465,0.69 -1.361,1.25 0,1.25 C1.361,1.25 2.465,0.69 2.465,0z"></path></g><g opacity="1" transform="matrix(0.8,0,0,0.8,322.571,214.179)"><path fill="rgb(119,175,71)" fill-opacity="1" d="M0 0 M0,11.117 C-0.302,11.117 -0.547,10.872 -0.547,10.57 C-0.547,10.57 -0.559,-12.856 -0.559,-12.856 C-0.559,-13.157 -0.314,-13.402 -0.012,-13.402 C0.29,-13.402 0.535,-13.157 0.535,-12.856 C0.535,-12.856 0.547,10.57 0.547,10.57 C0.547,10.872 0.302,11.117 0,11.117z"></path></g><g opacity="1" transform="matrix(0.8,0,0,0.8,322.571,214.179)"><path fill="rgb(119,175,71)" fill-opacity="1" d="M0 0 M0,11.117 C0.302,11.117 0.547,10.872 0.547,10.57 C0.547,10.57 0.547,-12.84 0.547,-12.84 C0.547,-13.141 0.302,-13.386 0,-13.386 C-0.302,-13.386 -0.547,-13.141 -0.547,-12.84 C-0.547,-12.84 -0.547,10.57 -0.547,10.57 C-0.547,10.872 -0.302,11.117 0,11.117z"></path></g><g opacity="1" transform="matrix(1,0,0,1,319.586,213.055)"><path fill="rgb(132,191,86)" fill-opacity="1" d="M0 0 M2.986,2.963 C2.986,2.963 2.986,2.998 2.986,2.998 C2.986,2.998 2.975,2.998 2.975,2.998 C-0.3169999999999997,2.998 -2.986,0.3299999999999996 -2.986,-2.962 C-2.986,-2.962 -2.986,-2.998 -2.986,-2.998 C-2.986,-2.998 -2.976,-2.998 -2.976,-2.998 C0.31599999999999984,-2.998 2.986,-0.32899999999999974 2.986,2.963z"></path></g><g opacity="1" transform="matrix(1,0,0,1,319.586,213.055)"><path fill="rgb(132,191,86)" fill-opacity="1" d="M0 0 M2.986,2.963 C2.986,-0.32899999999999974 0.31599999999999984,-2.998 -2.976,-2.998 C-2.976,-2.998 -2.986,-2.998 -2.986,-2.998 C-2.986,-2.998 -2.986,-2.962 -2.986,-2.962 C-2.986,0.3299999999999996 -0.3169999999999997,2.998 2.975,2.998 C2.975,2.998 2.986,2.998 2.986,2.998 C2.986,2.998 2.986,2.963 2.986,2.963z"></path></g><g opacity="1" transform="matrix(1,0,0,1,325.557,210.762)"><path fill="rgb(132,191,86)" fill-opacity="1" d="M0 0 M-2.985,2.962 C-2.985,2.962 -2.985,2.998 -2.985,2.998 C-2.985,2.998 -2.974,2.998 -2.974,2.998 C0.3169999999999997,2.998 2.986,0.32899999999999974 2.986,-2.963 C2.986,-2.963 2.986,-2.998 2.986,-2.998 C2.986,-2.998 2.976,-2.998 2.976,-2.998 C-0.31599999999999984,-2.998 -2.985,-0.3299999999999996 -2.985,2.962z"></path></g><g opacity="1" transform="matrix(1,0,0,1,325.557,210.762)"><path fill="rgb(132,191,86)" fill-opacity="1" d="M0 0 M-2.985,2.962 C-2.985,-0.3299999999999996 -0.31599999999999984,-2.998 2.976,-2.998 C2.976,-2.998 2.986,-2.998 2.986,-2.998 C2.986,-2.998 2.986,-2.963 2.986,-2.963 C2.986,0.32899999999999974 0.3169999999999997,2.998 -2.974,2.998 C-2.974,2.998 -2.985,2.998 -2.985,2.998 C-2.985,2.998 -2.985,2.962 -2.985,2.962z"></path></g><g opacity="1" transform="matrix(1,0,0,1,322.572,197.654)"><path fill="rgb(226,89,63)" fill-opacity="1" d="M0 0 M2.953,0 C2.953,3.751 1.631,6.792 0,6.792 C-1.631,6.792 -2.953,3.751 -2.953,0 C-2.953,-3.751 -1.631,-6.792 0,-6.792 C1.631,-6.792 2.953,-3.751 2.953,0z"></path></g><g opacity="1" transform="matrix(1,0,0,1,322.572,197.654)"><path fill="rgb(232,86,56)" fill-opacity="1" d="M0 0 M2.953,0 C2.953,-3.751 1.631,-6.792 0,-6.792 C-1.631,-6.792 -2.953,-3.751 -2.953,0 C-2.953,3.751 -1.631,6.792 0,6.792 C1.631,6.792 2.953,3.751 2.953,0z"></path></g><g opacity="1" transform="matrix(1,0,0,1,322.571,197.655)"><path fill="rgb(226,89,63)" fill-opacity="1" d="M0 0 M0,2.965 C-3.734,2.965 -6.763,1.637 -6.763,-0.001 C-6.763,-1.6389999999999998 -3.734,-2.965 0,-2.965 C3.735,-2.965 6.763,-1.6389999999999998 6.763,-0.001 C6.763,1.637 3.735,2.965 0,2.965z"></path></g><g opacity="1" transform="matrix(1,0,0,1,322.571,197.655)"><path fill="rgb(232,86,56)" fill-opacity="1" d="M0 0 M0,2.965 C3.735,2.965 6.763,1.637 6.763,-0.001 C6.763,-1.6389999999999998 3.735,-2.965 0,-2.965 C-3.734,-2.965 -6.763,-1.6389999999999998 -6.763,-0.001 C-6.763,1.637 -3.734,2.965 0,2.965z"></path></g><g opacity="1" transform="matrix(1,0,0,1,322.572,197.655)"><path fill="rgb(239,114,66)" fill-opacity="1" d="M0 0 M2.087,2.096 C-0.5539999999999998,4.748 -3.63,5.959999999999999 -4.782,4.802 C-5.9350000000000005,3.6439999999999997 -4.729,0.5550000000000002 -2.089,-2.097 C0.5529999999999999,-4.75 3.6279999999999997,-5.961 4.781,-4.803 C5.933999999999999,-3.645 4.728,-0.556 2.087,2.096z"></path></g><g opacity="1" transform="matrix(1,0,0,1,322.572,197.655)"><path fill="rgb(242,112,56)" fill-opacity="1" d="M0 0 M2.087,2.096 C4.728,-0.556 5.933999999999999,-3.645 4.781,-4.803 C3.6279999999999997,-5.961 0.5529999999999999,-4.75 -2.089,-2.097 C-4.729,0.5550000000000002 -5.9350000000000005,3.6439999999999997 -4.782,4.802 C-3.63,5.959999999999999 -0.5539999999999998,4.748 2.087,2.096z"></path></g><g opacity="1" transform="matrix(1,0,0,1,322.571,197.655)"><path fill="rgb(242,112,56)" fill-opacity="1" d="M0 0 M-2.087,2.096 C-4.728,-0.556 -5.934,-3.645 -4.78,-4.803 C-3.628,-5.961 -0.552,-4.75 2.089,-2.097 C4.729,0.5550000000000002 5.9350000000000005,3.6439999999999997 4.783,4.802 C3.6300000000000003,5.959999999999999 0.5549999999999997,4.748 -2.087,2.096z"></path></g><g opacity="1" transform="matrix(1,0,0,1,322.571,197.655)"><path fill="rgb(242,112,56)" fill-opacity="1" d="M0 0 M-2.087,2.096 C0.5549999999999997,4.748 3.6300000000000003,5.959999999999999 4.783,4.802 C5.9350000000000005,3.6439999999999997 4.729,0.5550000000000002 2.089,-2.097 C-0.552,-4.75 -3.628,-5.961 -4.78,-4.803 C-5.934,-3.645 -4.728,-0.556 -2.087,2.096z"></path></g><g opacity="1" transform="matrix(1,0,0,1,322.572,197.655)"><path fill="rgb(252,193,0)" fill-opacity="1" d="M0 0 M2.953,-0.001 C2.953,1.637 1.631,2.965 0,2.965 C-1.631,2.965 -2.953,1.637 -2.953,-0.001 C-2.953,-1.6389999999999998 -1.631,-2.965 0,-2.965 C1.631,-2.965 2.953,-1.6389999999999998 2.953,-0.001z"></path></g><g opacity="1" transform="matrix(1,0,0,1,322.572,197.655)"><path fill="rgb(252,193,0)" fill-opacity="1" d="M0 0 M2.953,-0.001 C2.953,-1.6389999999999998 1.631,-2.965 0,-2.965 C-1.631,-2.965 -2.953,-1.6389999999999998 -2.953,-0.001 C-2.953,1.637 -1.631,2.965 0,2.965 C1.631,2.965 2.953,1.637 2.953,-0.001z"></path></g></g><g transform="matrix(1,0,0,1,-214.5,30)" opacity="1" style="user-select: none;"><g opacity="1" transform="matrix(1,0,0,1,322.571,223.04)"><path fill="rgb(191,221,150)" fill-opacity="1" d="M0 0 M2.465,0 C2.465,0.69 1.361,1.25 0,1.25 C-1.361,1.25 -2.465,0.69 -2.465,0 C-2.465,-0.689 -1.361,-1.249 0,-1.249 C1.361,-1.249 2.465,-0.689 2.465,0z"></path></g><g opacity="1" transform="matrix(1,0,0,1,322.571,223.04)"><path fill="rgb(191,221,150)" fill-opacity="1" d="M0 0 M2.465,0 C2.465,-0.689 1.361,-1.249 0,-1.249 C-1.361,-1.249 -2.465,-0.689 -2.465,0 C-2.465,0.69 -1.361,1.25 0,1.25 C1.361,1.25 2.465,0.69 2.465,0z"></path></g><g opacity="1" transform="matrix(1,0,0,1,322.571,212.179)"><path fill="rgb(119,175,71)" fill-opacity="1" d="M0 0 M0,11.117 C-0.302,11.117 -0.547,10.872 -0.547,10.57 C-0.547,10.57 -0.547,-10.57 -0.547,-10.57 C-0.547,-10.871 -0.302,-11.117 0,-11.117 C0.302,-11.117 0.547,-10.871 0.547,-10.57 C0.547,-10.57 0.547,10.57 0.547,10.57 C0.547,10.872 0.302,11.117 0,11.117z"></path></g><g opacity="1" transform="matrix(1,0,0,1,322.571,212.179)"><path fill="rgb(119,175,71)" fill-opacity="1" d="M0 0 M0,11.117 C0.302,11.117 0.547,10.872 0.547,10.57 C0.547,10.57 0.547,-10.57 0.547,-10.57 C0.547,-10.871 0.302,-11.117 0,-11.117 C-0.302,-11.117 -0.547,-10.871 -0.547,-10.57 C-0.547,-10.57 -0.547,10.57 -0.547,10.57 C-0.547,10.872 -0.302,11.117 0,11.117z"></path></g><g opacity="1" transform="matrix(1,0,0,1,319.586,213.055)"><path fill="rgb(132,191,86)" fill-opacity="1" d="M0 0 M2.986,2.963 C2.986,2.963 2.986,2.998 2.986,2.998 C2.986,2.998 2.975,2.998 2.975,2.998 C-0.3169999999999997,2.998 -2.986,0.3299999999999996 -2.986,-2.962 C-2.986,-2.962 -2.986,-2.998 -2.986,-2.998 C-2.986,-2.998 -2.976,-2.998 -2.976,-2.998 C0.31599999999999984,-2.998 2.986,-0.32899999999999974 2.986,2.963z"></path></g><g opacity="1" transform="matrix(1,0,0,1,319.586,213.055)"><path fill="rgb(132,191,86)" fill-opacity="1" d="M0 0 M2.986,2.963 C2.986,-0.32899999999999974 0.31599999999999984,-2.998 -2.976,-2.998 C-2.976,-2.998 -2.986,-2.998 -2.986,-2.998 C-2.986,-2.998 -2.986,-2.962 -2.986,-2.962 C-2.986,0.3299999999999996 -0.3169999999999997,2.998 2.975,2.998 C2.975,2.998 2.986,2.998 2.986,2.998 C2.986,2.998 2.986,2.963 2.986,2.963z"></path></g><g opacity="1" transform="matrix(1,0,0,1,325.557,210.762)"><path fill="rgb(132,191,86)" fill-opacity="1" d="M0 0 M-2.985,2.962 C-2.985,2.962 -2.985,2.998 -2.985,2.998 C-2.985,2.998 -2.974,2.998 -2.974,2.998 C0.3169999999999997,2.998 2.986,0.32899999999999974 2.986,-2.963 C2.986,-2.963 2.986,-2.998 2.986,-2.998 C2.986,-2.998 2.976,-2.998 2.976,-2.998 C-0.31599999999999984,-2.998 -2.985,-0.3299999999999996 -2.985,2.962z"></path></g><g opacity="1" transform="matrix(1,0,0,1,325.557,210.762)"><path fill="rgb(132,191,86)" fill-opacity="1" d="M0 0 M-2.985,2.962 C-2.985,-0.3299999999999996 -0.31599999999999984,-2.998 2.976,-2.998 C2.976,-2.998 2.986,-2.998 2.986,-2.998 C2.986,-2.998 2.986,-2.963 2.986,-2.963 C2.986,0.32899999999999974 0.3169999999999997,2.998 -2.974,2.998 C-2.974,2.998 -2.985,2.998 -2.985,2.998 C-2.985,2.998 -2.985,2.962 -2.985,2.962z"></path></g><g opacity="1" transform="matrix(1,0,0,1,322.572,197.654)"><path fill="rgb(242,112,56)" fill-opacity="1" d="M0 0 M2.953,0 C2.953,3.751 1.631,6.792 0,6.792 C-1.631,6.792 -2.953,3.751 -2.953,0 C-2.953,-3.751 -1.631,-6.792 0,-6.792 C1.631,-6.792 2.953,-3.751 2.953,0z"></path></g><g opacity="1" transform="matrix(1,0,0,1,322.572,197.654)"><path fill="rgb(242,112,56)" fill-opacity="1" d="M0 0 M2.953,0 C2.953,-3.751 1.631,-6.792 0,-6.792 C-1.631,-6.792 -2.953,-3.751 -2.953,0 C-2.953,3.751 -1.631,6.792 0,6.792 C1.631,6.792 2.953,3.751 2.953,0z"></path></g><g opacity="1" transform="matrix(1,0,0,1,322.571,197.655)"><path fill="rgb(242,112,56)" fill-opacity="1" d="M0 0 M0,2.965 C-3.734,2.965 -6.763,1.637 -6.763,-0.001 C-6.763,-1.6389999999999998 -3.734,-2.965 0,-2.965 C3.735,-2.965 6.763,-1.6389999999999998 6.763,-0.001 C6.763,1.637 3.735,2.965 0,2.965z"></path></g><g opacity="1" transform="matrix(1,0,0,1,322.571,197.655)"><path fill="rgb(242,112,56)" fill-opacity="1" d="M0 0 M0,2.965 C3.735,2.965 6.763,1.637 6.763,-0.001 C6.763,-1.6389999999999998 3.735,-2.965 0,-2.965 C-3.734,-2.965 -6.763,-1.6389999999999998 -6.763,-0.001 C-6.763,1.637 -3.734,2.965 0,2.965z"></path></g><g opacity="1" transform="matrix(1,0,0,1,322.572,197.655)"><path fill="rgb(232,86,56)" fill-opacity="1" d="M0 0 M2.087,2.096 C-0.5539999999999998,4.748 -3.63,5.959999999999999 -4.782,4.802 C-5.9350000000000005,3.6439999999999997 -4.729,0.5550000000000002 -2.089,-2.097 C0.5529999999999999,-4.75 3.6279999999999997,-5.961 4.781,-4.803 C5.933999999999999,-3.645 4.728,-0.556 2.087,2.096z"></path></g><g opacity="1" transform="matrix(1,0,0,1,322.572,197.655)"><path fill="rgb(232,86,56)" fill-opacity="1" d="M0 0 M2.087,2.096 C4.728,-0.556 5.933999999999999,-3.645 4.781,-4.803 C3.6279999999999997,-5.961 0.5529999999999999,-4.75 -2.089,-2.097 C-4.729,0.5550000000000002 -5.9350000000000005,3.6439999999999997 -4.782,4.802 C-3.63,5.959999999999999 -0.5539999999999998,4.748 2.087,2.096z"></path></g><g opacity="1" transform="matrix(1,0,0,1,322.571,197.655)"><path fill="rgb(232,86,56)" fill-opacity="1" d="M0 0 M-2.087,2.096 C-4.728,-0.556 -5.934,-3.645 -4.78,-4.803 C-3.628,-5.961 -0.552,-4.75 2.089,-2.097 C4.729,0.5550000000000002 5.9350000000000005,3.6439999999999997 4.783,4.802 C3.6300000000000003,5.959999999999999 0.5549999999999997,4.748 -2.087,2.096z"></path></g><g opacity="1" transform="matrix(1,0,0,1,322.571,197.655)"><path fill="rgb(232,86,56)" fill-opacity="1" d="M0 0 M-2.087,2.096 C0.5549999999999997,4.748 3.6300000000000003,5.959999999999999 4.783,4.802 C5.9350000000000005,3.6439999999999997 4.729,0.5550000000000002 2.089,-2.097 C-0.552,-4.75 -3.628,-5.961 -4.78,-4.803 C-5.934,-3.645 -4.728,-0.556 -2.087,2.096z"></path></g><g opacity="1" transform="matrix(1,0,0,1,322.572,197.655)"><path fill="rgb(252,193,0)" fill-opacity="1" d="M0 0 M2.953,-0.001 C2.953,1.637 1.631,2.965 0,2.965 C-1.631,2.965 -2.953,1.637 -2.953,-0.001 C-2.953,-1.6389999999999998 -1.631,-2.965 0,-2.965 C1.631,-2.965 2.953,-1.6389999999999998 2.953,-0.001z"></path></g><g opacity="1" transform="matrix(1,0,0,1,322.572,197.655)"><path fill="rgb(252,193,0)" fill-opacity="1" d="M0 0 M2.953,-0.001 C2.953,-1.6389999999999998 1.631,-2.965 0,-2.965 C-1.631,-2.965 -2.953,-1.6389999999999998 -2.953,-0.001 C-2.953,1.637 -1.631,2.965 0,2.965 C1.631,2.965 2.953,1.637 2.953,-0.001z"></path></g></g><g transform="matrix(1,0,0,1,0,30)" opacity="1" style="user-select: none;"><g opacity="1" transform="matrix(1,0,0,1,322.571,223.04)"><path fill="rgb(191,221,150)" fill-opacity="1" d="M0 0 M2.465,0 C2.465,0.69 1.361,1.25 0,1.25 C-1.361,1.25 -2.465,0.69 -2.465,0 C-2.465,-0.689 -1.361,-1.249 0,-1.249 C1.361,-1.249 2.465,-0.689 2.465,0z"></path></g><g opacity="1" transform="matrix(1,0,0,1,322.571,223.04)"><path fill="rgb(191,221,150)" fill-opacity="1" d="M0 0 M2.465,0 C2.465,-0.689 1.361,-1.249 0,-1.249 C-1.361,-1.249 -2.465,-0.689 -2.465,0 C-2.465,0.69 -1.361,1.25 0,1.25 C1.361,1.25 2.465,0.69 2.465,0z"></path></g><g opacity="1" transform="matrix(1,0,0,1,322.571,212.179)"><path fill="rgb(119,175,71)" fill-opacity="1" d="M0 0 M0,11.117 C-0.302,11.117 -0.547,10.872 -0.547,10.57 C-0.547,10.57 -0.547,-10.57 -0.547,-10.57 C-0.547,-10.871 -0.302,-11.117 0,-11.117 C0.302,-11.117 0.547,-10.871 0.547,-10.57 C0.547,-10.57 0.547,10.57 0.547,10.57 C0.547,10.872 0.302,11.117 0,11.117z"></path></g><g opacity="1" transform="matrix(1,0,0,1,322.571,212.179)"><path fill="rgb(119,175,71)" fill-opacity="1" d="M0 0 M0,11.117 C0.302,11.117 0.547,10.872 0.547,10.57 C0.547,10.57 0.547,-10.57 0.547,-10.57 C0.547,-10.871 0.302,-11.117 0,-11.117 C-0.302,-11.117 -0.547,-10.871 -0.547,-10.57 C-0.547,-10.57 -0.547,10.57 -0.547,10.57 C-0.547,10.872 -0.302,11.117 0,11.117z"></path></g><g opacity="1" transform="matrix(1,0,0,1,319.586,213.055)"><path fill="rgb(132,191,86)" fill-opacity="1" d="M0 0 M2.986,2.963 C2.986,2.963 2.986,2.998 2.986,2.998 C2.986,2.998 2.975,2.998 2.975,2.998 C-0.3169999999999997,2.998 -2.986,0.3299999999999996 -2.986,-2.962 C-2.986,-2.962 -2.986,-2.998 -2.986,-2.998 C-2.986,-2.998 -2.976,-2.998 -2.976,-2.998 C0.31599999999999984,-2.998 2.986,-0.32899999999999974 2.986,2.963z"></path></g><g opacity="1" transform="matrix(1,0,0,1,319.586,213.055)"><path fill="rgb(132,191,86)" fill-opacity="1" d="M0 0 M2.986,2.963 C2.986,-0.32899999999999974 0.31599999999999984,-2.998 -2.976,-2.998 C-2.976,-2.998 -2.986,-2.998 -2.986,-2.998 C-2.986,-2.998 -2.986,-2.962 -2.986,-2.962 C-2.986,0.3299999999999996 -0.3169999999999997,2.998 2.975,2.998 C2.975,2.998 2.986,2.998 2.986,2.998 C2.986,2.998 2.986,2.963 2.986,2.963z"></path></g><g opacity="1" transform="matrix(1,0,0,1,325.557,210.762)"><path fill="rgb(132,191,86)" fill-opacity="1" d="M0 0 M-2.985,2.962 C-2.985,2.962 -2.985,2.998 -2.985,2.998 C-2.985,2.998 -2.974,2.998 -2.974,2.998 C0.3169999999999997,2.998 2.986,0.32899999999999974 2.986,-2.963 C2.986,-2.963 2.986,-2.998 2.986,-2.998 C2.986,-2.998 2.976,-2.998 2.976,-2.998 C-0.31599999999999984,-2.998 -2.985,-0.3299999999999996 -2.985,2.962z"></path></g><g opacity="1" transform="matrix(1,0,0,1,325.557,210.762)"><path fill="rgb(132,191,86)" fill-opacity="1" d="M0 0 M-2.985,2.962 C-2.985,-0.3299999999999996 -0.31599999999999984,-2.998 2.976,-2.998 C2.976,-2.998 2.986,-2.998 2.986,-2.998 C2.986,-2.998 2.986,-2.963 2.986,-2.963 C2.986,0.32899999999999974 0.3169999999999997,2.998 -2.974,2.998 C-2.974,2.998 -2.985,2.998 -2.985,2.998 C-2.985,2.998 -2.985,2.962 -2.985,2.962z"></path></g><g opacity="1" transform="matrix(1,0,0,1,322.572,197.654)"><path fill="rgb(242,112,56)" fill-opacity="1" d="M0 0 M2.953,0 C2.953,3.751 1.631,6.792 0,6.792 C-1.631,6.792 -2.953,3.751 -2.953,0 C-2.953,-3.751 -1.631,-6.792 0,-6.792 C1.631,-6.792 2.953,-3.751 2.953,0z"></path></g><g opacity="1" transform="matrix(1,0,0,1,322.572,197.654)"><path fill="rgb(242,112,56)" fill-opacity="1" d="M0 0 M2.953,0 C2.953,-3.751 1.631,-6.792 0,-6.792 C-1.631,-6.792 -2.953,-3.751 -2.953,0 C-2.953,3.751 -1.631,6.792 0,6.792 C1.631,6.792 2.953,3.751 2.953,0z"></path></g><g opacity="1" transform="matrix(1,0,0,1,322.571,197.655)"><path fill="rgb(242,112,56)" fill-opacity="1" d="M0 0 M0,2.965 C-3.734,2.965 -6.763,1.637 -6.763,-0.001 C-6.763,-1.6389999999999998 -3.734,-2.965 0,-2.965 C3.735,-2.965 6.763,-1.6389999999999998 6.763,-0.001 C6.763,1.637 3.735,2.965 0,2.965z"></path></g><g opacity="1" transform="matrix(1,0,0,1,322.571,197.655)"><path fill="rgb(242,112,56)" fill-opacity="1" d="M0 0 M0,2.965 C3.735,2.965 6.763,1.637 6.763,-0.001 C6.763,-1.6389999999999998 3.735,-2.965 0,-2.965 C-3.734,-2.965 -6.763,-1.6389999999999998 -6.763,-0.001 C-6.763,1.637 -3.734,2.965 0,2.965z"></path></g><g opacity="1" transform="matrix(1,0,0,1,322.572,197.655)"><path fill="rgb(232,86,56)" fill-opacity="1" d="M0 0 M2.087,2.096 C-0.5539999999999998,4.748 -3.63,5.959999999999999 -4.782,4.802 C-5.9350000000000005,3.6439999999999997 -4.729,0.5550000000000002 -2.089,-2.097 C0.5529999999999999,-4.75 3.6279999999999997,-5.961 4.781,-4.803 C5.933999999999999,-3.645 4.728,-0.556 2.087,2.096z"></path></g><g opacity="1" transform="matrix(1,0,0,1,322.572,197.655)"><path fill="rgb(232,86,56)" fill-opacity="1" d="M0 0 M2.087,2.096 C4.728,-0.556 5.933999999999999,-3.645 4.781,-4.803 C3.6279999999999997,-5.961 0.5529999999999999,-4.75 -2.089,-2.097 C-4.729,0.5550000000000002 -5.9350000000000005,3.6439999999999997 -4.782,4.802 C-3.63,5.959999999999999 -0.5539999999999998,4.748 2.087,2.096z"></path></g><g opacity="1" transform="matrix(1,0,0,1,322.571,197.655)"><path fill="rgb(232,86,56)" fill-opacity="1" d="M0 0 M-2.087,2.096 C-4.728,-0.556 -5.934,-3.645 -4.78,-4.803 C-3.628,-5.961 -0.552,-4.75 2.089,-2.097 C4.729,0.5550000000000002 5.9350000000000005,3.6439999999999997 4.783,4.802 C3.6300000000000003,5.959999999999999 0.5549999999999997,4.748 -2.087,2.096z"></path></g><g opacity="1" transform="matrix(1,0,0,1,322.571,197.655)"><path fill="rgb(232,86,56)" fill-opacity="1" d="M0 0 M-2.087,2.096 C0.5549999999999997,4.748 3.6300000000000003,5.959999999999999 4.783,4.802 C5.9350000000000005,3.6439999999999997 4.729,0.5550000000000002 2.089,-2.097 C-0.552,-4.75 -3.628,-5.961 -4.78,-4.803 C-5.934,-3.645 -4.728,-0.556 -2.087,2.096z"></path></g><g opacity="1" transform="matrix(1,0,0,1,322.572,197.655)"><path fill="rgb(252,193,0)" fill-opacity="1" d="M0 0 M2.953,-0.001 C2.953,1.637 1.631,2.965 0,2.965 C-1.631,2.965 -2.953,1.637 -2.953,-0.001 C-2.953,-1.6389999999999998 -1.631,-2.965 0,-2.965 C1.631,-2.965 2.953,-1.6389999999999998 2.953,-0.001z"></path></g><g opacity="1" transform="matrix(1,0,0,1,322.572,197.655)"><path fill="rgb(252,193,0)" fill-opacity="1" d="M0 0 M2.953,-0.001 C2.953,-1.6389999999999998 1.631,-2.965 0,-2.965 C-1.631,-2.965 -2.953,-1.6389999999999998 -2.953,-0.001 C-2.953,1.637 -1.631,2.965 0,2.965 C1.631,2.965 2.953,1.637 2.953,-0.001z"></path></g></g><g transform="matrix(1.35,0,0,1.35,-91.2938,-48.05)" opacity="1" style="user-select: none;"><g opacity="1" transform="matrix(0.7,0,0,0.7,322.571,223.04)"><path fill="rgb(191,221,150)" fill-opacity="1" d="M0 0 M2.465,0 C2.465,0.69 1.361,1.25 0,1.25 C-1.361,1.25 -2.465,0.69 -2.465,0 C-2.465,-0.689 -1.361,-1.249 0,-1.249 C1.361,-1.249 2.465,-0.689 2.465,0z"></path></g><g opacity="1" transform="matrix(0.7,0,0,0.7,322.571,223.04)"><path fill="rgb(191,221,150)" fill-opacity="1" d="M0 0 M2.465,0 C2.465,-0.689 1.361,-1.249 0,-1.249 C-1.361,-1.249 -2.465,-0.689 -2.465,0 C-2.465,0.69 -1.361,1.25 0,1.25 C1.361,1.25 2.465,0.69 2.465,0z"></path></g><g opacity="1" transform="matrix(0.8,0,0,0.8,322.571,214.179)"><path fill="rgb(119,175,71)" fill-opacity="1" d="M0 0 M0,11.117 C-0.302,11.117 -0.547,10.872 -0.547,10.57 C-0.547,10.57 -0.559,-12.856 -0.559,-12.856 C-0.559,-13.157 -0.314,-13.402 -0.012,-13.402 C0.29,-13.402 0.535,-13.157 0.535,-12.856 C0.535,-12.856 0.547,10.57 0.547,10.57 C0.547,10.872 0.302,11.117 0,11.117z"></path></g><g opacity="1" transform="matrix(0.8,0,0,0.8,322.571,214.179)"><path fill="rgb(119,175,71)" fill-opacity="1" d="M0 0 M0,11.117 C0.302,11.117 0.547,10.872 0.547,10.57 C0.547,10.57 0.547,-12.84 0.547,-12.84 C0.547,-13.141 0.302,-13.386 0,-13.386 C-0.302,-13.386 -0.547,-13.141 -0.547,-12.84 C-0.547,-12.84 -0.547,10.57 -0.547,10.57 C-0.547,10.872 -0.302,11.117 0,11.117z"></path></g><g opacity="1" transform="matrix(1,0,0,1,319.586,213.055)"><path fill="rgb(132,191,86)" fill-opacity="1" d="M0 0 M2.986,2.963 C2.986,2.963 2.986,2.998 2.986,2.998 C2.986,2.998 2.975,2.998 2.975,2.998 C-0.3169999999999997,2.998 -2.986,0.3299999999999996 -2.986,-2.962 C-2.986,-2.962 -2.986,-2.998 -2.986,-2.998 C-2.986,-2.998 -2.976,-2.998 -2.976,-2.998 C0.31599999999999984,-2.998 2.986,-0.32899999999999974 2.986,2.963z"></path></g><g opacity="1" transform="matrix(1,0,0,1,319.586,213.055)"><path fill="rgb(132,191,86)" fill-opacity="1" d="M0 0 M2.986,2.963 C2.986,-0.32899999999999974 0.31599999999999984,-2.998 -2.976,-2.998 C-2.976,-2.998 -2.986,-2.998 -2.986,-2.998 C-2.986,-2.998 -2.986,-2.962 -2.986,-2.962 C-2.986,0.3299999999999996 -0.3169999999999997,2.998 2.975,2.998 C2.975,2.998 2.986,2.998 2.986,2.998 C2.986,2.998 2.986,2.963 2.986,2.963z"></path></g><g opacity="1" transform="matrix(1,0,0,1,325.557,210.762)"><path fill="rgb(132,191,86)" fill-opacity="1" d="M0 0 M-2.985,2.962 C-2.985,2.962 -2.985,2.998 -2.985,2.998 C-2.985,2.998 -2.974,2.998 -2.974,2.998 C0.3169999999999997,2.998 2.986,0.32899999999999974 2.986,-2.963 C2.986,-2.963 2.986,-2.998 2.986,-2.998 C2.986,-2.998 2.976,-2.998 2.976,-2.998 C-0.31599999999999984,-2.998 -2.985,-0.3299999999999996 -2.985,2.962z"></path></g><g opacity="1" transform="matrix(1,0,0,1,325.557,210.762)"><path fill="rgb(132,191,86)" fill-opacity="1" d="M0 0 M-2.985,2.962 C-2.985,-0.3299999999999996 -0.31599999999999984,-2.998 2.976,-2.998 C2.976,-2.998 2.986,-2.998 2.986,-2.998 C2.986,-2.998 2.986,-2.963 2.986,-2.963 C2.986,0.32899999999999974 0.3169999999999997,2.998 -2.974,2.998 C-2.974,2.998 -2.985,2.998 -2.985,2.998 C-2.985,2.998 -2.985,2.962 -2.985,2.962z"></path></g><g opacity="1" transform="matrix(1,0,0,1,322.572,197.654)"><path fill="rgb(226,89,63)" fill-opacity="1" d="M0 0 M2.953,0 C2.953,3.751 1.631,6.792 0,6.792 C-1.631,6.792 -2.953,3.751 -2.953,0 C-2.953,-3.751 -1.631,-6.792 0,-6.792 C1.631,-6.792 2.953,-3.751 2.953,0z"></path></g><g opacity="1" transform="matrix(1,0,0,1,322.572,197.654)"><path fill="rgb(232,86,56)" fill-opacity="1" d="M0 0 M2.953,0 C2.953,-3.751 1.631,-6.792 0,-6.792 C-1.631,-6.792 -2.953,-3.751 -2.953,0 C-2.953,3.751 -1.631,6.792 0,6.792 C1.631,6.792 2.953,3.751 2.953,0z"></path></g><g opacity="1" transform="matrix(1,0,0,1,322.571,197.655)"><path fill="rgb(226,89,63)" fill-opacity="1" d="M0 0 M0,2.965 C-3.734,2.965 -6.763,1.637 -6.763,-0.001 C-6.763,-1.6389999999999998 -3.734,-2.965 0,-2.965 C3.735,-2.965 6.763,-1.6389999999999998 6.763,-0.001 C6.763,1.637 3.735,2.965 0,2.965z"></path></g><g opacity="1" transform="matrix(1,0,0,1,322.571,197.655)"><path fill="rgb(232,86,56)" fill-opacity="1" d="M0 0 M0,2.965 C3.735,2.965 6.763,1.637 6.763,-0.001 C6.763,-1.6389999999999998 3.735,-2.965 0,-2.965 C-3.734,-2.965 -6.763,-1.6389999999999998 -6.763,-0.001 C-6.763,1.637 -3.734,2.965 0,2.965z"></path></g><g opacity="1" transform="matrix(1,0,0,1,322.572,197.655)"><path fill="rgb(239,114,66)" fill-opacity="1" d="M0 0 M2.087,2.096 C-0.5539999999999998,4.748 -3.63,5.959999999999999 -4.782,4.802 C-5.9350000000000005,3.6439999999999997 -4.729,0.5550000000000002 -2.089,-2.097 C0.5529999999999999,-4.75 3.6279999999999997,-5.961 4.781,-4.803 C5.933999999999999,-3.645 4.728,-0.556 2.087,2.096z"></path></g><g opacity="1" transform="matrix(1,0,0,1,322.572,197.655)"><path fill="rgb(242,112,56)" fill-opacity="1" d="M0 0 M2.087,2.096 C4.728,-0.556 5.933999999999999,-3.645 4.781,-4.803 C3.6279999999999997,-5.961 0.5529999999999999,-4.75 -2.089,-2.097 C-4.729,0.5550000000000002 -5.9350000000000005,3.6439999999999997 -4.782,4.802 C-3.63,5.959999999999999 -0.5539999999999998,4.748 2.087,2.096z"></path></g><g opacity="1" transform="matrix(1,0,0,1,322.571,197.655)"><path fill="rgb(242,112,56)" fill-opacity="1" d="M0 0 M-2.087,2.096 C-4.728,-0.556 -5.934,-3.645 -4.78,-4.803 C-3.628,-5.961 -0.552,-4.75 2.089,-2.097 C4.729,0.5550000000000002 5.9350000000000005,3.6439999999999997 4.783,4.802 C3.6300000000000003,5.959999999999999 0.5549999999999997,4.748 -2.087,2.096z"></path></g><g opacity="1" transform="matrix(1,0,0,1,322.571,197.655)"><path fill="rgb(242,112,56)" fill-opacity="1" d="M0 0 M-2.087,2.096 C0.5549999999999997,4.748 3.6300000000000003,5.959999999999999 4.783,4.802 C5.9350000000000005,3.6439999999999997 4.729,0.5550000000000002 2.089,-2.097 C-0.552,-4.75 -3.628,-5.961 -4.78,-4.803 C-5.934,-3.645 -4.728,-0.556 -2.087,2.096z"></path></g><g opacity="1" transform="matrix(1,0,0,1,322.572,197.655)"><path fill="rgb(252,193,0)" fill-opacity="1" d="M0 0 M2.953,-0.001 C2.953,1.637 1.631,2.965 0,2.965 C-1.631,2.965 -2.953,1.637 -2.953,-0.001 C-2.953,-1.6389999999999998 -1.631,-2.965 0,-2.965 C1.631,-2.965 2.953,-1.6389999999999998 2.953,-0.001z"></path></g><g opacity="1" transform="matrix(1,0,0,1,322.572,197.655)"><path fill="rgb(252,193,0)" fill-opacity="1" d="M0 0 M2.953,-0.001 C2.953,-1.6389999999999998 1.631,-2.965 0,-2.965 C-1.631,-2.965 -2.953,-1.6389999999999998 -2.953,-0.001 C-2.953,1.637 -1.631,2.965 0,2.965 C1.631,2.965 2.953,1.637 2.953,-0.001z"></path></g></g><g transform="matrix(1,0,0,1,42.5,30)" opacity="1" style="user-select: none;"><g opacity="1" transform="matrix(1,0,0,1,322.571,223.04)"><path fill="rgb(191,221,150)" fill-opacity="1" d="M0 0 M2.465,0 C2.465,0.69 1.361,1.25 0,1.25 C-1.361,1.25 -2.465,0.69 -2.465,0 C-2.465,-0.689 -1.361,-1.249 0,-1.249 C1.361,-1.249 2.465,-0.689 2.465,0z"></path></g><g opacity="1" transform="matrix(1,0,0,1,322.571,223.04)"><path fill="rgb(191,221,150)" fill-opacity="1" d="M0 0 M2.465,0 C2.465,-0.689 1.361,-1.249 0,-1.249 C-1.361,-1.249 -2.465,-0.689 -2.465,0 C-2.465,0.69 -1.361,1.25 0,1.25 C1.361,1.25 2.465,0.69 2.465,0z"></path></g><g opacity="1" transform="matrix(1,0,0,1,322.571,212.179)"><path fill="rgb(119,175,71)" fill-opacity="1" d="M0 0 M0,11.117 C-0.302,11.117 -0.547,10.872 -0.547,10.57 C-0.547,10.57 -0.547,-10.57 -0.547,-10.57 C-0.547,-10.871 -0.302,-11.117 0,-11.117 C0.302,-11.117 0.547,-10.871 0.547,-10.57 C0.547,-10.57 0.547,10.57 0.547,10.57 C0.547,10.872 0.302,11.117 0,11.117z"></path></g><g opacity="1" transform="matrix(1,0,0,1,322.571,212.179)"><path fill="rgb(119,175,71)" fill-opacity="1" d="M0 0 M0,11.117 C0.302,11.117 0.547,10.872 0.547,10.57 C0.547,10.57 0.547,-10.57 0.547,-10.57 C0.547,-10.871 0.302,-11.117 0,-11.117 C-0.302,-11.117 -0.547,-10.871 -0.547,-10.57 C-0.547,-10.57 -0.547,10.57 -0.547,10.57 C-0.547,10.872 -0.302,11.117 0,11.117z"></path></g><g opacity="1" transform="matrix(1,0,0,1,319.586,213.055)"><path fill="rgb(132,191,86)" fill-opacity="1" d="M0 0 M2.986,2.963 C2.986,2.963 2.986,2.998 2.986,2.998 C2.986,2.998 2.975,2.998 2.975,2.998 C-0.3169999999999997,2.998 -2.986,0.3299999999999996 -2.986,-2.962 C-2.986,-2.962 -2.986,-2.998 -2.986,-2.998 C-2.986,-2.998 -2.976,-2.998 -2.976,-2.998 C0.31599999999999984,-2.998 2.986,-0.32899999999999974 2.986,2.963z"></path></g><g opacity="1" transform="matrix(1,0,0,1,319.586,213.055)"><path fill="rgb(132,191,86)" fill-opacity="1" d="M0 0 M2.986,2.963 C2.986,-0.32899999999999974 0.31599999999999984,-2.998 -2.976,-2.998 C-2.976,-2.998 -2.986,-2.998 -2.986,-2.998 C-2.986,-2.998 -2.986,-2.962 -2.986,-2.962 C-2.986,0.3299999999999996 -0.3169999999999997,2.998 2.975,2.998 C2.975,2.998 2.986,2.998 2.986,2.998 C2.986,2.998 2.986,2.963 2.986,2.963z"></path></g><g opacity="1" transform="matrix(1,0,0,1,325.557,210.762)"><path fill="rgb(132,191,86)" fill-opacity="1" d="M0 0 M-2.985,2.962 C-2.985,2.962 -2.985,2.998 -2.985,2.998 C-2.985,2.998 -2.974,2.998 -2.974,2.998 C0.3169999999999997,2.998 2.986,0.32899999999999974 2.986,-2.963 C2.986,-2.963 2.986,-2.998 2.986,-2.998 C2.986,-2.998 2.976,-2.998 2.976,-2.998 C-0.31599999999999984,-2.998 -2.985,-0.3299999999999996 -2.985,2.962z"></path></g><g opacity="1" transform="matrix(1,0,0,1,325.557,210.762)"><path fill="rgb(132,191,86)" fill-opacity="1" d="M0 0 M-2.985,2.962 C-2.985,-0.3299999999999996 -0.31599999999999984,-2.998 2.976,-2.998 C2.976,-2.998 2.986,-2.998 2.986,-2.998 C2.986,-2.998 2.986,-2.963 2.986,-2.963 C2.986,0.32899999999999974 0.3169999999999997,2.998 -2.974,2.998 C-2.974,2.998 -2.985,2.998 -2.985,2.998 C-2.985,2.998 -2.985,2.962 -2.985,2.962z"></path></g><g opacity="1" transform="matrix(1,0,0,1,322.572,197.654)"><path fill="rgb(242,112,56)" fill-opacity="1" d="M0 0 M2.953,0 C2.953,3.751 1.631,6.792 0,6.792 C-1.631,6.792 -2.953,3.751 -2.953,0 C-2.953,-3.751 -1.631,-6.792 0,-6.792 C1.631,-6.792 2.953,-3.751 2.953,0z"></path></g><g opacity="1" transform="matrix(1,0,0,1,322.572,197.654)"><path fill="rgb(242,112,56)" fill-opacity="1" d="M0 0 M2.953,0 C2.953,-3.751 1.631,-6.792 0,-6.792 C-1.631,-6.792 -2.953,-3.751 -2.953,0 C-2.953,3.751 -1.631,6.792 0,6.792 C1.631,6.792 2.953,3.751 2.953,0z"></path></g><g opacity="1" transform="matrix(1,0,0,1,322.571,197.655)"><path fill="rgb(242,112,56)" fill-opacity="1" d="M0 0 M0,2.965 C-3.734,2.965 -6.763,1.637 -6.763,-0.001 C-6.763,-1.6389999999999998 -3.734,-2.965 0,-2.965 C3.735,-2.965 6.763,-1.6389999999999998 6.763,-0.001 C6.763,1.637 3.735,2.965 0,2.965z"></path></g><g opacity="1" transform="matrix(1,0,0,1,322.571,197.655)"><path fill="rgb(242,112,56)" fill-opacity="1" d="M0 0 M0,2.965 C3.735,2.965 6.763,1.637 6.763,-0.001 C6.763,-1.6389999999999998 3.735,-2.965 0,-2.965 C-3.734,-2.965 -6.763,-1.6389999999999998 -6.763,-0.001 C-6.763,1.637 -3.734,2.965 0,2.965z"></path></g><g opacity="1" transform="matrix(1,0,0,1,322.572,197.655)"><path fill="rgb(232,86,56)" fill-opacity="1" d="M0 0 M2.087,2.096 C-0.5539999999999998,4.748 -3.63,5.959999999999999 -4.782,4.802 C-5.9350000000000005,3.6439999999999997 -4.729,0.5550000000000002 -2.089,-2.097 C0.5529999999999999,-4.75 3.6279999999999997,-5.961 4.781,-4.803 C5.933999999999999,-3.645 4.728,-0.556 2.087,2.096z"></path></g><g opacity="1" transform="matrix(1,0,0,1,322.572,197.655)"><path fill="rgb(232,86,56)" fill-opacity="1" d="M0 0 M2.087,2.096 C4.728,-0.556 5.933999999999999,-3.645 4.781,-4.803 C3.6279999999999997,-5.961 0.5529999999999999,-4.75 -2.089,-2.097 C-4.729,0.5550000000000002 -5.9350000000000005,3.6439999999999997 -4.782,4.802 C-3.63,5.959999999999999 -0.5539999999999998,4.748 2.087,2.096z"></path></g><g opacity="1" transform="matrix(1,0,0,1,322.571,197.655)"><path fill="rgb(232,86,56)" fill-opacity="1" d="M0 0 M-2.087,2.096 C-4.728,-0.556 -5.934,-3.645 -4.78,-4.803 C-3.628,-5.961 -0.552,-4.75 2.089,-2.097 C4.729,0.5550000000000002 5.9350000000000005,3.6439999999999997 4.783,4.802 C3.6300000000000003,5.959999999999999 0.5549999999999997,4.748 -2.087,2.096z"></path></g><g opacity="1" transform="matrix(1,0,0,1,322.571,197.655)"><path fill="rgb(232,86,56)" fill-opacity="1" d="M0 0 M-2.087,2.096 C0.5549999999999997,4.748 3.6300000000000003,5.959999999999999 4.783,4.802 C5.9350000000000005,3.6439999999999997 4.729,0.5550000000000002 2.089,-2.097 C-0.552,-4.75 -3.628,-5.961 -4.78,-4.803 C-5.934,-3.645 -4.728,-0.556 -2.087,2.096z"></path></g><g opacity="1" transform="matrix(1,0,0,1,322.572,197.655)"><path fill="rgb(252,193,0)" fill-opacity="1" d="M0 0 M2.953,-0.001 C2.953,1.637 1.631,2.965 0,2.965 C-1.631,2.965 -2.953,1.637 -2.953,-0.001 C-2.953,-1.6389999999999998 -1.631,-2.965 0,-2.965 C1.631,-2.965 2.953,-1.6389999999999998 2.953,-0.001z"></path></g><g opacity="1" transform="matrix(1,0,0,1,322.572,197.655)"><path fill="rgb(252,193,0)" fill-opacity="1" d="M0 0 M2.953,-0.001 C2.953,-1.6389999999999998 1.631,-2.965 0,-2.965 C-1.631,-2.965 -2.953,-1.6389999999999998 -2.953,-0.001 C-2.953,1.637 -1.631,2.965 0,2.965 C1.631,2.965 2.953,1.637 2.953,-0.001z"></path></g></g></g><g transform="matrix(0.55,0,0,0.55,-0.5,9)" opacity="1" style="user-select: none;"><g opacity="1" transform="matrix(1,0,0,1,289.276,112.442)"><path fill="rgb(150,112,71)" fill-opacity="1" d="M0 0 M2.179,-12.99 C1.0759999999999998,-14.415000000000001 -1.0759999999999998,-14.415000000000001 -2.179,-12.99 C-2.179,-12.99 -21.695,12.223 -21.695,12.223 C-22.387,13.117 -21.75,14.415 -20.62,14.415 C-20.62,14.415 20.62,14.415 20.62,14.415 C21.75,14.415 22.387,13.117 21.696,12.223 C21.696,12.223 2.179,-12.99 2.179,-12.99z"></path></g><g opacity="1" transform="matrix(1,0,0,1,289.276,112.442)"><path fill="rgb(150,112,71)" fill-opacity="1" d="M0 0 M2.179,-12.99 C2.179,-12.99 21.696,12.223 21.696,12.223 C22.387,13.117 21.75,14.415 20.62,14.415 C20.62,14.415 -20.62,14.415 -20.62,14.415 C-21.75,14.415 -22.387,13.117 -21.695,12.223 C-21.695,12.223 -2.179,-12.99 -2.179,-12.99 C-1.0759999999999998,-14.415000000000001 1.0759999999999998,-14.415000000000001 2.179,-12.99z"></path></g><g opacity="1" transform="matrix(1,0,0,1,289.276,182.773)"><path fill="rgb(191,221,150)" fill-opacity="1" d="M0 0 M27.011,3.262 C27.011,3.262 -27.01,3.262 -27.01,3.262 C-28.812,3.262 -30.272,1.802 -30.272,0 C-30.272,-1.801 -28.812,-3.262 -27.01,-3.262 C-27.01,-3.262 27.011,-3.262 27.011,-3.262 C28.811999999999998,-3.262 30.273,-1.801 30.273,0 C30.273,1.802 28.811999999999998,3.262 27.011,3.262z"></path></g><g opacity="1" transform="matrix(1,0,0,1,289.276,182.773)"><path fill="rgb(191,221,150)" fill-opacity="1" d="M0 0 M27.011,3.262 C28.811999999999998,3.262 30.273,1.802 30.273,0 C30.273,-1.801 28.811999999999998,-3.262 27.011,-3.262 C27.011,-3.262 -27.01,-3.262 -27.01,-3.262 C-28.812,-3.262 -30.272,-1.801 -30.272,0 C-30.272,1.802 -28.812,3.262 -27.01,3.262 C-27.01,3.262 27.011,3.262 27.011,3.262z"></path></g><g opacity="1" transform="matrix(1,0,0,1,289.276,154.474)"><path fill="rgb(237,216,137)" fill-opacity="1" d="M0 0 M24.265,27.617 C24.265,27.617 -24.265,27.617 -24.265,27.617 C-24.265,27.617 -19.159,-27.617 -19.159,-27.617 C-19.159,-27.617 19.159,-27.617 19.159,-27.617 C19.159,-27.617 24.265,27.617 24.265,27.617z"></path></g><g opacity="1" transform="matrix(1,0,0,1,289.276,159.474)"><path fill="rgb(201,173,94)" fill-opacity="1" d="M0 0 M4.139,5.136 C4.139,5.136 -4.138,5.136 -4.138,5.136 C-4.138,5.136 -4.138,-0.997 -4.138,-0.997 C-4.138,-3.283 -2.285,-5.137 0,-5.137 C2.286,-5.137 4.139,-3.283 4.139,-0.997 C4.139,-0.997 4.139,5.136 4.139,5.136z"></path></g><g opacity="1" transform="matrix(1,0,0,1,289.276,141.497)"><path fill="rgb(201,173,94)" fill-opacity="1" d="M0 0 M4.139,5.137 C4.139,5.137 -4.138,5.137 -4.138,5.137 C-4.138,5.137 -4.138,-0.997 -4.138,-0.997 C-4.138,-3.283 -2.285,-5.137 0,-5.137 C2.286,-5.137 4.139,-3.283 4.139,-0.997 C4.139,-0.997 4.139,5.137 4.139,5.137z"></path></g><g opacity="1" transform="matrix(1,0,0,1,289.276,176.954)"><path fill="rgb(201,173,94)" fill-opacity="1" d="M0 0 M4.139,5.137 C4.139,5.137 -4.138,5.137 -4.138,5.137 C-4.138,5.137 -4.138,-0.997 -4.138,-0.997 C-4.138,-3.283 -2.285,-5.136 0,-5.136 C2.286,-5.136 4.139,-3.283 4.139,-0.997 C4.139,-0.997 4.139,5.137 4.139,5.137z"></path></g><g opacity="1" transform="matrix(1,0,0,1,289.276,128.869)"><path fill="rgb(219,193,117)" fill-opacity="1" d="M0 0 M19.531,2.012 C19.531,2.012 -19.531,2.012 -19.531,2.012 C-19.531,2.012 -19.159,-2.012 -19.159,-2.012 C-19.159,-2.012 19.159,-2.012 19.159,-2.012 C19.159,-2.012 19.531,2.012 19.531,2.012z"></path></g></g><g mask="url(#ly_4KKJ8Dlh7Y)"><g transform="matrix(0.1543,0.5279,-0.5279,0.1543,175.2161,-96.3181)" opacity="0.12" style="user-select: none;"><g opacity="1" transform="matrix(1,0,0,1,289.309,112.867)"><path fill="rgb(0,0,0)" fill-opacity="1" d="M0 0 M41.911,-44.011 C41.911,-44.011 36.775,-38.875 36.775,-38.875 C36.775,-38.875 36.366,-38.466 36.366,-38.466 C36.366,-38.466 29.154,-31.254 29.154,-31.254 C29.154,-31.254 26.503,-28.602 26.503,-28.602 C26.503,-28.602 25.276,-27.375 25.276,-27.375 C25.276,-27.375 23.675,-25.775 23.675,-25.775 C23.675,-25.775 21.365,-23.465 21.365,-23.465 C21.365,-23.465 20.021,-22.12 20.021,-22.12 C20.021,-22.12 16.229,-18.329 16.229,-18.329 C16.229,-18.329 14.885,-16.984 14.885,-16.984 C14.885,-16.984 9.749,-11.848 9.749,-11.848 C9.749,-11.848 5.439,-7.538 5.439,-7.538 C5.439,-7.538 0,-2.099 0,-2.099 C0,-2.099 -5.439,-7.538 -5.439,-7.538 C-5.439,-7.538 -9.75,-11.848 -9.75,-11.848 C-9.75,-11.848 0.62,-22.217 0.62,-22.217 C0.62,-22.217 -4.516,-27.353 -4.516,-27.353 C-4.516,-27.353 -5.861,-28.698 -5.861,-28.698 C-5.861,-28.698 -9.652,-32.489 -9.652,-32.489 C-9.652,-32.489 -10.997,-33.834 -10.997,-33.834 C-10.997,-33.834 -14.789,-37.626 -14.789,-37.626 C-14.789,-37.626 -16.134,-38.971 -16.134,-38.971 C-16.134,-38.971 -19.924,-42.762 -19.924,-42.762 C-19.924,-42.762 -21.27,-44.107 -21.27,-44.107 C-21.27,-44.107 -25.061,-47.899 -25.061,-47.899 C-25.061,-47.899 -26.406,-49.244 -26.406,-49.244 C-26.406,-49.244 -31.543,-54.38 -31.543,-54.38 C-31.543,-54.38 -41.911,-44.011 -41.911,-44.011 C-41.911,-44.011 -44.01,-41.911 -44.01,-41.911 C-44.01,-41.911 -38.874,-36.776 -38.874,-36.776 C-38.874,-36.776 -37.531,-35.431 -37.531,-35.431 C-37.531,-35.431 -33.738,-31.638 -33.738,-31.638 C-33.738,-31.638 -32.393,-30.294 -32.393,-30.294 C-32.393,-30.294 -28.602,-26.503 -28.602,-26.503 C-28.602,-26.503 -27.258,-25.158 -27.258,-25.158 C-27.258,-25.158 -23.465,-21.365 -23.465,-21.365 C-23.465,-21.365 -22.121,-20.021 -22.121,-20.021 C-22.121,-20.021 -18.328,-16.23 -18.328,-16.23 C-18.328,-16.23 -16.984,-14.885 -16.984,-14.885 C-16.984,-14.885 -11.849,-9.749 -11.849,-9.749 C-11.849,-9.749 -7.539,-5.439 -7.539,-5.439 C-7.539,-5.439 -2.1,0 -2.1,0 C-2.1,0 -7.539,5.439 -7.539,5.439 C-7.539,5.439 -11.849,9.749 -11.849,9.749 C-11.849,9.749 -22.217,-0.62 -22.217,-0.62 C-22.217,-0.62 -27.354,4.516 -27.354,4.516 C-27.354,4.516 -28.698,5.86 -28.698,5.86 C-28.698,5.86 -32.49,9.652 -32.49,9.652 C-32.49,9.652 -33.833,10.996 -33.833,10.996 C-33.833,10.996 -37.626,14.789 -37.626,14.789 C-37.626,14.789 -38.971,16.133 -38.971,16.133 C-38.971,16.133 -42.762,19.925 -42.762,19.925 C-42.762,19.925 -44.106,21.269 -44.106,21.269 C-44.106,21.269 -47.9,25.062 -47.9,25.062 C-47.9,25.062 -49.243,26.406 -49.243,26.406 C-49.243,26.406 -54.38,31.542 -54.38,31.542 C-54.38,31.542 -44.01,41.911 -44.01,41.911 C-44.01,41.911 -44.01,41.912 -44.01,41.912 C-44.01,41.912 -41.911,44.011 -41.911,44.011 C-41.911,44.011 -36.775,38.875 -36.775,38.875 C-36.775,38.875 -30.294,32.393 -30.294,32.393 C-30.294,32.393 -26.503,28.602 -26.503,28.602 C-26.503,28.602 -25.158,27.257 -25.158,27.257 C-25.158,27.257 -14.885,16.984 -14.885,16.984 C-14.885,16.984 -9.75,11.848 -9.75,11.848 C-9.75,11.848 -5.439,7.538 -5.439,7.538 C-5.439,7.538 0,2.099 0,2.099 C0,2.099 5.439,7.538 5.439,7.538 C5.439,7.538 9.749,11.848 9.749,11.848 C9.749,11.848 -0.621,22.218 -0.621,22.218 C-0.621,22.218 4.516,27.353 4.516,27.353 C4.516,27.353 5.861,28.698 5.861,28.698 C5.861,28.698 9.651,32.489 9.651,32.489 C9.651,32.489 10.996,33.834 10.996,33.834 C10.996,33.834 14.788,37.627 14.788,37.627 C14.788,37.627 16.133,38.971 16.133,38.971 C16.133,38.971 19.924,42.762 19.924,42.762 C19.924,42.762 21.27,44.107 21.27,44.107 C21.27,44.107 25.061,47.9 25.061,47.9 C25.061,47.9 26.406,49.244 26.406,49.244 C26.406,49.244 31.542,54.38 31.542,54.38 C31.542,54.38 41.911,44.011 41.911,44.011 C41.911,44.011 44.01,41.912 44.01,41.912 C44.01,41.912 38.678,36.579 38.678,36.579 C38.678,36.579 37.53,35.431 37.53,35.431 C37.53,35.431 33.737,31.638 33.737,31.638 C33.737,31.638 32.393,30.294 32.393,30.294 C32.393,30.294 30.052,27.954 30.052,27.954 C30.052,27.954 28.012,25.913 28.012,25.913 C28.012,25.913 27.257,25.158 27.257,25.158 C27.257,25.158 23.464,21.365 23.464,21.365 C23.464,21.365 22.12,20.021 22.12,20.021 C22.12,20.021 18.328,16.23 18.328,16.23 C18.328,16.23 16.984,14.885 16.984,14.885 C16.984,14.885 11.848,9.749 11.848,9.749 C11.848,9.749 7.538,5.439 7.538,5.439 C7.538,5.439 2.099,0 2.099,0 C2.099,0 7.538,-5.439 7.538,-5.439 C7.538,-5.439 11.848,-9.749 11.848,-9.749 C11.848,-9.749 22.217,0.62 22.217,0.62 C22.217,0.62 27.353,-4.516 27.353,-4.516 C27.353,-4.516 28.698,-5.86 28.698,-5.86 C28.698,-5.86 32.49,-9.652 32.49,-9.652 C32.49,-9.652 33.833,-10.996 33.833,-10.996 C33.833,-10.996 37.626,-14.789 37.626,-14.789 C37.626,-14.789 38.971,-16.133 38.971,-16.133 C38.971,-16.133 42.762,-19.925 42.762,-19.925 C42.762,-19.925 44.106,-21.269 44.106,-21.269 C44.106,-21.269 47.9,-25.062 47.9,-25.062 C47.9,-25.062 49.244,-26.406 49.244,-26.406 C49.244,-26.406 54.379,-31.542 54.379,-31.542 C54.379,-31.542 41.911,-44.011 41.911,-44.011zM0 0 M-2.07,-22.217 C-2.07,-22.217 -11.094,-13.193 -11.094,-13.193 C-11.094,-13.193 -14.885,-16.984 -14.885,-16.984 C-14.885,-16.984 -5.861,-26.009 -5.861,-26.009 C-5.861,-26.009 -2.07,-22.217 -2.07,-22.217zM0 0 M-7.204,-27.353 C-7.204,-27.353 -16.229,-18.329 -16.229,-18.329 C-16.229,-18.329 -20.021,-22.12 -20.021,-22.12 C-20.021,-22.12 -10.997,-31.145 -10.997,-31.145 C-10.997,-31.145 -7.204,-27.353 -7.204,-27.353zM0 0 M-12.341,-32.489 C-12.341,-32.489 -21.366,-23.465 -21.366,-23.465 C-21.366,-23.465 -25.158,-27.257 -25.158,-27.257 C-25.158,-27.257 -16.134,-36.282 -16.134,-36.282 C-16.134,-36.282 -12.341,-32.489 -12.341,-32.489zM0 0 M-17.478,-37.626 C-17.478,-37.626 -26.503,-28.602 -26.503,-28.602 C-26.503,-28.602 -30.294,-32.393 -30.294,-32.393 C-30.294,-32.393 -21.27,-41.418 -21.27,-41.418 C-21.27,-41.418 -17.478,-37.626 -17.478,-37.626zM0 0 M-22.613,-42.762 C-22.613,-42.762 -31.639,-33.738 -31.639,-33.738 C-31.639,-33.738 -35.432,-37.53 -35.432,-37.53 C-35.432,-37.53 -26.406,-46.555 -26.406,-46.555 C-26.406,-46.555 -22.613,-42.762 -22.613,-42.762zM0 0 M-31.543,-51.691 C-31.543,-51.691 -27.751,-47.899 -27.751,-47.899 C-27.751,-47.899 -36.775,-38.875 -36.775,-38.875 C-36.775,-38.875 -40.566,-42.666 -40.566,-42.666 C-40.566,-42.666 -31.543,-51.691 -31.543,-51.691zM0 0 M-22.217,2.069 C-22.217,2.069 -13.193,11.094 -13.193,11.094 C-13.193,11.094 -16.984,14.885 -16.984,14.885 C-16.984,14.885 -26.009,5.86 -26.009,5.86 C-26.009,5.86 -22.217,2.069 -22.217,2.069zM0 0 M-27.354,7.205 C-27.354,7.205 -18.328,16.23 -18.328,16.23 C-18.328,16.23 -22.121,20.021 -22.121,20.021 C-22.121,20.021 -31.145,10.996 -31.145,10.996 C-31.145,10.996 -27.354,7.205 -27.354,7.205zM0 0 M-32.49,12.341 C-32.49,12.341 -23.465,21.365 -23.465,21.365 C-23.465,21.365 -27.258,25.158 -27.258,25.158 C-27.258,25.158 -36.281,16.133 -36.281,16.133 C-36.281,16.133 -32.49,12.341 -32.49,12.341zM0 0 M-37.626,17.478 C-37.626,17.478 -28.602,26.503 -28.602,26.503 C-28.602,26.503 -32.393,30.294 -32.393,30.294 C-32.393,30.294 -41.417,21.269 -41.417,21.269 C-41.417,21.269 -37.626,17.478 -37.626,17.478zM0 0 M-42.762,22.614 C-42.762,22.614 -33.738,31.638 -33.738,31.638 C-33.738,31.638 -37.531,35.431 -37.531,35.431 C-37.531,35.431 -46.555,26.406 -46.555,26.406 C-46.555,26.406 -42.762,22.614 -42.762,22.614zM0 0 M-51.69,31.542 C-51.69,31.542 -47.9,27.751 -47.9,27.751 C-47.9,27.751 -38.874,36.776 -38.874,36.776 C-38.874,36.776 -42.667,40.567 -42.667,40.567 C-42.667,40.567 -51.69,31.542 -51.69,31.542zM0 0 M2.068,22.218 C2.068,22.218 11.094,13.193 11.094,13.193 C11.094,13.193 14.885,16.984 14.885,16.984 C14.885,16.984 5.861,26.009 5.861,26.009 C5.861,26.009 2.068,22.218 2.068,22.218zM0 0 M7.204,27.353 C7.204,27.353 16.229,18.329 16.229,18.329 C16.229,18.329 20.02,22.12 20.02,22.12 C20.02,22.12 10.996,31.145 10.996,31.145 C10.996,31.145 7.204,27.353 7.204,27.353zM0 0 M12.34,32.489 C12.34,32.489 21.365,23.465 21.365,23.465 C21.365,23.465 25.158,27.257 25.158,27.257 C25.158,27.257 16.133,36.282 16.133,36.282 C16.133,36.282 12.34,32.489 12.34,32.489zM0 0 M17.477,37.627 C17.477,37.627 26.503,28.602 26.503,28.602 C26.503,28.602 30.293,32.393 30.293,32.393 C30.293,32.393 21.27,41.418 21.27,41.418 C21.27,41.418 17.477,37.627 17.477,37.627zM0 0 M22.613,42.762 C22.613,42.762 31.638,33.738 31.638,33.738 C31.638,33.738 35.431,37.53 35.431,37.53 C35.431,37.53 26.406,46.555 26.406,46.555 C26.406,46.555 22.613,42.762 22.613,42.762zM0 0 M31.542,51.691 C31.542,51.691 27.75,47.9 27.75,47.9 C27.75,47.9 36.775,38.875 36.775,38.875 C36.775,38.875 40.568,42.666 40.568,42.666 C40.568,42.666 31.542,51.691 31.542,51.691zM0 0 M22.217,-2.069 C22.217,-2.069 13.193,-11.094 13.193,-11.094 C13.193,-11.094 16.984,-14.885 16.984,-14.885 C16.984,-14.885 26.008,-5.86 26.008,-5.86 C26.008,-5.86 22.217,-2.069 22.217,-2.069zM0 0 M27.353,-7.205 C27.353,-7.205 18.328,-16.23 18.328,-16.23 C18.328,-16.23 22.12,-20.021 22.12,-20.021 C22.12,-20.021 31.145,-10.996 31.145,-10.996 C31.145,-10.996 27.353,-7.205 27.353,-7.205zM0 0 M32.49,-12.341 C32.49,-12.341 23.464,-21.366 23.464,-21.366 C23.464,-21.366 27.257,-25.158 27.257,-25.158 C27.257,-25.158 36.283,-16.133 36.283,-16.133 C36.283,-16.133 32.49,-12.341 32.49,-12.341zM0 0 M37.626,-17.478 C37.626,-17.478 28.602,-26.503 28.602,-26.503 C28.602,-26.503 32.393,-30.294 32.393,-30.294 C32.393,-30.294 41.417,-21.269 41.417,-21.269 C41.417,-21.269 37.626,-17.478 37.626,-17.478zM0 0 M42.762,-22.614 C42.762,-22.614 33.737,-31.639 33.737,-31.639 C33.737,-31.639 37.53,-35.431 37.53,-35.431 C37.53,-35.431 46.555,-26.406 46.555,-26.406 C46.555,-26.406 42.762,-22.614 42.762,-22.614zM0 0 M47.9,-27.751 C47.9,-27.751 38.874,-36.776 38.874,-36.776 C38.874,-36.776 42.667,-40.567 42.667,-40.567 C42.667,-40.567 51.69,-31.542 51.69,-31.542 C51.69,-31.542 47.9,-27.751 47.9,-27.751z"></path></g></g></g><g transform="matrix(0.1543,0.5279,-0.5279,0.1543,173.5661,-99.0681)" opacity="1" style="user-select: none;"><g opacity="1" transform="matrix(1,0,0,1,289.309,112.867)"><path fill="rgb(209,124,71)" fill-opacity="1" d="M0 0 M41.911,-44.011 C41.911,-44.011 36.775,-38.875 36.775,-38.875 C36.775,-38.875 36.366,-38.466 36.366,-38.466 C36.366,-38.466 29.154,-31.254 29.154,-31.254 C29.154,-31.254 26.503,-28.602 26.503,-28.602 C26.503,-28.602 25.276,-27.375 25.276,-27.375 C25.276,-27.375 23.675,-25.775 23.675,-25.775 C23.675,-25.775 21.365,-23.465 21.365,-23.465 C21.365,-23.465 20.021,-22.12 20.021,-22.12 C20.021,-22.12 16.229,-18.329 16.229,-18.329 C16.229,-18.329 14.885,-16.984 14.885,-16.984 C14.885,-16.984 9.749,-11.848 9.749,-11.848 C9.749,-11.848 5.439,-7.538 5.439,-7.538 C5.439,-7.538 0,-2.099 0,-2.099 C0,-2.099 -5.439,-7.538 -5.439,-7.538 C-5.439,-7.538 -9.75,-11.848 -9.75,-11.848 C-9.75,-11.848 0.62,-22.217 0.62,-22.217 C0.62,-22.217 -4.516,-27.353 -4.516,-27.353 C-4.516,-27.353 -5.861,-28.698 -5.861,-28.698 C-5.861,-28.698 -9.652,-32.489 -9.652,-32.489 C-9.652,-32.489 -10.997,-33.834 -10.997,-33.834 C-10.997,-33.834 -14.789,-37.626 -14.789,-37.626 C-14.789,-37.626 -16.134,-38.971 -16.134,-38.971 C-16.134,-38.971 -19.924,-42.762 -19.924,-42.762 C-19.924,-42.762 -21.27,-44.107 -21.27,-44.107 C-21.27,-44.107 -25.061,-47.899 -25.061,-47.899 C-25.061,-47.899 -26.406,-49.244 -26.406,-49.244 C-26.406,-49.244 -31.543,-54.38 -31.543,-54.38 C-31.543,-54.38 -41.911,-44.011 -41.911,-44.011 C-41.911,-44.011 -44.01,-41.911 -44.01,-41.911 C-44.01,-41.911 -38.874,-36.776 -38.874,-36.776 C-38.874,-36.776 -37.531,-35.431 -37.531,-35.431 C-37.531,-35.431 -33.738,-31.638 -33.738,-31.638 C-33.738,-31.638 -32.393,-30.294 -32.393,-30.294 C-32.393,-30.294 -28.602,-26.503 -28.602,-26.503 C-28.602,-26.503 -27.258,-25.158 -27.258,-25.158 C-27.258,-25.158 -23.465,-21.365 -23.465,-21.365 C-23.465,-21.365 -22.121,-20.021 -22.121,-20.021 C-22.121,-20.021 -18.328,-16.23 -18.328,-16.23 C-18.328,-16.23 -16.984,-14.885 -16.984,-14.885 C-16.984,-14.885 -11.849,-9.749 -11.849,-9.749 C-11.849,-9.749 -7.539,-5.439 -7.539,-5.439 C-7.539,-5.439 -2.1,0 -2.1,0 C-2.1,0 -7.539,5.439 -7.539,5.439 C-7.539,5.439 -11.849,9.749 -11.849,9.749 C-11.849,9.749 -22.217,-0.62 -22.217,-0.62 C-22.217,-0.62 -27.354,4.516 -27.354,4.516 C-27.354,4.516 -28.698,5.86 -28.698,5.86 C-28.698,5.86 -32.49,9.652 -32.49,9.652 C-32.49,9.652 -33.833,10.996 -33.833,10.996 C-33.833,10.996 -37.626,14.789 -37.626,14.789 C-37.626,14.789 -38.971,16.133 -38.971,16.133 C-38.971,16.133 -42.762,19.925 -42.762,19.925 C-42.762,19.925 -44.106,21.269 -44.106,21.269 C-44.106,21.269 -47.9,25.062 -47.9,25.062 C-47.9,25.062 -49.243,26.406 -49.243,26.406 C-49.243,26.406 -54.38,31.542 -54.38,31.542 C-54.38,31.542 -44.01,41.911 -44.01,41.911 C-44.01,41.911 -44.01,41.912 -44.01,41.912 C-44.01,41.912 -41.911,44.011 -41.911,44.011 C-41.911,44.011 -36.775,38.875 -36.775,38.875 C-36.775,38.875 -30.294,32.393 -30.294,32.393 C-30.294,32.393 -26.503,28.602 -26.503,28.602 C-26.503,28.602 -25.158,27.257 -25.158,27.257 C-25.158,27.257 -14.885,16.984 -14.885,16.984 C-14.885,16.984 -9.75,11.848 -9.75,11.848 C-9.75,11.848 -5.439,7.538 -5.439,7.538 C-5.439,7.538 0,2.099 0,2.099 C0,2.099 5.439,7.538 5.439,7.538 C5.439,7.538 9.749,11.848 9.749,11.848 C9.749,11.848 -0.621,22.218 -0.621,22.218 C-0.621,22.218 4.516,27.353 4.516,27.353 C4.516,27.353 5.861,28.698 5.861,28.698 C5.861,28.698 9.651,32.489 9.651,32.489 C9.651,32.489 10.996,33.834 10.996,33.834 C10.996,33.834 14.788,37.627 14.788,37.627 C14.788,37.627 16.133,38.971 16.133,38.971 C16.133,38.971 19.924,42.762 19.924,42.762 C19.924,42.762 21.27,44.107 21.27,44.107 C21.27,44.107 25.061,47.9 25.061,47.9 C25.061,47.9 26.406,49.244 26.406,49.244 C26.406,49.244 31.542,54.38 31.542,54.38 C31.542,54.38 41.911,44.011 41.911,44.011 C41.911,44.011 44.01,41.912 44.01,41.912 C44.01,41.912 38.678,36.579 38.678,36.579 C38.678,36.579 37.53,35.431 37.53,35.431 C37.53,35.431 33.737,31.638 33.737,31.638 C33.737,31.638 32.393,30.294 32.393,30.294 C32.393,30.294 30.052,27.954 30.052,27.954 C30.052,27.954 28.012,25.913 28.012,25.913 C28.012,25.913 27.257,25.158 27.257,25.158 C27.257,25.158 23.464,21.365 23.464,21.365 C23.464,21.365 22.12,20.021 22.12,20.021 C22.12,20.021 18.328,16.23 18.328,16.23 C18.328,16.23 16.984,14.885 16.984,14.885 C16.984,14.885 11.848,9.749 11.848,9.749 C11.848,9.749 7.538,5.439 7.538,5.439 C7.538,5.439 2.099,0 2.099,0 C2.099,0 7.538,-5.439 7.538,-5.439 C7.538,-5.439 11.848,-9.749 11.848,-9.749 C11.848,-9.749 22.217,0.62 22.217,0.62 C22.217,0.62 27.353,-4.516 27.353,-4.516 C27.353,-4.516 28.698,-5.86 28.698,-5.86 C28.698,-5.86 32.49,-9.652 32.49,-9.652 C32.49,-9.652 33.833,-10.996 33.833,-10.996 C33.833,-10.996 37.626,-14.789 37.626,-14.789 C37.626,-14.789 38.971,-16.133 38.971,-16.133 C38.971,-16.133 42.762,-19.925 42.762,-19.925 C42.762,-19.925 44.106,-21.269 44.106,-21.269 C44.106,-21.269 47.9,-25.062 47.9,-25.062 C47.9,-25.062 49.244,-26.406 49.244,-26.406 C49.244,-26.406 54.379,-31.542 54.379,-31.542 C54.379,-31.542 41.911,-44.011 41.911,-44.011zM0 0 M-2.07,-22.217 C-2.07,-22.217 -11.094,-13.193 -11.094,-13.193 C-11.094,-13.193 -14.885,-16.984 -14.885,-16.984 C-14.885,-16.984 -5.861,-26.009 -5.861,-26.009 C-5.861,-26.009 -2.07,-22.217 -2.07,-22.217zM0 0 M-7.204,-27.353 C-7.204,-27.353 -16.229,-18.329 -16.229,-18.329 C-16.229,-18.329 -20.021,-22.12 -20.021,-22.12 C-20.021,-22.12 -10.997,-31.145 -10.997,-31.145 C-10.997,-31.145 -7.204,-27.353 -7.204,-27.353zM0 0 M-12.341,-32.489 C-12.341,-32.489 -21.366,-23.465 -21.366,-23.465 C-21.366,-23.465 -25.158,-27.257 -25.158,-27.257 C-25.158,-27.257 -16.134,-36.282 -16.134,-36.282 C-16.134,-36.282 -12.341,-32.489 -12.341,-32.489zM0 0 M-17.478,-37.626 C-17.478,-37.626 -26.503,-28.602 -26.503,-28.602 C-26.503,-28.602 -30.294,-32.393 -30.294,-32.393 C-30.294,-32.393 -21.27,-41.418 -21.27,-41.418 C-21.27,-41.418 -17.478,-37.626 -17.478,-37.626zM0 0 M-22.613,-42.762 C-22.613,-42.762 -31.639,-33.738 -31.639,-33.738 C-31.639,-33.738 -35.432,-37.53 -35.432,-37.53 C-35.432,-37.53 -26.406,-46.555 -26.406,-46.555 C-26.406,-46.555 -22.613,-42.762 -22.613,-42.762zM0 0 M-31.543,-51.691 C-31.543,-51.691 -27.751,-47.899 -27.751,-47.899 C-27.751,-47.899 -36.775,-38.875 -36.775,-38.875 C-36.775,-38.875 -40.566,-42.666 -40.566,-42.666 C-40.566,-42.666 -31.543,-51.691 -31.543,-51.691zM0 0 M-22.217,2.069 C-22.217,2.069 -13.193,11.094 -13.193,11.094 C-13.193,11.094 -16.984,14.885 -16.984,14.885 C-16.984,14.885 -26.009,5.86 -26.009,5.86 C-26.009,5.86 -22.217,2.069 -22.217,2.069zM0 0 M-27.354,7.205 C-27.354,7.205 -18.328,16.23 -18.328,16.23 C-18.328,16.23 -22.121,20.021 -22.121,20.021 C-22.121,20.021 -31.145,10.996 -31.145,10.996 C-31.145,10.996 -27.354,7.205 -27.354,7.205zM0 0 M-32.49,12.341 C-32.49,12.341 -23.465,21.365 -23.465,21.365 C-23.465,21.365 -27.258,25.158 -27.258,25.158 C-27.258,25.158 -36.281,16.133 -36.281,16.133 C-36.281,16.133 -32.49,12.341 -32.49,12.341zM0 0 M-37.626,17.478 C-37.626,17.478 -28.602,26.503 -28.602,26.503 C-28.602,26.503 -32.393,30.294 -32.393,30.294 C-32.393,30.294 -41.417,21.269 -41.417,21.269 C-41.417,21.269 -37.626,17.478 -37.626,17.478zM0 0 M-42.762,22.614 C-42.762,22.614 -33.738,31.638 -33.738,31.638 C-33.738,31.638 -37.531,35.431 -37.531,35.431 C-37.531,35.431 -46.555,26.406 -46.555,26.406 C-46.555,26.406 -42.762,22.614 -42.762,22.614zM0 0 M-51.69,31.542 C-51.69,31.542 -47.9,27.751 -47.9,27.751 C-47.9,27.751 -38.874,36.776 -38.874,36.776 C-38.874,36.776 -42.667,40.567 -42.667,40.567 C-42.667,40.567 -51.69,31.542 -51.69,31.542zM0 0 M2.068,22.218 C2.068,22.218 11.094,13.193 11.094,13.193 C11.094,13.193 14.885,16.984 14.885,16.984 C14.885,16.984 5.861,26.009 5.861,26.009 C5.861,26.009 2.068,22.218 2.068,22.218zM0 0 M7.204,27.353 C7.204,27.353 16.229,18.329 16.229,18.329 C16.229,18.329 20.02,22.12 20.02,22.12 C20.02,22.12 10.996,31.145 10.996,31.145 C10.996,31.145 7.204,27.353 7.204,27.353zM0 0 M12.34,32.489 C12.34,32.489 21.365,23.465 21.365,23.465 C21.365,23.465 25.158,27.257 25.158,27.257 C25.158,27.257 16.133,36.282 16.133,36.282 C16.133,36.282 12.34,32.489 12.34,32.489zM0 0 M17.477,37.627 C17.477,37.627 26.503,28.602 26.503,28.602 C26.503,28.602 30.293,32.393 30.293,32.393 C30.293,32.393 21.27,41.418 21.27,41.418 C21.27,41.418 17.477,37.627 17.477,37.627zM0 0 M22.613,42.762 C22.613,42.762 31.638,33.738 31.638,33.738 C31.638,33.738 35.431,37.53 35.431,37.53 C35.431,37.53 26.406,46.555 26.406,46.555 C26.406,46.555 22.613,42.762 22.613,42.762zM0 0 M31.542,51.691 C31.542,51.691 27.75,47.9 27.75,47.9 C27.75,47.9 36.775,38.875 36.775,38.875 C36.775,38.875 40.568,42.666 40.568,42.666 C40.568,42.666 31.542,51.691 31.542,51.691zM0 0 M22.217,-2.069 C22.217,-2.069 13.193,-11.094 13.193,-11.094 C13.193,-11.094 16.984,-14.885 16.984,-14.885 C16.984,-14.885 26.008,-5.86 26.008,-5.86 C26.008,-5.86 22.217,-2.069 22.217,-2.069zM0 0 M27.353,-7.205 C27.353,-7.205 18.328,-16.23 18.328,-16.23 C18.328,-16.23 22.12,-20.021 22.12,-20.021 C22.12,-20.021 31.145,-10.996 31.145,-10.996 C31.145,-10.996 27.353,-7.205 27.353,-7.205zM0 0 M32.49,-12.341 C32.49,-12.341 23.464,-21.366 23.464,-21.366 C23.464,-21.366 27.257,-25.158 27.257,-25.158 C27.257,-25.158 36.283,-16.133 36.283,-16.133 C36.283,-16.133 32.49,-12.341 32.49,-12.341zM0 0 M37.626,-17.478 C37.626,-17.478 28.602,-26.503 28.602,-26.503 C28.602,-26.503 32.393,-30.294 32.393,-30.294 C32.393,-30.294 41.417,-21.269 41.417,-21.269 C41.417,-21.269 37.626,-17.478 37.626,-17.478zM0 0 M42.762,-22.614 C42.762,-22.614 33.737,-31.639 33.737,-31.639 C33.737,-31.639 37.53,-35.431 37.53,-35.431 C37.53,-35.431 46.555,-26.406 46.555,-26.406 C46.555,-26.406 42.762,-22.614 42.762,-22.614zM0 0 M47.9,-27.751 C47.9,-27.751 38.874,-36.776 38.874,-36.776 C38.874,-36.776 42.667,-40.567 42.667,-40.567 C42.667,-40.567 51.69,-31.542 51.69,-31.542 C51.69,-31.542 47.9,-27.751 47.9,-27.751z"></path></g></g><g transform="matrix(0.55,0,0,0.55,-0.5,9)" opacity="1" style="user-select: none;"><g opacity="1" transform="matrix(1,0,0,1,289.276,112.834)"><path fill="rgb(247,168,114)" fill-opacity="1" d="M0 0 M0,4.848 C-2.677,4.848 -4.848,2.678 -4.848,0 C-4.848,-2.677 -2.677,-4.848 0,-4.848 C2.677,-4.848 4.848,-2.677 4.848,0 C4.848,2.678 2.677,4.848 0,4.848z"></path></g></g><g transform="matrix(0.55,0,0,0.55,-0.5,9)" opacity="1" style="user-select: none;"><g opacity="1" transform="matrix(1,0,0,1,289.276,112.834)"><path fill="rgb(247,168,114)" fill-opacity="1" d="M0 0 M0,4.848 C2.677,4.848 4.848,2.678 4.848,0 C4.848,-2.677 2.677,-4.848 0,-4.848 C-2.677,-4.848 -4.848,-2.677 -4.848,0 C-4.848,2.678 -2.677,4.848 0,4.848z"></path></g></g><g></g></g></svg>