

<!-- Generator: Adobe Illustrator 21.0.0, SVG Export Plug-In . SVG Version: 6.00 Build 0)  -->
<svg version="1.1" id="Layer_1" xmlns="http://www.w3.org/2000/svg" xmlns:xlink="http://www.w3.org/1999/xlink" x="0px" y="0px"
	 viewBox="0 0 67 67" style="enable-background:new 0 0 67 67;" xml:space="preserve">
<style type="text/css">
	.st0{opacity:1.000000e-02;fill:#FFFFFF;}
	.st1{fill:#DFE7EB;}
	.st2{fill:none;stroke:#A3B0BF;stroke-width:1.5;stroke-linecap:round;stroke-linejoin:round;}
	.st3{fill:#FFFFFF;}
	.st4{fill:none;stroke:#08C7FB;stroke-width:1.5;stroke-linecap:round;stroke-linejoin:round;}
	.st5{fill:#D8F4FD;}
	.st6{fill:none;stroke:#DFE7EB;stroke-width:1.5;stroke-linecap:round;}
	.st7{fill:none;stroke:#43CAEF;stroke-width:1.5;stroke-linecap:round;stroke-linejoin:round;}
</style>
<g>
	<rect class="st0" width="67" height="67"/>
	<g id="fservice-home-page" transform="translate(-870.000000, -1384.000000)">
		<g id="Work-smarter-on-the-go" transform="translate(871.000000, 1385.000000)">
			<polygon id="Fill-1" class="st1" points="37.9,53.2 37.9,48.5 26.1,48.5 26.1,53.2 20.3,56.3 43.7,56.3 			"/>
			<polygon id="Stroke-2" class="st2" points="37.9,53.2 37.9,48.5 26.1,48.5 26.1,53.2 20.3,56.3 43.7,56.3 			"/>
			<g id="Group-29">
				<path id="Fill-3" class="st3" d="M64,36.8H0V5c0-2.5,2-4.5,4.5-4.5h55C62,0.5,64,2.5,64,5V36.8z"/>
				<path id="Stroke-5" class="st2" d="M64,36.8H0V5c0-2.5,2-4.5,4.5-4.5h55C62,0.5,64,2.5,64,5V36.8z"/>
				<path id="Fill-7" class="st1" d="M4.5,48.5h55c2.5,0,4.5-2,4.5-4.5v-7.2H0V44C0,46.5,2,48.5,4.5,48.5"/>
				<path id="Stroke-9" class="st2" d="M4.5,48.5h55c2.5,0,4.5-2,4.5-4.5v-7.2H0V44C0,46.5,2,48.5,4.5,48.5z"/>
				<path id="Fill-11" class="st3" d="M32.1,44.8c-1.2,0-2.2-1-2.2-2.2c0-1.2,1-2.2,2.2-2.2s2.2,1,2.2,2.2
					C34.2,43.8,33.3,44.8,32.1,44.8"/>
				<path id="Fill-13" class="st3" d="M62.7,64.5H45.2c-1.2,0-2.3-1-2.3-2.3V27c0-1.2,1-2.3,2.3-2.3h17.6c1.2,0,2.3,1,2.3,2.3v35.2
					C65,63.5,64,64.5,62.7,64.5"/>
				<path id="Stroke-15" class="st4" d="M62.7,64.5H45.2c-1.2,0-2.3-1-2.3-2.3V27c0-1.2,1-2.3,2.3-2.3h17.6c1.2,0,2.3,1,2.3,2.3
					v35.2C65,63.5,64,64.5,62.7,64.5z"/>
				<path id="Fill-17" class="st5" d="M54,61.1c0.9,0,1.7-0.7,1.7-1.7s-0.7-1.7-1.6-1.7h0c-0.9,0-1.7,0.7-1.7,1.7S53,61.1,54,61.1"
					/>
				<path id="Stroke-19" class="st6" d="M54.4,7.1l2.2,2.2"/>
				<path id="Stroke-21" class="st6" d="M46.8,7.1l8.8,8.8"/>
				<path id="Stroke-23" class="st7" d="M42.9,30.2H65"/>
				<path id="Fill-25" class="st5" d="M62.7,24.8H45.2c-1.2,0-2.3,1-2.3,2.3v3.7H65V27C65,25.8,64,24.8,62.7,24.8"/>
				<path id="Stroke-27" class="st4" d="M62.7,24.8H45.2c-1.2,0-2.3,1-2.3,2.3v3.7H65V27C65,25.8,64,24.8,62.7,24.8z"/>
			</g>
		</g>
	</g>
</g>
</svg>
